<?xml version="1.0" encoding="utf-8"?>
<!-- Generator: Adobe Illustrator 22.1.0, SVG Export Plug-In . SVG Version: 6.00 Build 0)  -->
<svg version="1.1" id="Layer_1" xmlns="http://www.w3.org/2000/svg" xmlns:xlink="http://www.w3.org/1999/xlink" x="0px" y="0px"
	 viewBox="0 0 100 100" style="enable-background:new 0 0 100 100;" xml:space="preserve">
<style type="text/css">
	.st0{fill:#FDD023;}
	.st1{display:none;}
	.st2{display:inline;}
	.st3{display:inline;opacity:0.13;}
</style>
<g id="Filled">
	<path class="st0" d="M79.2,12.5H20.8c-4.6,0-8.3,3.7-8.3,8.3v58.3c0,4.6,3.7,8.3,8.3,8.3h31.8v-29h-9.8V47.1h9.8v-8.4
		c0-9.7,5.9-15,14.6-15c2.9,0,5.8,0.1,8.7,0.4v10.1h-5.9c-4.7,0-5.6,2.2-5.6,5.5v7.2h11.3l-1.5,11.4h-9.9v29h14.9
		c4.6,0,8.3-3.7,8.3-8.3V20.8C87.5,16.2,83.8,12.5,79.2,12.5z"/>
</g>
<g id="Outlined" class="st1">
	<path class="st2" d="M48.4,87.5V62.7h-9.8V51.3h9.8V43c0-9.7,5.9-15,14.6-15c2.9,0,5.8,0.1,8.7,0.4v10.1h-5.9
		c-4.7,0-5.6,2.2-5.6,5.5v7.2h11.2l-1.5,11.4h-9.9v24.9H48.4z"/>
	<path class="st2" d="M79.2,12.5H20.8c-4.6,0-8.3,3.7-8.3,8.3v58.3c0,4.6,3.7,8.3,8.3,8.3h58.3c4.6,0,8.3-3.7,8.3-8.3V20.8
		C87.5,16.2,83.8,12.5,79.2,12.5z M20.8,79.2V20.8h58.3l0,58.3H20.8z"/>
</g>
<g id="Rounded" class="st1">
	<path class="st2" d="M70.8,12.5H29.2c-9.2,0-16.7,7.5-16.7,16.7v41.7c0,9.2,7.5,16.7,16.7,16.7h23.4v-29h-9.8V47.1h9.8v-8.4
		c0-9.7,5.9-15,14.6-15c2.9,0,5.8,0.1,8.7,0.4v10.1h-5.9c-4.7,0-5.6,2.2-5.6,5.5v7.2h11.3l-1.5,11.4h-9.9v29h6.6
		c9.2,0,16.7-7.5,16.7-16.7V29.2C87.5,20,80,12.5,70.8,12.5z"/>
</g>
<g id="Two-Tone" class="st1">
	<g class="st3">
		<path d="M79.2,83.3H20.8c-2.3,0-4.2-1.9-4.2-4.2V20.8c0-2.3,1.9-4.2,4.2-4.2h58.3c2.3,0,4.2,1.9,4.2,4.2v58.3
			C83.3,81.5,81.5,83.3,79.2,83.3z"/>
	</g>
	<path class="st2" d="M48.4,87.5V62.7h-9.8V51.3h9.8V43c0-9.7,5.9-15,14.6-15c2.9,0,5.8,0.1,8.7,0.4v10.1h-5.9
		c-4.7,0-5.6,2.2-5.6,5.5v7.2h11.2l-1.5,11.4h-9.9v24.9H48.4z"/>
	<path class="st2" d="M79.2,12.5H20.8c-4.6,0-8.3,3.7-8.3,8.3v58.3c0,4.6,3.7,8.3,8.3,8.3h58.3c4.6,0,8.3-3.7,8.3-8.3V20.8
		C87.5,16.2,83.8,12.5,79.2,12.5z M20.8,79.2V20.8h58.3l0,58.3H20.8z"/>
</g>
<g id="Sharp" class="st1">
	<path class="st2" d="M87.5,12.5h-75v75h40.1v-29h-9.8V47.1h9.8v-8.4c0-9.7,5.9-15,14.6-15c2.9,0,5.8,0.1,8.7,0.4v10.1h-5.9
		c-4.7,0-5.6,2.2-5.6,5.5v7.2h11.3l-1.5,11.4h-9.9v29h23.3V12.5z"/>
</g>
</svg>
