<?xml version="1.0" encoding="utf-8"?>
<!-- Generator: Adobe Illustrator 22.1.0, SVG Export Plug-In . SVG Version: 6.00 Build 0)  -->
<svg version="1.1" id="Layer_1" xmlns="http://www.w3.org/2000/svg" xmlns:xlink="http://www.w3.org/1999/xlink" x="0px" y="0px"
	 viewBox="0 0 100 100" style="enable-background:new 0 0 100 100;" xml:space="preserve">
<style type="text/css">
	.st0{fill:#FDD023;}
</style>
<path class="st0" d="M50,10c-22.1,0-40,17.9-40,40c0,18.7,12.9,34.4,30.3,38.8c-0.2-0.5-0.3-1.2-0.3-1.9V80c-1.6,0-4.3,0-5,0
	c-2.7,0-5.2-1.2-6.3-3.4c-1.3-2.4-1.5-6.1-4.8-8.4c-1-0.8-0.2-1.6,0.9-1.5c2.1,0.6,3.8,2,5.4,4.1c1.6,2.1,2.3,2.6,5.3,2.6
	c1.4,0,3.6-0.1,5.6-0.4c1.1-2.8,3-5.3,5.3-6.5c-13.3-1.4-19.7-8-19.7-17c0-3.9,1.6-7.6,4.5-10.8c-0.9-3.1-2.1-9.5,0.4-12
	c6,0,9.6,3.9,10.5,4.9c3-1,6.3-1.6,9.7-1.6c3.5,0,6.7,0.6,9.7,1.6c0.9-1,4.5-4.9,10.5-4.9c2.4,2.4,1.3,8.9,0.3,12
	c2.8,3.2,4.4,6.9,4.4,10.8c0,9-6.3,15.6-19.6,17c3.7,1.9,6.3,7.3,6.3,11.3v9.1c0,0.3-0.1,0.6-0.1,0.9C78.8,82.3,90,67.5,90,50
	C90,27.9,72.1,10,50,10z"/>
</svg>
