<?xml version="1.0" encoding="utf-8"?>
<!-- Generator: Adobe Illustrator 22.1.0, SVG Export Plug-In . SVG Version: 6.00 Build 0)  -->
<svg version="1.1" id="Layer_1" xmlns="http://www.w3.org/2000/svg" xmlns:xlink="http://www.w3.org/1999/xlink" x="0px" y="0px"
	 viewBox="0 0 96 96" style="enable-background:new 0 0 96 96;" xml:space="preserve">
<style type="text/css">
	.st0{fill:#FDD023;}
	.st1{display:none;}
	.st2{display:inline;}
	.st3{display:inline;opacity:0.13;}
</style>
<g id="Filled">
	<path class="st0" d="M64,12H32c-11,0-20,9-20,20v32c0,11,9,20,20,20h32c11,0,20-9,20-20V32C84,21,75,12,64,12z M48,68
		c-11,0-20-9-20-20s9-20,20-20s20,9,20,20S59,68,48,68z M72,28c-2.2,0-4-1.8-4-4s1.8-4,4-4s4,1.8,4,4S74.2,28,72,28z"/>
	<circle class="st0" cx="48" cy="48" r="12"/>
</g>
<g id="Outlined" class="st1">
	<path class="st2" d="M64,12H32c-11,0-20,9-20,20v32c0,11,9,20,20,20h32c11,0,20-9,20-20V32C84,21,75,12,64,12z M76,64
		c0,6.6-5.4,12-12,12H32c-6.6,0-12-5.4-12-12V32c0-6.6,5.4-12,12-12h32c6.6,0,12,5.4,12,12V64z"/>
	<path class="st2" d="M48,28c-11,0-20,9-20,20s9,20,20,20s20-9,20-20S59,28,48,28z M48,60c-6.6,0-12-5.4-12-12s5.4-12,12-12
		s12,5.4,12,12S54.6,60,48,60z"/>
	<circle class="st2" cx="68" cy="28" r="4"/>
</g>
<g id="Rounded" class="st1">
	<path class="st2" d="M64,12H32c-11,0-20,9-20,20v32c0,11,9,20,20,20h32c11,0,20-9,20-20V32C84,21,75,12,64,12z M48,68
		c-11,0-20-9-20-20s9-20,20-20s20,9,20,20S59,68,48,68z M72,28c-2.2,0-4-1.8-4-4s1.8-4,4-4s4,1.8,4,4S74.2,28,72,28z"/>
	<circle class="st2" cx="48" cy="48" r="12"/>
</g>
<g id="Two-Tone" class="st1">
	<g class="st3">
		<path d="M64,16H32c-8.8,0-16,7.2-16,16v32c0,8.8,7.2,16,16,16h32c8.8,0,16-7.2,16-16V32C80,23.2,72.8,16,64,16z M48,64
			c-8.8,0-16-7.2-16-16s7.2-16,16-16s16,7.2,16,16S56.8,64,48,64z"/>
	</g>
	<path class="st2" d="M64,12H32c-11,0-20,9-20,20v32c0,11,9,20,20,20h32c11,0,20-9,20-20V32C84,21,75,12,64,12z M76,64
		c0,6.6-5.4,12-12,12H32c-6.6,0-12-5.4-12-12V32c0-6.6,5.4-12,12-12h32c6.6,0,12,5.4,12,12V64z"/>
	<path class="st2" d="M48,28c-11,0-20,9-20,20s9,20,20,20s20-9,20-20S59,28,48,28z M48,60c-6.6,0-12-5.4-12-12s5.4-12,12-12
		s12,5.4,12,12S54.6,60,48,60z"/>
	<circle class="st2" cx="68" cy="28" r="4"/>
</g>
<g id="Sharp" class="st1">
	<path class="st2" d="M84,12H12v72h72V12z M48,68c-11,0-20-9-20-20s9-20,20-20s20,9,20,20S59,68,48,68z M72,28c-2.2,0-4-1.8-4-4
		s1.8-4,4-4s4,1.8,4,4S74.2,28,72,28z"/>
	<circle class="st2" cx="48" cy="48" r="12"/>
</g>
</svg>
