<?xml version="1.0" encoding="utf-8"?>
<!-- Generator: Adobe Illustrator 22.1.0, SVG Export Plug-In . SVG Version: 6.00 Build 0)  -->
<svg version="1.1" id="Layer_1" xmlns="http://www.w3.org/2000/svg" xmlns:xlink="http://www.w3.org/1999/xlink" x="0px" y="0px"
	 viewBox="0 0 100 100" style="enable-background:new 0 0 100 100;" xml:space="preserve">
<style type="text/css">
	.st0{fill:#FDD023;}
	.st1{display:none;}
	.st2{display:inline;}
	.st3{display:inline;opacity:0.13;}
</style>
<g id="Filled">
	<path class="st0" d="M79.2,12.5H20.8c-4.6,0-8.3,3.7-8.3,8.3v58.3c0,4.6,3.7,8.3,8.3,8.3h58.3c4.6,0,8.3-3.7,8.3-8.3V20.8
		C87.5,16.2,83.8,12.5,79.2,12.5z M71,39.6c0,0.4,0,0.7,0,1.4c0,13.6-10.4,29.3-29.3,29.3c-5.7,0-11.1-1.8-15.7-4.6
		c0.7,0,1.8,0,2.5,0c4.6,0,9.3-1.8,12.9-4.3c-4.6,0-8.2-3.2-9.6-7.1c0.7,0,1.4,0.4,1.8,0.4c1.1,0,1.8,0,2.9-0.4
		c-4.6-1.1-8.2-5-8.2-10c1.4,0.7,2.9,1.1,4.6,1.4c-2.9-2.5-4.6-5.4-4.6-8.9c0-1.8,0.4-3.6,1.4-5c5,6.1,12.5,10.4,21.1,10.7
		c0-0.7-0.4-1.4-0.4-2.5c0-5.7,4.6-10.4,10.4-10.4c2.9,0,5.7,1.1,7.5,3.2c2.5-0.4,4.6-1.4,6.4-2.5c-0.7,2.5-2.5,4.3-4.6,5.7
		c2.1-0.4,3.9-0.7,6.1-1.8C74.6,36.4,72.8,38.2,71,39.6z"/>
</g>
<g id="Outlined" class="st1">
	<path class="st2" d="M71,39.6c0,0.4,0,0.7,0,1.4c0,13.6-10.4,29.3-29.3,29.3c-5.7,0-11.1-1.8-15.7-4.6c0.7,0,1.8,0,2.5,0
		c4.6,0,9.3-1.8,12.9-4.3c-4.6,0-8.2-3.2-9.6-7.1c0.7,0,1.4,0.4,1.8,0.4c1.1,0,1.8,0,2.9-0.4c-4.6-1.1-8.2-5-8.2-10
		c1.4,0.7,2.9,1.1,4.6,1.4c-2.9-2.5-4.6-5.4-4.6-8.9c0-1.8,0.4-3.6,1.4-5c5,6.1,12.5,10.4,21.1,10.7c0-0.7-0.4-1.4-0.4-2.5
		c0-5.7,4.6-10.4,10.4-10.4c2.9,0,5.7,1.1,7.5,3.2c2.5-0.4,4.6-1.4,6.4-2.5c-0.7,2.5-2.5,4.3-4.6,5.7c2.1-0.4,3.9-0.7,6.1-1.8
		C74.6,36.4,72.8,38.2,71,39.6z"/>
	<path class="st2" d="M79.2,12.5H20.8c-4.6,0-8.3,3.7-8.3,8.3v58.3c0,4.6,3.7,8.3,8.3,8.3h58.3c4.6,0,8.3-3.7,8.3-8.3V20.8
		C87.5,16.2,83.8,12.5,79.2,12.5z M20.8,79.2V20.8h58.3l0,58.3H20.8z"/>
</g>
<g id="Rounded" class="st1">
	<path class="st2" d="M70.8,12.5H29.2c-9.2,0-16.7,7.5-16.7,16.7v41.7c0,9.2,7.5,16.7,16.7,16.7h41.7c9.2,0,16.7-7.5,16.7-16.7V29.2
		C87.5,20,80,12.5,70.8,12.5z M71,39.6c0,0.4,0,0.7,0,1.4c0,13.6-10.4,29.3-29.3,29.3c-5.7,0-11.1-1.8-15.7-4.6c0.7,0,1.8,0,2.5,0
		c4.6,0,9.3-1.8,12.9-4.3c-4.6,0-8.2-3.2-9.6-7.1c0.7,0,1.4,0.4,1.8,0.4c1.1,0,1.8,0,2.9-0.4c-4.6-1.1-8.2-5-8.2-10
		c1.4,0.7,2.9,1.1,4.6,1.4c-2.9-2.5-4.6-5.4-4.6-8.9c0-1.8,0.4-3.6,1.4-5c5,6.1,12.5,10.4,21.1,10.7c0-0.7-0.4-1.4-0.4-2.5
		c0-5.7,4.6-10.4,10.4-10.4c2.9,0,5.7,1.1,7.5,3.2c2.5-0.4,4.6-1.4,6.4-2.5c-0.7,2.5-2.5,4.3-4.6,5.7c2.1-0.4,3.9-0.7,6.1-1.8
		C74.6,36.4,72.8,38.2,71,39.6z"/>
</g>
<g id="Two-Tone" class="st1">
	<g class="st3">
		<path d="M79.2,83.3H20.8c-2.3,0-4.2-1.9-4.2-4.2V20.8c0-2.3,1.9-4.2,4.2-4.2h58.3c2.3,0,4.2,1.9,4.2,4.2v58.3
			C83.3,81.5,81.5,83.3,79.2,83.3z"/>
	</g>
	<g class="st2">
		<path d="M71,39.6c0,0.4,0,0.7,0,1.4c0,13.6-10.4,29.3-29.3,29.3c-5.7,0-11.1-1.8-15.7-4.6c0.7,0,1.8,0,2.5,0
			c4.6,0,9.3-1.8,12.9-4.3c-4.6,0-8.2-3.2-9.6-7.1c0.7,0,1.4,0.4,1.8,0.4c1.1,0,1.8,0,2.9-0.4c-4.6-1.1-8.2-5-8.2-10
			c1.4,0.7,2.9,1.1,4.6,1.4c-2.9-2.5-4.6-5.4-4.6-8.9c0-1.8,0.4-3.6,1.4-5c5,6.1,12.5,10.4,21.1,10.7c0-0.7-0.4-1.4-0.4-2.5
			c0-5.7,4.6-10.4,10.4-10.4c2.9,0,5.7,1.1,7.5,3.2c2.5-0.4,4.6-1.4,6.4-2.5c-0.7,2.5-2.5,4.3-4.6,5.7c2.1-0.4,3.9-0.7,6.1-1.8
			C74.6,36.4,72.8,38.2,71,39.6z"/>
	</g>
	<path class="st2" d="M79.2,12.5H20.8c-4.6,0-8.3,3.7-8.3,8.3v58.3c0,4.6,3.7,8.3,8.3,8.3h58.3c4.6,0,8.3-3.7,8.3-8.3V20.8
		C87.5,16.2,83.8,12.5,79.2,12.5z M20.8,79.2V20.8h58.3l0,58.3H20.8z"/>
</g>
<g id="Sharp" class="st1">
	<path class="st2" d="M87.5,12.5h-75v75h75V12.5z M71,39.6c0,0.4,0,0.7,0,1.4c0,13.6-10.4,29.3-29.3,29.3c-5.7,0-11.1-1.8-15.7-4.6
		c0.7,0,1.8,0,2.5,0c4.6,0,9.3-1.8,12.9-4.3c-4.6,0-8.2-3.2-9.6-7.1c0.7,0,1.4,0.4,1.8,0.4c1.1,0,1.8,0,2.9-0.4
		c-4.6-1.1-8.2-5-8.2-10c1.4,0.7,2.9,1.1,4.6,1.4c-2.9-2.5-4.6-5.4-4.6-8.9c0-1.8,0.4-3.6,1.4-5c5,6.1,12.5,10.4,21.1,10.7
		c0-0.7-0.4-1.4-0.4-2.5c0-5.7,4.6-10.4,10.4-10.4c2.9,0,5.7,1.1,7.5,3.2c2.5-0.4,4.6-1.4,6.4-2.5c-0.7,2.5-2.5,4.3-4.6,5.7
		c2.1-0.4,3.9-0.7,6.1-1.8C74.6,36.4,72.8,38.2,71,39.6z"/>
</g>
</svg>
