<svg id="Layer_1" data-name="Layer 1" xmlns="http://www.w3.org/2000/svg" viewBox="0 0 1600 240"><defs><style>.cls-1{fill:#fff;}</style></defs><title>webBannerArtboard 3</title><path d="M122.81,232.6h-.65a13.18,13.18,0,0,0-1.3-1C114,227.71,107,224,100.24,219.86c-9.34-5.66-18.65-11.39-27.74-17.44a126.87,126.87,0,0,1-23.64-20.08,97.41,97.41,0,0,1-13.78-19.25,2.53,2.53,0,0,0-2.56-1.54c-5.75.06-11.49,0-17.23,0h-2a12.9,12.9,0,0,1,.16-1.53c.92-3.49,1.9-7,2.75-10.46a1.71,1.71,0,0,1,2-1.55c1,.06,2,0,2.93,0l.19-.55c-3.49-2.31-4-5.71-3.24-9.29.84-4,2.15-7.9,3.12-11.88.82-3.35,2.47-6.32,2.13-10.2-.59-6.65-.13-13.42.2-20.13.31-6.3.91-12.6,1.6-18.88.63-5.67,1.39-11.35,2.38-17,.92-5.21,4.15-7.66,9.49-7.61,3.49,0,7,.28,10.47.26a3.42,3.42,0,0,0,2.29-1.14c2.66-3.1,5-6.46,7.83-9.43A126.77,126.77,0,0,1,76.07,25.6a95.44,95.44,0,0,1,31.29-14.95c13.74-3.6,27.38-3,41,.31a104.88,104.88,0,0,1,45.42,24.39,73.54,73.54,0,0,1,13,15.08,2.47,2.47,0,0,0,1.81.76c3.17.07,6.34,0,9.51,0a7,7,0,0,1,5.26,2.25,14.08,14.08,0,0,1,3.69,7.2c.75,4.17,1.3,8.39,1.7,12.62.55,5.8,1.11,11.61,1.23,17.43.15,7-.06,14-.3,21a106.05,106.05,0,0,1-1.09,11.53c-.25,1.68.28,1.88,1.63,1.86,4,0,8,0,12,0,1.28,0,1.82.27,1.4,1.71-1.2,4.09-2.31,8.2-3.39,12.32a1.73,1.73,0,0,1-2,1.5c-2.84,0-5.69,0-8.53,0a2.71,2.71,0,0,0-3.11,2.22c-1.33,5.19-2.71,10.36-4.18,15.5-.94,3.28-1,3.28-4.48,3.28a2.42,2.42,0,0,0-2.44,1.24,82.7,82.7,0,0,1-9.75,13.5,118.34,118.34,0,0,1-16.44,15.22c-6,4.66-12.22,9-18.48,13.25a234.82,234.82,0,0,1-28.39,16.3A211.22,211.22,0,0,0,122.81,232.6Zm93.4-107.72c1.62,0,3.15-.07,4.66,0,1.14.07,1.7-.25,1.79-1.47.45-5.66,1.23-11.31,1.38-17a199.54,199.54,0,0,0-2.61-37.74c-1.28-7.81-4.71-12-13.48-12-4.65,0-9.29.2-13.94.25q-20.43.21-40.85.38-28.47.2-56.94.31c-18,.07-36,.06-54,.1-5,0-7.87,2.29-9,7.18A72.12,72.12,0,0,0,32,72.64c-1.1,10.1-2.16,20.21-3.12,30.33-.4,4.12-.5,8.26-.73,12.34L35.33,114c0-.2.06-.52.06-.84a278.67,278.67,0,0,1,3.31-41.8c.86-5.63,3.45-8.49,8.24-8.78,1.09-.07,2.19,0,3.28,0,9.79.11,19.58.37,29.37.28,18.42-.16,36.85-.56,55.28-.8,8.8-.12,17.61,0,26.41-.16q21.5-.24,43-.62a8.36,8.36,0,0,1,6.07,2,11.89,11.89,0,0,1,3.61,7.21c1.12,7.56,2.35,15.12,2.94,22.73.51,6.52.31,13.1.2,19.65C217,116.74,216.53,120.65,216.21,124.88Zm-7.65,37.5-.37-.4a15,15,0,0,1-2.6,0,5.81,5.81,0,0,0-6.62,3.16,9.38,9.38,0,0,1-1.23,1.53c-10.89,12.6-23.94,22.63-37.71,31.83-11.62,7.76-24.24,13.72-36.53,20.27a3.06,3.06,0,0,1-2.28.15c-2.66-1.12-5.31-2.31-7.86-3.67A252.8,252.8,0,0,1,73.84,189c-9.65-7.76-18.75-16.09-25.86-26.36-.23-.33-.63-.8-.94-.8-2,0-4.06.16-6.22.26a90,90,0,0,0,11.45,15.56c11.67,12.65,25.54,22.49,40.24,31.24,5.73,3.41,11.53,6.7,17.3,10,3.74,2.16,7.49,4.29,11.24,6.42a2.93,2.93,0,0,0,3.22.14c5.51-3.24,11.13-6.29,16.6-9.59,8.84-5.33,17.62-10.77,26.38-16.22,12-7.47,23.23-16,32.67-26.62C203,169.59,205.69,165.93,208.56,162.38ZM18,157.83H43.7A9.61,9.61,0,0,0,53.27,151c.54-1.6.95-3.25,1.39-4.89.82-3,1.69-6,2.41-9,.78-3.31-.64-5.41-4-6.06a17.76,17.76,0,0,0-3.1-.22c-3.5,0-7,.06-10.49-.07a2.5,2.5,0,0,1-1.95-1.23,4.14,4.14,0,0,1,4-5.14c5.31,0,10.61,0,15.91,0,.55,0,1.45-.29,1.58-.66.61-1.66,1-3.4,1.51-5.32H35.17c-4.7,0-8.13,2.27-9.54,6.74-1.48,4.69-2.72,9.45-3.87,14.23-.79,3.26.77,5.16,4.12,5.45.54.05,1.09.05,1.64.05H38c3.9,0,4,.18,3,3.88-.72,2.7-1.21,3.08-4,3.08-5.36,0-10.72,0-16.08,0-1.05,0-1.61.24-1.83,1.32C18.89,154.59,18.46,156.05,18,157.83Zm57.34,0H86.5c4.33,0,6.85-1.64,8.36-5.74.88-2.4,1.45-4.92,2.11-7.4.88-3.26,1.84-6.52,2.55-9.82.84-3.86-.69-5.68-4.65-5.87h-.82c-7.37,0-14.75,0-22.13,0-4.41,0-7.29,1.93-8.57,6.18-1.65,5.49-3.12,11-4.45,16.61-.9,3.78,1.09,6,5,6S71.53,157.83,75.35,157.83ZM58.48,50.62l.34.61c1.79,0,3.59,0,5.38,0a1.53,1.53,0,0,0,1-.78A40.39,40.39,0,0,1,75.65,37.89c3.16-2.66,6.56-5,9.87-7.55,1.32,2.18,3.33,3.17,4.73,2.49,6.81-3.32,13.62-6.66,20.55-10-.12-.45-.32-1.17-.53-1.9s-.44-1.54-.72-2.54c12.92-4.24,25.46-2.58,38.19.86l-2.5,4.33A22.48,22.48,0,0,1,149,24.85q8.4,4.75,16.69,9.7a3.32,3.32,0,0,0,2.74.51c2.27-.59,4.34-1.46,5.55-3.56a1.82,1.82,0,0,1,.45.13c7,4.94,13.26,10.69,17.66,18.21.29.5.85,1.12,1.34,1.17a45.25,45.25,0,0,0,4.7.06,6.92,6.92,0,0,0-.42-1,72,72,0,0,0-19.34-19.61A98,98,0,0,0,151.5,17.78a92,92,0,0,0-21.82-4.31A70.54,70.54,0,0,0,93.87,21.2,89.06,89.06,0,0,0,70,38.34C66.06,42.32,62.32,46.52,58.48,50.62Zm141.41,102h-2.08c-5.25,0-10.5,0-15.75,0-2.34,0-3.24-1.2-2.72-3.51.09-.43.24-.84.3-1.27.17-1.22.73-1.68,2.06-1.66,6.56.08,13.13,0,19.69,0,.74,0,1.54.18,1.82-.9.93-3.65,2-7.26,2.83-10.95.71-3.37-1-5.32-4.51-5.48H179.71c-5.5,0-8,1.74-9.61,7-1.26,4.13-2.32,8.32-3.39,12.5a27.45,27.45,0,0,0-.92,5c-.17,2.75,1.24,4.3,4,4.31,9.24.06,18.49,0,27.73,0a1.56,1.56,0,0,0,1.2-.73C199.16,155.69,199.45,154.31,199.89,152.66ZM128.27,39.22c0-3.24,0-6.73-.06-10.22,0-.43-.78-1.09-1.3-1.22-4.72-1.18-9.44-2.33-14.2-3.33a6.1,6.1,0,0,0-3.62.24C103,27.48,97,30.44,90.93,33.39a1.86,1.86,0,0,0-.87,1.34c-.08,3.17,0,6.34,0,9.51,0,1,.4,1.43,1.36,1.65,5.58,1.3,11.15,2.65,16.74,4a1.49,1.49,0,0,0,1.16-.18C114.91,45.13,121.45,42.28,128.27,39.22Zm.81-11.35c0,3.67,0,7.17,0,10.66a1.76,1.76,0,0,0,.9,1.26c4.5,2.09,9.29,3.71,13.5,6.27a14.77,14.77,0,0,0,12.29,1.78c3.47-.92,7.07-1.32,10.63-2,0-3.18,0-6.24,0-9.29a1.83,1.83,0,0,0-.87-1.24c-5.53-3.29-11.05-6.6-16.67-9.73a7.36,7.36,0,0,0-4.37-1C139.38,25.47,134.34,26.72,129.08,27.87Zm38.67,101.25c-.5-.07-.71-.14-.92-.14-7,0-13.89,0-20.83,0-3.16,0-5.46,1.64-7.35,4s-2.58,5.52-3.31,8.48c-.88,3.6-1.89,7.19-2.44,10.84a4.49,4.49,0,0,0,4.53,5.43c7.21.12,14.43.07,21.65,0a1.41,1.41,0,0,0,1.11-.65c.47-1.37.79-2.8,1.21-4.39-.76,0-1.34-.1-1.92-.1-3.56,0-7.11,0-10.67,0-2.33,0-3.14-1.14-2.54-3.39q1.59-5.85,3.17-11.71a4,4,0,0,1,4.35-3.36c3.77,0,7.55,0,11.32-.05a1.89,1.89,0,0,0,1.46-.79A38.31,38.31,0,0,0,167.75,129.12ZM128,152.66h-1.67c-3.5,0-7,0-10.5,0-2.6,0-3.38-1-2.72-3.49,1-3.8,2.07-7.59,3.07-11.4.69-2.59,1.87-3.57,4.51-3.58,3.72,0,7.44,0,11.16,0,.52,0,1.35-.35,1.5-.75a39.14,39.14,0,0,0,1.19-4.23,5.1,5.1,0,0,0-.83-.18c-7,0-14.11-.09-21.16.08a7.78,7.78,0,0,0-4.51,1.59c-1.66,1.39-3.44,3.17-4.1,5.14a118.89,118.89,0,0,0-4.15,15.64c-.82,4.26,1.35,6.37,5.67,6.38h17.07c4.6,0,4.6,0,5.53-4.57A3.41,3.41,0,0,0,128,152.66ZM226.29,129c-4.18,0-8.1,0-12,.06-.43,0-1.09.79-1.23,1.32-2.22,8.06-4.37,16.13-6.53,24.2-.28,1-.51,2.06-.82,3.3,3.92,0,7.57-.06,11.22,0a1.78,1.78,0,0,0,2.14-1.58c1.26-5,2.69-9.91,3.92-14.89a5.65,5.65,0,0,1,4.8-4.52,16,16,0,0,1,2.93-.3c1.69,0,3.39,0,5.08,0,.44,0,1.16-.32,1.26-.65.67-2.17,1.21-4.38,1.87-6.86-4.79.24-9.67-1.36-13.46,3.56C225.79,131.11,226,130.18,226.29,129ZM157.51,74v1.92c0,4.54,0,9.08,0,13.62,0,1.92-.64,3-2.23,3.07-2.43.17-4.88.05-7.46.05V90.69c0-5.14,0-10.28,0-15.42,0-1-.25-1.51-1.37-1.46-1.58.07-3.17.06-4.75,0-1.09,0-1.54.29-1.53,1.48.06,6.78,0,13.56,0,20.34,0,1,.25,1.37,1.28,1.37,5.8,0,11.59,0,17.39,0a7.55,7.55,0,0,0,1.94-.31,5.5,5.5,0,0,0,4.41-5.87V74Zm-20,4.1a20.64,20.64,0,0,0-.05-3.2,1.54,1.54,0,0,0-1.07-1c-6-.05-12-.16-18,0-3.82.12-5.77,2.47-5.77,6.29,0,2,0,4,0,6.07,0,1,.35,1.32,1.34,1.3,3.66,0,7.32,0,11,0h4.66c.68,4.23-.09,5.14-4.11,5.15H112.63a27.94,27.94,0,0,0,0,3.35,1.38,1.38,0,0,0,1,.91c6,0,12,.15,18,0,3-.1,6.34-2.17,5.93-6.38a40.72,40.72,0,0,1,0-5.74c.06-1.21-.34-1.61-1.58-1.59-4.64.06-9.29,0-13.94,0h-1.69c-.45-4.35.29-5.17,4.35-5.18h12.84ZM96.93,92.65c0-.62-.08-1.1-.08-1.57,0-5.25,0-10.5,0-15.74,0-1.14-.31-1.58-1.47-1.53a39,39,0,0,1-4.59,0c-1.28-.09-1.55.43-1.54,1.6,0,6.67,0,13.34,0,20,0,.47.09.93.15,1.54,6.67,0,13.22,0,19.76,0a1.12,1.12,0,0,0,.78-.78c.09-1.11,0-2.24,0-3.51Zm-28.56,17,.32-.06c.79,2.46,1.62,4.92,2.34,7.4.33,1.14.81,1.7,2.13,1.69A2,2,0,0,0,75.48,117c.73-2.56,1.64-5.08,2.47-7.62a40.21,40.21,0,0,1,.25,5.45c0,4.24,0,4.24,4.24,3.75.09,0,.18-.1.48-.26,0-2.77,0-5.65,0-8.53,0-4.67,0-4.63-4.64-4.56a1.53,1.53,0,0,0-1.71,1.31c-.57,1.88-1.24,3.72-2,6-.74-2.36-1.27-4.24-1.93-6.09-.16-.47-.67-1.12-1.06-1.15-1.72-.13-3.46-.06-5.35-.06,0,4,0,7.86,0,11.67,0,1.85.11,1.92,2.14,1.42Zm118.23,2c1.4-1.06,1.4-1.06,1.28-3.77a2.4,2.4,0,0,0-2.64-2.64c-3,0-6,0-9,0-.93,0-1.24.35-1.24,1.25,0,3.6,0,7.2,0,10.8,0,1,.37,1.33,1.34,1.32,2.78-.05,5.57,0,8.35,0,1.31,0,2.58-.16,3.12-1.59C188.44,115.3,187.85,112.65,186.6,111.69Zm-61.53-6.43c-2.86,0-5.63,0-8.4,0-1.84,0-2.7.83-2.76,2.68,0,1.36,0,2.73,0,4.1a2.06,2.06,0,0,0,2.1,2.24,19.83,19.83,0,0,1,2.45.1c.91.19,2.57-.84,2.55,1s-1.61.74-2.48.83a35.75,35.75,0,0,1-4.14,0v2.37c2.89,0,5.67,0,8.45,0,1.92,0,2.79-.86,2.87-2.79.06-1.31,0-2.62,0-3.94a2.27,2.27,0,0,0-2.31-2.45c-1.14-.1-2.31,0-3.44-.15-.5-.06-1-.54-1.43-.82.48-.29.94-.79,1.44-.82,1.67-.1,3.35,0,5.11,0Zm-28.67,0c0,4.07,0,7.89,0,11.71,0,.77-.27,1.72,1.1,1.68s1-1,1-1.77c0-2.75,0-5.5,0-8.25a2.46,2.46,0,0,1,.83,1.06c1.22,2.62,2.42,5.26,3.67,7.87.19.4.57,1,.89,1,1.88.1,3.77.05,5.66.05V105.38h-2.2V115c-1.6-2.73-2.84-5.51-4.2-8.24a2.54,2.54,0,0,0-1.53-1.35A50.68,50.68,0,0,0,96.4,105.3Zm-11.9.09c0,4.22,0,8.35,0,12.48a1.09,1.09,0,0,0,.79.75c3.15.06,6.3,0,9.41,0,.41-2.22.36-2.28-1.56-2.29-1.23,0-2.47,0-3.74,0v-3.48h5.15v-2.26H89.47v-3.08h5.26v-2.16Zm80.68-.1c-1.51,0-2.76,0-4,0-.29,0-.79.49-.79.75,0,3.32,0,6.65.17,10a2.57,2.57,0,0,0,2.67,2.59c2.56,0,5.13,0,7.69,0a2.28,2.28,0,0,0,2.41-2.24c.12-3.63,0-7.27,0-10.89-2-.34-2-.34-2,1.44s0,3.49,0,5.24c-.08,4.78.76,4.06-4.15,4.18-1.5,0-2.06-.5-2-2C165.23,111.43,165.18,108.49,165.18,105.29Zm-18,11.12c-.55,0-.93-.07-1.3-.07-4.57-.07-4.57-.07-4.56-4.72,0-4,0-4,3.94-4,2,0,2.11-.17,1.52-2.33-2.29,0-4.63,0-7,0-1.94,0-3.12,1-3.19,2.92-.1,2.56-.07,5.13,0,7.69a2.46,2.46,0,0,0,2.18,2.68c2.76.16,5.53.05,8.38.05ZM159,116.3h-5.14a2.86,2.86,0,0,1-.15-.5c0-2.35,0-4.69,0-7-.1-4,.88-3.38-3.75-3.47-.86,0-1.15.31-1.14,1.15,0,3.7,0,7.41,0,11.12,0,.37.52,1,.81,1,3.09.08,6.19,0,9.36,0Zm12.44-65a3.87,3.87,0,0,0-4.72-4.65c-5.59,1-11.18,2-16.78,2.91-1.11.19-1.48.68-1.08,1.74Zm-86.56,0h24.08a2.2,2.2,0,0,0-1.34-.8L91,46.58C87.85,45.83,85.11,47.92,84.83,51.32Zm26.11,54c0,1.7,0,3.28,0,4.84,0,.29.6.75.93.76s1-.44,1-.71c.09-1.61,0-3.23,0-4.89Z"/><path class="cls-1" d="M216.21,124.88c.32-4.23.81-8.14.87-12.06.11-6.55.31-13.13-.2-19.65-.59-7.61-1.82-15.17-2.94-22.73a11.89,11.89,0,0,0-3.61-7.21,8.36,8.36,0,0,0-6.07-2q-21.49.35-43,.62c-8.8.11-17.61,0-26.41.16-18.43.24-36.86.64-55.28.8-9.79.09-19.58-.17-29.37-.28-1.09,0-2.19-.06-3.28,0-4.79.29-7.38,3.15-8.24,8.78a278.67,278.67,0,0,0-3.31,41.8c0,.32,0,.64-.06.84l-7.23,1.35c.23-4.08.33-8.22.73-12.34,1-10.12,2-20.23,3.12-30.33a72.12,72.12,0,0,1,1.34-7.75c1.08-4.89,4-7.17,9-7.18,18,0,36,0,54-.1q28.47-.11,56.94-.31,20.43-.15,40.85-.38c4.65-.05,9.29-.24,13.94-.25,8.77,0,12.2,4.23,13.48,12A199.54,199.54,0,0,1,224,106.45c-.15,5.67-.93,11.32-1.38,17-.09,1.22-.65,1.54-1.79,1.47C219.36,124.81,217.83,124.88,216.21,124.88Z"/><path class="cls-1" d="M208.56,162.38c-2.87,3.55-5.61,7.21-8.64,10.62-9.44,10.64-20.65,19.15-32.67,26.62-8.76,5.45-17.54,10.89-26.38,16.22-5.47,3.3-11.09,6.35-16.6,9.59a2.93,2.93,0,0,1-3.22-.14c-3.75-2.13-7.5-4.26-11.24-6.42-5.77-3.32-11.57-6.61-17.3-10-14.7-8.75-28.57-18.59-40.24-31.24a90,90,0,0,1-11.45-15.56c2.16-.1,4.19-.24,6.22-.26.31,0,.71.47.94.8,7.11,10.27,16.21,18.6,25.86,26.36a252.8,252.8,0,0,0,39.52,26.27c2.55,1.36,5.2,2.55,7.86,3.67a3.06,3.06,0,0,0,2.28-.15c12.29-6.55,24.91-12.51,36.53-20.27,13.77-9.2,26.82-19.23,37.71-31.83a9.38,9.38,0,0,0,1.23-1.53,5.81,5.81,0,0,1,6.62-3.16,15,15,0,0,0,2.6,0Z"/><path class="cls-1" d="M18,157.83c.45-1.78.88-3.24,1.19-4.73.22-1.08.78-1.33,1.83-1.32,5.36.05,10.72,0,16.08,0,2.75,0,3.24-.38,4-3.08,1-3.7.85-3.87-3-3.88H27.52c-.55,0-1.1,0-1.64-.05-3.35-.29-4.91-2.19-4.12-5.45,1.15-4.78,2.39-9.54,3.87-14.23,1.41-4.47,4.84-6.74,9.54-6.74H60.54c-.52,1.92-.9,3.66-1.51,5.32-.13.37-1,.66-1.58.66-5.3,0-10.6,0-15.91,0a4.14,4.14,0,0,0-4,5.14,2.5,2.5,0,0,0,1.95,1.23c3.49.13,7,0,10.49.07a17.76,17.76,0,0,1,3.1.22c3.36.65,4.78,2.75,4,6.06-.72,3-1.59,6-2.41,9-.44,1.64-.85,3.29-1.39,4.89a9.61,9.61,0,0,1-9.57,6.81H18Z"/><path class="cls-1" d="M75.35,157.83c-3.82,0-7.65,0-11.47,0s-5.88-2.26-5-6c1.33-5.57,2.8-11.12,4.45-16.61,1.28-4.25,4.16-6.17,8.57-6.18,7.38,0,14.76,0,22.13,0h.82c4,.19,5.49,2,4.65,5.87-.71,3.3-1.67,6.56-2.55,9.82-.66,2.48-1.23,5-2.11,7.4-1.51,4.1-4,5.73-8.36,5.74Zm6-23.62c-.93,0-1.86.08-2.78,0a2.26,2.26,0,0,0-2.63,1.91c-1.3,4.74-2.58,9.48-3.8,14.24a1.7,1.7,0,0,0,1.78,2.29c1.31.05,2.62,0,3.93,0,3.89,0,4.09-.11,5.12-3.78,1.12-4,2.19-8,3.26-12,.51-1.89-.08-2.63-2.09-2.65Z"/><path class="cls-1" d="M58.48,50.62c3.84-4.1,7.58-8.3,11.53-12.28A89.06,89.06,0,0,1,93.87,21.2a70.54,70.54,0,0,1,35.81-7.73,92,92,0,0,1,21.82,4.31,98,98,0,0,1,26.87,12.66,72,72,0,0,1,19.34,19.61,6.92,6.92,0,0,1,.42,1,45.25,45.25,0,0,1-4.7-.06c-.49,0-1.05-.67-1.34-1.17-4.4-7.52-10.61-13.27-17.66-18.21a1.82,1.82,0,0,0-.45-.13c-1.21,2.1-3.28,3-5.55,3.56a3.32,3.32,0,0,1-2.74-.51q-8.3-4.95-16.69-9.7a22.48,22.48,0,0,0-3.76-1.32l2.5-4.33c-12.73-3.44-25.27-5.1-38.19-.86.28,1,.51,1.77.72,2.54s.41,1.45.53,1.9c-6.93,3.39-13.74,6.73-20.55,10-1.4.68-3.41-.31-4.73-2.49-3.31,2.52-6.71,4.89-9.87,7.55A40.39,40.39,0,0,0,65.23,50.41a1.53,1.53,0,0,1-1,.78c-1.79.08-3.59,0-5.38,0Z"/><path class="cls-1" d="M199.89,152.66c-.44,1.65-.73,3-1.2,4.36a1.56,1.56,0,0,1-1.2.73c-9.24,0-18.49.06-27.73,0-2.73,0-4.14-1.56-4-4.31a27.45,27.45,0,0,1,.92-5c1.07-4.18,2.13-8.37,3.39-12.5,1.62-5.3,4.11-7,9.61-7h21.82c3.48.16,5.22,2.11,4.51,5.48-.78,3.69-1.9,7.3-2.83,10.95-.28,1.08-1.08.9-1.82.9-6.56,0-13.13,0-19.69,0-1.33,0-1.89.44-2.06,1.66-.06.43-.21.84-.3,1.27-.52,2.31.38,3.5,2.72,3.51,5.25,0,10.5,0,15.75,0Zm-18.31-11.52c3.31,0,6.46,0,9.6,0,.29,0,.72-.46.83-.79a38.23,38.23,0,0,0,1-3.95c.29-1.42-.34-2.2-1.79-2.24-1.85,0-3.71,0-5.56,0a2.72,2.72,0,0,0-2.8,2.07C182.43,137.74,182.06,139.33,181.58,141.14Z"/><path class="cls-1" d="M128.27,39.22c-6.82,3.06-13.36,5.91-19,10.44a1.49,1.49,0,0,1-1.16.18c-5.59-1.3-11.16-2.65-16.74-4-1-.22-1.38-.63-1.36-1.65,0-3.17,0-6.34,0-9.51a1.86,1.86,0,0,1,.87-1.34c6-2.95,12.06-5.91,18.16-8.7a6.1,6.1,0,0,1,3.62-.24c4.76,1,9.48,2.15,14.2,3.33.52.13,1.28.79,1.3,1.22C128.31,32.49,128.27,36,128.27,39.22Z"/><path class="cls-1" d="M129.08,27.87c5.26-1.15,10.3-2.4,15.41-3.28a7.36,7.36,0,0,1,4.37,1c5.62,3.13,11.14,6.44,16.67,9.73a1.83,1.83,0,0,1,.87,1.24c.08,3,0,6.11,0,9.29-3.56.63-7.16,1-10.63,2a14.77,14.77,0,0,1-12.29-1.78c-4.21-2.56-9-4.18-13.5-6.27a1.76,1.76,0,0,1-.9-1.26C129.05,35,129.08,31.54,129.08,27.87Z"/><path class="cls-1" d="M167.75,129.12a38.31,38.31,0,0,1-1.18,4.23,1.89,1.89,0,0,1-1.46.79c-3.77.07-7.55,0-11.32.05a4,4,0,0,0-4.35,3.36q-1.58,5.87-3.17,11.71c-.6,2.25.21,3.37,2.54,3.39,3.56,0,7.11,0,10.67,0,.58,0,1.16.06,1.92.1-.42,1.59-.74,3-1.21,4.39a1.41,1.41,0,0,1-1.11.65c-7.22,0-14.44.08-21.65,0a4.49,4.49,0,0,1-4.53-5.43c.55-3.65,1.56-7.24,2.44-10.84.73-3,1.35-6,3.31-8.48s4.19-4,7.35-4c6.94,0,13.88,0,20.83,0C167,129,167.25,129.05,167.75,129.12Z"/><path class="cls-1" d="M128,152.66a3.41,3.41,0,0,1,.06.6c-.93,4.57-.93,4.57-5.53,4.57H105.48c-4.32,0-6.49-2.12-5.67-6.38A118.89,118.89,0,0,1,104,135.81c.66-2,2.44-3.75,4.1-5.14a7.78,7.78,0,0,1,4.51-1.59c7.05-.17,14.11-.08,21.16-.08a5.1,5.1,0,0,1,.83.18,39.14,39.14,0,0,1-1.19,4.23c-.15.4-1,.74-1.5.75-3.72.06-7.44,0-11.16,0-2.64,0-3.82,1-4.51,3.58-1,3.81-2,7.6-3.07,11.4-.66,2.47.12,3.48,2.72,3.49,3.5,0,7,0,10.5,0Z"/><path class="cls-1" d="M226.29,129c-.29,1.23-.5,2.16-.85,3.62,3.79-4.92,8.67-3.32,13.46-3.56-.66,2.48-1.2,4.69-1.87,6.86-.1.33-.82.63-1.26.65-1.69.08-3.39,0-5.08,0a16,16,0,0,0-2.93.3,5.65,5.65,0,0,0-4.8,4.52c-1.23,5-2.66,9.91-3.92,14.89a1.78,1.78,0,0,1-2.14,1.58c-3.65-.09-7.3,0-11.22,0,.31-1.24.54-2.27.82-3.3,2.16-8.07,4.31-16.14,6.53-24.2.14-.53.8-1.31,1.23-1.32C218.19,128.91,222.11,129,226.29,129Z"/><path class="cls-1" d="M157.51,74h7.71V90.79a5.5,5.5,0,0,1-4.41,5.87,7.55,7.55,0,0,1-1.94.31c-5.8,0-11.59,0-17.39,0-1,0-1.29-.41-1.28-1.37,0-6.78,0-13.56,0-20.34,0-1.19.44-1.52,1.53-1.48,1.58.05,3.17.06,4.75,0,1.12,0,1.38.44,1.37,1.46,0,5.14,0,10.28,0,15.42v1.93c2.58,0,5,.12,7.46-.05,1.59-.1,2.23-1.15,2.23-3.07,0-4.54,0-9.08,0-13.62Z"/><path class="cls-1" d="M137.55,78.06H124.71c-4.06,0-4.8.83-4.35,5.18h1.69c4.65,0,9.3,0,13.94,0,1.24,0,1.64.38,1.58,1.59a40.72,40.72,0,0,0,0,5.74c.41,4.21-2.89,6.28-5.93,6.38-6,.18-12,.08-18,0a1.38,1.38,0,0,1-1-.91,27.94,27.94,0,0,1,0-3.35h12.85c4,0,4.79-.92,4.11-5.15h-4.66c-3.67,0-7.33,0-11,0-1,0-1.37-.29-1.34-1.3.06-2,0-4.05,0-6.07,0-3.82,1.95-6.17,5.77-6.29,6-.19,12-.08,18,0a1.54,1.54,0,0,1,1.07,1A20.64,20.64,0,0,1,137.55,78.06Z"/><path class="cls-1" d="M96.93,92.65H110c0,1.27,0,2.4,0,3.51a1.12,1.12,0,0,1-.78.78c-6.54,0-13.09,0-19.76,0-.06-.61-.15-1.07-.15-1.54,0-6.67,0-13.34,0-20,0-1.17.26-1.69,1.54-1.6a39,39,0,0,0,4.59,0c1.16,0,1.49.39,1.47,1.53-.05,5.24,0,10.49,0,15.74C96.85,91.55,96.9,92,96.93,92.65Z"/><path class="cls-1" d="M68.37,109.7v8.68c-2,.5-2.14.43-2.14-1.42,0-3.81,0-7.62,0-11.67,1.89,0,3.63-.07,5.35.06.39,0,.9.68,1.06,1.15.66,1.85,1.19,3.73,1.93,6.09.77-2.29,1.44-4.13,2-6a1.53,1.53,0,0,1,1.71-1.31c4.64-.07,4.64-.11,4.64,4.56,0,2.88,0,5.76,0,8.53-.3.16-.39.25-.48.26-4.25.49-4.25.49-4.24-3.75a40.21,40.21,0,0,0-.25-5.45c-.83,2.54-1.74,5.06-2.47,7.62a2,2,0,0,1-2.32,1.69c-1.32,0-1.8-.55-2.13-1.69-.72-2.48-1.55-4.94-2.34-7.4Z"/><path class="cls-1" d="M186.6,111.69c1.25,1,1.84,3.61,1.2,5.31-.54,1.43-1.81,1.58-3.12,1.59-2.78,0-5.57,0-8.35,0-1,0-1.35-.3-1.34-1.32,0-3.6,0-7.2,0-10.8,0-.9.31-1.26,1.24-1.25,3,0,6,0,9,0a2.4,2.4,0,0,1,2.64,2.64C188,110.63,188,110.63,186.6,111.69Zm-6.68,4.73c1.11-.18,2.35,0,3-.6a2.58,2.58,0,0,0,0-2.55c-.61-.56-1.85-.42-3-.61Zm0-5.79a10.77,10.77,0,0,0,3.07-.53c.31-.15.32-1.92,0-2.06a11.78,11.78,0,0,0-3.1-.59Z"/><path class="cls-1" d="M125.07,105.26v2.31c-1.76,0-3.44-.06-5.11,0-.5,0-1,.53-1.44.82.48.28.93.76,1.43.82,1.13.15,2.3,0,3.44.15a2.27,2.27,0,0,1,2.31,2.45c0,1.32.06,2.63,0,3.94-.08,1.93-1,2.77-2.87,2.79-2.78,0-5.56,0-8.45,0v-2.37a35.75,35.75,0,0,0,4.14,0c.87-.09,2.47.82,2.48-.83s-1.64-.76-2.55-1a19.83,19.83,0,0,0-2.45-.1,2.06,2.06,0,0,1-2.1-2.24c0-1.37,0-2.74,0-4.1.06-1.85.92-2.67,2.76-2.68C119.44,105.25,122.21,105.26,125.07,105.26Z"/><path class="cls-1" d="M96.4,105.3a50.68,50.68,0,0,1,5.27.06,2.54,2.54,0,0,1,1.53,1.35c1.36,2.73,2.6,5.51,4.2,8.24v-9.57h2.2v13.27c-1.89,0-3.78,0-5.66-.05-.32,0-.7-.6-.89-1-1.25-2.61-2.45-5.25-3.67-7.87a2.46,2.46,0,0,0-.83-1.06c0,2.75,0,5.5,0,8.25,0,.74.36,1.73-1,1.77s-1.1-.91-1.1-1.68C96.39,113.19,96.4,109.37,96.4,105.3Z"/><path class="cls-1" d="M84.5,105.39H94.73v2.16H89.47v3.08h5.11v2.26H89.43v3.48c1.27,0,2.51,0,3.74,0,1.92,0,2,.07,1.56,2.29-3.11,0-6.26,0-9.41,0a1.09,1.09,0,0,1-.79-.75C84.48,113.74,84.5,109.61,84.5,105.39Z"/><path class="cls-1" d="M165.18,105.29c0,3.2,0,6.14,0,9.08,0,1.49.53,2,2,2,4.91-.12,4.07.6,4.15-4.18,0-1.75,0-3.49,0-5.24s0-1.78,2-1.44c0,3.62.08,7.26,0,10.89a2.28,2.28,0,0,1-2.41,2.24c-2.56.05-5.13.06-7.69,0a2.57,2.57,0,0,1-2.67-2.59c-.19-3.32-.17-6.65-.17-10,0-.26.5-.73.79-.75C162.42,105.25,163.67,105.29,165.18,105.29Z"/><path class="cls-1" d="M147.17,116.41v2.21c-2.85,0-5.62.11-8.38-.05a2.46,2.46,0,0,1-2.18-2.68c-.07-2.56-.1-5.13,0-7.69.07-1.92,1.25-2.91,3.19-2.92,2.34,0,4.68,0,7,0,.59,2.16.48,2.32-1.52,2.33-3.93,0-3.93,0-3.94,4,0,4.65,0,4.65,4.56,4.72C146.24,116.34,146.62,116.38,147.17,116.41Z"/><path class="cls-1" d="M159,116.3v2.36c-3.17,0-6.27,0-9.36,0-.29,0-.8-.68-.81-1-.06-3.71,0-7.42,0-11.12,0-.84.28-1.17,1.14-1.15,4.63.09,3.65-.57,3.75,3.47.05,2.35,0,4.69,0,7a2.86,2.86,0,0,0,.15.5Z"/><path class="cls-1" d="M171.39,51.33H148.81c-.4-1.06,0-1.55,1.08-1.74,5.6-1,11.19-1.94,16.78-2.91A3.87,3.87,0,0,1,171.39,51.33Z"/><path class="cls-1" d="M84.83,51.32c.28-3.4,3-5.49,6.17-4.74l16.57,3.94a2.2,2.2,0,0,1,1.34.8Z"/><path class="cls-1" d="M110.94,105.35h2c0,1.66.05,3.28,0,4.89,0,.27-.65.71-1,.71s-.92-.47-.93-.76C110.89,108.63,110.94,107.05,110.94,105.35Z"/><path d="M81.34,134.21h2.79c2,0,2.6.76,2.09,2.65-1.07,4-2.14,8-3.26,12-1,3.67-1.23,3.78-5.12,3.78-1.31,0-2.62,0-3.93,0a1.7,1.7,0,0,1-1.78-2.29c1.22-4.76,2.5-9.5,3.8-14.24a2.26,2.26,0,0,1,2.63-1.91C79.48,134.29,80.41,134.21,81.34,134.21Z"/><path d="M181.58,141.14c.48-1.81.85-3.4,1.32-4.95a2.72,2.72,0,0,1,2.8-2.07c1.85,0,3.71,0,5.56,0,1.45,0,2.08.82,1.79,2.24a38.23,38.23,0,0,1-1,3.95c-.11.33-.54.78-.83.79C188,141.16,184.89,141.14,181.58,141.14Z"/><path d="M179.92,116.42v-3.76c1.13.19,2.37,0,3,.61a2.58,2.58,0,0,1,0,2.55C182.27,116.37,181,116.24,179.92,116.42Z"/><path d="M179.87,110.63v-3.18a11.78,11.78,0,0,1,3.1.59c.29.14.28,1.91,0,2.06A10.77,10.77,0,0,1,179.87,110.63Z"/><path d="M283.3,27.89h29.35L297.82,112.2h42.31l-4.37,25H264.1Z"/><path d="M347.15,115.94l2.65-15h29.35l-1.71,10c-.47,2.18,0,2.81,2.18,2.81h18.89c2.19,0,3-.63,3.44-2.81l1.56-9.53c.31-2.18-.32-2.65-2.5-3.27l-27-8c-14.52-4.21-20.76-7-18.11-22l3.28-19c2.66-14.37,10.46-21.24,24.51-21.24h39.5c14.05,0,19.67,6.87,17,21.24L437.85,63H408.5l1.56-8.9c.32-2.18-.15-2.81-2.34-2.81H390.86c-2,0-2.81.63-3.12,2.81l-1.56,8.43c-.47,2.19,0,2.66,2.5,3.44l27.16,7.8c14.52,4.06,20.76,7,18.11,22l-3.59,20.14c-2.5,14.36-10.46,21.23-24.51,21.23H364.17C350.12,137.17,344.65,130.3,347.15,115.94Z"/><path d="M445.34,115.94l15.46-88h29.35l-14.21,81.18c-.31,1.88.47,2.81,2.18,2.81h19.05a3,3,0,0,0,3.28-2.81l14.21-81.18H544l-15.45,88.05c-2.5,13.74-11.24,21.23-24.51,21.23H462.36C448.93,137.17,442.84,129.68,445.34,115.94Z"/><path d="M261.09,147.41h19.5l8,34,19-34H328.1l-11.37,64.7H300l6.56-37.25L290.3,204.25H280l-7.21-29.39-6.57,37.25H249.72Z"/><path d="M338.9,147.41h44.74l-2.5,14.42H353.78L352,171.9h21.63l-2.5,14.23H349.53l-2,11.56h27.36l-2.59,14.42H327.54Z"/><path d="M392.5,147.41h16.55l15.16,34.38,6-34.38H447l-11.36,64.7H421.06L404.52,175,398,212.11H381.14Z"/><path d="M459.87,163.68h-7l2.86-16.27h16.92l-1.94,11.18c-.65,3.79-2.22,6.2-6.47,10l-9.06,7.86h-5.45Z"/><path d="M469.58,199.54l1.57-8.88h17.37l-1,5.92c-.28,1.29,0,1.66,1.29,1.66H500c1.3,0,1.76-.37,2-1.66l.92-5.64c.19-1.29-.18-1.57-1.48-1.94l-16-4.71c-8.59-2.5-12.29-4.16-10.72-13L476.69,160c1.58-8.5,6.2-12.57,14.52-12.57h23.38c8.32,0,11.64,4.07,10.07,12.57l-1.38,8.23H505.9l.92-5.27c.19-1.3-.09-1.67-1.38-1.67h-10c-1.21,0-1.67.37-1.85,1.67l-.93,5c-.27,1.29,0,1.57,1.48,2l16.08,4.62c8.6,2.41,12.3,4.16,10.72,13l-2.12,11.93c-1.48,8.5-6.19,12.57-14.51,12.57H479.65C471.33,212.11,468.1,208,469.58,199.54Z"/><path d="M552.45,175.34l4-23.19H593.3l-3.69,20.56c-.52,3.95.53,5.27,4.48,5.27H641c4,0,5.54-1.32,6.06-5.27l4-22.14c1.31-6.85-.79-8.43-7.12-10L597.78,130c-21.87-5-34.52-12.64-30.3-36.89l5-28.46c4.22-25,17.92-36.9,42.43-36.9h56.4c24.51,0,34,11.86,29.78,36.9L697.4,85.74H660.5l3.17-18.45c.79-4-.27-5.27-4.22-5.27H616c-3.69,0-5.27,1.32-6.06,5.27l-3.43,20c-1.06,6.85.53,8.7,6.85,10l46.38,10.54c21.88,5,34.53,12.65,30.31,36.89l-5.27,30.57c-4.48,25-18.19,36.9-42.69,36.9H582C557.46,212.24,548,200.38,552.45,175.34Z"/><path d="M715.58,175.34l19.5-110.68c4.22-25,17.92-36.9,42.43-36.9h66.67c24.51,0,34,11.86,29.78,36.9l-19.5,110.68c-4.48,25-18.18,36.9-42.69,36.9H745.09C720.58,212.24,711.1,200.38,715.58,175.34Zm95.4,2.11c3.69,0,5.27-1.32,6.06-5.27L835.49,67.82c.52-3.95-.53-5.27-4.22-5.27h-53c-3.69,0-5.27,1.32-5.8,5.27L754.05,172.18c-.79,3.95.27,5.27,4,5.27Z"/><path d="M886.34,175.34,905.85,64.66c4.21-25,17.92-36.9,42.43-36.9h60.61c24.51,0,34,11.86,29.78,36.9l-5.27,30h-38l4.74-26.88c.53-3.95-.53-5.27-4.48-5.27H949.07c-3.69,0-5.28,1.32-5.8,5.27L924.82,172.18c-.79,3.95.26,5.27,3.95,5.27h46.65c4,0,5.53-1.32,6.32-5.27l4.75-26.88h38l-5.27,30c-4.48,25-18.45,36.9-42.7,36.9H915.86C891.35,212.24,881.86,200.38,886.34,175.34Z"/><path d="M1047.63,175.34l19.5-110.68c4.21-25,17.92-36.9,42.43-36.9h60.61c24.51,0,34,11.86,29.78,36.9l-5.27,30h-38l4.74-26.88c.53-3.95-.52-5.27-4.48-5.27h-46.64c-3.69,0-5.27,1.32-5.8,5.27L1086.1,172.18c-.79,3.95.27,5.27,4,5.27h46.65c4,0,5.53-1.32,6.33-5.27l4.74-26.88h38l-5.27,30c-4.48,25-18.45,36.9-42.7,36.9h-60.61C1052.63,212.24,1043.15,200.38,1047.63,175.34Z"/><path d="M1239,27.76h122l-6.06,34.79h-84.07l-6.59,38.21h68L1326.18,135h-68l-7.65,42.43h84.07l-6.06,34.79h-122Z"/><path d="M1519.08,64.66l-7.9,44.54c-3.69,20.81-14,32.67-31.36,35.84l19,67.2h-39l-18.45-65.1h-30.83l-11.6,65.1h-38l32.42-184.48h95.92C1513.81,27.76,1523.3,39.62,1519.08,64.66ZM1476.66,62h-51.13l-9.22,51.39h51.12c3.69,0,5.27-1.32,6.06-5.27l7.12-40.85C1481.4,63.34,1480.34,62,1476.66,62Z"/></svg>