<svg xmlns="http://www.w3.org/2000/svg" viewBox="0 0 1600 301.42"><defs><style>.cls-1{fill:#fdd023;}.cls-2{fill:#fff;}.cls-3{fill:#fefefe;}.cls-4{fill:#343434;}.cls-5{fill:#cacaca;}.cls-6{fill:silver;}.cls-7{fill:#3c3c3c;}.cls-8{fill:none;stroke:#fff;stroke-miterlimit:10;stroke-width:6.22px;}</style></defs><title>webBannerArtboard 4</title><g id="Layer_4" data-name="Layer 4"><polygon class="cls-1" points="136.82 8.63 141.01 21.51 154.56 21.51 143.6 29.48 147.78 42.37 136.82 34.41 125.86 42.37 130.05 29.48 119.08 21.51 132.63 21.51 136.82 8.63"/><path class="cls-2" d="M81.23,60.91,76,61.54,74.59,50l1.94-.23,1.14,9.65L81,59.06Z"/><path class="cls-2" d="M99.13,57.84l-.83,1-3.87.46-1.05-.83L92.13,48l1.92-.23,1.12,9.44.23.19,1.49-.18.19-.24L96,47.5l1.93-.23Z"/><path class="cls-2" d="M115.48,45.2l1,.83.43,3.75-.83,1,1.05.83.49,4-.83,1.05-4.9.58-1.35-11.51Zm-.64,4.86.19-.25-.29-2.44-.24-.2-1.75.21.34,2.89Zm.22,1.87-1.75.21.36,3,1.75-.21.19-.25-.32-2.6Z"/><path class="cls-2" d="M155.05,48l.14-1.21-.2-.25-1.47-.18-.25.2-.28,2.4.2.25,2.69.32.83,1-.57,4.9-1,.85-3.9-.46-.83-1,.28-2.38,1.92.23-.15,1.23.21.25,1.47.17.25-.2.32-2.6-.2-.26-2.68-.31-.83-1,.55-4.71,1.05-.83,3.91.45.83,1L157,48.2Z"/><path class="cls-2" d="M169.93,47.29l-1.13,9.63-1.05.83-3.88-.45-.83-1,1.13-9.63,1-.83,3.88.45Zm-2.28.69-1.45-.17L166,48l-.86,7.34.19.23,1.45.17.25-.18.86-7.35Z"/><path class="cls-2" d="M175.82,57.75l1.12-9.64,1.05-.83,3.88.46.83,1-.28,2.38-1.92-.23.14-1.21-.2-.25L179,49.3l-.25.2-.85,7.31.2.26,1.45.17.26-.2.14-1.22,1.92.23-.28,2.38-1,.83-3.87-.46Z"/><path class="cls-2" d="M188.46,59.22l1.12-9.63,1-.83,3.88.46.83,1.05-.28,2.37-1.92-.22.14-1.21-.2-.26-1.46-.17-.25.2-.85,7.31.2.25,1.45.18.26-.21.14-1.21,1.92.23-.28,2.37-1.05.83-3.88-.45Z"/><path class="cls-2" d="M200.94,61.64l1.35-11.51,5.52.64-.22,1.86L204,52.21l-.34,2.86,2.67.32-.22,1.86-2.67-.32L203.07,60l3.59.42-.22,1.87Z"/><path class="cls-2" d="M213.27,63.09l1.35-11.52,5,.59.82,1.05-.6,5.15-1,.83.42,4.59-1.91-.22-.42-4.6-1.15-.13-.52,4.48Zm4.51-5.91L218,57l.34-2.86-.19-.24-1.85-.21L215.94,57Z"/><g id="Tiger"><path class="cls-3" d="M91.84,170.91c.16,2.07.28,3.84.44,5.61s.39,3.26.54,4.89.2,3,.34,4.46c.3,3.07.61,6.13,1,9.19a5.64,5.64,0,0,0,.52,1.74c.79,1.55,1.64,3.08,2.49,4.64L92.67,206l1.09,3.65c-1.54,2.52-3.09,5.07-4.66,7.6-1.43,2.32-2.89,4.63-4.31,7a3.08,3.08,0,0,0-.64,2c.31,2.65.61,5.3.85,7.95.27,3.08.48,6.16.73,9.24,0,.24.06.48.12.86,1.45-.41,1.66-2,2.91-2.6.12,2.69.24,5.35.37,8.11l2.28,3.73a21.66,21.66,0,0,0,2.55,4c.69-1.36,0-2.72.54-4.08,1.14,1.39,2.18,2.67,3.23,3.94l3.16,3.81a31.39,31.39,0,0,0,3.42,4c0-2.32,0-4.25-.14-6.24l3.49,5.36c2.42.65,4.71,1.07,7.2,1.8-1.62.54-3.07.55-4.28,1.53l5.85.31.33,1.6c-1.46.4-2.84.76-4.21,1.16-.19.05-.34.25-.51.38l.08.26,5.7-.39.6,1.44c-1.59.93-3.38,1.15-5,2.31,1.23,0,2.21,0,3.18,0s2-.12,3.07-.18l.71,1.6c-.67,2.55-.64,2.78.53,4.65l1.06-1,.07,1.26,1.7,2.27.6-1.62a7.64,7.64,0,0,0,1.09.5c4.12,1.21,8.26,2.39,12.38,3.61a2.78,2.78,0,0,0,1.8-.05c1.5-.49,3-.88,4.56-1.34,2.89-.88,5.77-1.78,8.66-2.67a.67.67,0,0,1,.2,0l.44,1.4a4.79,4.79,0,0,0,1.92-3.39l1.08,1.13,1-2.44-.6-2.35.75-1.56,6.05.4c-1.41-1.34-3.33-1.48-4.86-2.49l.74-1.45,5.63.39c-1.36-1.08-3-1.13-4.61-1.82l.1-1.54,6.06-.42,0-.33-4.22-1c2.29-.84,4.69-1.25,7-1.89,1.26-1.73,2.21-3.69,3.81-5.64a26.62,26.62,0,0,0-.23,6.49c3.41-4.06,6.49-8,9.8-11.92a36.07,36.07,0,0,0,.28,4.5c2-2.86,3.42-5.64,5.08-8.22v-8.26l2.83,3.21a2.34,2.34,0,0,0,.25-.6c.22-2.3.42-4.61.62-6.91.13-1.49.22-3,.36-4.47.22-2.36.46-4.71.68-7q-4.91-8-9.64-15.76l1.18-3.42-4.52-4.8,2.89-5.31c.82-8.36,1.64-16.63,2.48-25.18-3.92,1-7.67,1.94-11.4,2.93s-7.65,1.89-11.29,2.77l-3.84-.53c-1.83-.23-3.67-.43-5.5-.68s-3.85-.59-5.78-.87-4.16-.56-6.24-.89a19.51,19.51,0,0,0-5.81,0c-1.93.26-3.85.57-5.78.83s-3.88.44-5.82.69c-3,.39-5.9.78-8.84,1.23a4.29,4.29,0,0,1-1.79-.09l-16.21-4.14C95.46,171.79,93.77,171.38,91.84,170.91Z"/><path class="cls-4" d="M91.84,170.91c1.93.47,3.62.88,5.3,1.31l16.21,4.14a4.29,4.29,0,0,0,1.79.09c2.94-.45,5.89-.84,8.84-1.23,1.94-.25,3.88-.44,5.82-.69s3.85-.57,5.78-.83a19.51,19.51,0,0,1,5.81,0c2.08.33,4.16.59,6.24.89s3.85.6,5.78.87,3.67.45,5.5.68l3.84.53c3.64-.88,7.48-1.76,11.29-2.77s7.48-1.93,11.4-2.93c-.84,8.55-1.66,16.82-2.48,25.18l-2.89,5.31,4.52,4.8-1.18,3.42q4.72,7.74,9.64,15.76c-.22,2.31-.46,4.66-.68,7-.14,1.49-.23,3-.36,4.47-.2,2.3-.4,4.61-.62,6.91a2.34,2.34,0,0,1-.25.6l-2.83-3.21v8.26c-1.66,2.58-3.08,5.36-5.08,8.22a36.07,36.07,0,0,1-.28-4.5c-3.31,3.93-6.39,7.86-9.8,11.92a26.62,26.62,0,0,1,.23-6.49c-1.6,1.95-2.55,3.91-3.81,5.64-2.35.64-4.75,1.05-7,1.89l4.22,1,0,.33-6.06.42-.1,1.54c1.57.69,3.25.74,4.61,1.82l-5.63-.39-.74,1.45c1.53,1,3.45,1.15,4.86,2.49l-6.05-.4-.75,1.56.6,2.35-1,2.44-1.08-1.13a4.79,4.79,0,0,1-1.92,3.39l-.44-1.4a.67.67,0,0,0-.2,0c-2.89.89-5.77,1.79-8.66,2.67-1.52.46-3.06.85-4.56,1.34a2.78,2.78,0,0,1-1.8.05c-4.12-1.22-8.26-2.4-12.38-3.61a7.64,7.64,0,0,1-1.09-.5l-.6,1.62-1.7-2.27-.07-1.26-1.06,1c-1.17-1.87-1.2-2.1-.53-4.65l-.71-1.6c-1,.06-2.06.15-3.07.18s-1.95,0-3.18,0c1.62-1.16,3.41-1.38,5-2.31l-.6-1.44-5.7.39L112,271c.17-.13.32-.33.51-.38,1.37-.4,2.75-.76,4.21-1.16l-.33-1.6-5.85-.31c1.21-1,2.66-1,4.28-1.53-2.49-.73-4.78-1.15-7.2-1.8l-3.49-5.36c.11,2,.16,3.92.14,6.24a31.39,31.39,0,0,1-3.42-4l-3.16-3.81c-1-1.27-2.09-2.55-3.23-3.94-.5,1.36.15,2.72-.54,4.08a21.66,21.66,0,0,1-2.55-4l-2.28-3.73c-.13-2.76-.25-5.42-.37-8.11-1.25.56-1.46,2.19-2.91,2.6-.06-.38-.1-.62-.12-.86-.25-3.08-.46-6.16-.73-9.24-.24-2.65-.54-5.3-.85-7.95a3.08,3.08,0,0,1,.64-2c1.42-2.33,2.88-4.64,4.31-7,1.57-2.53,3.12-5.08,4.66-7.6L92.67,206l4.46-4.59c-.85-1.56-1.7-3.09-2.49-4.64a5.64,5.64,0,0,1-.52-1.74c-.35-3.06-.66-6.12-1-9.19-.14-1.48-.2-3-.34-4.46s-.38-3.26-.54-4.89S92,173,91.84,170.91Zm31.44,91c0-.08-.07-.16,0,0-.13-.07-.06,0,0,0,.09.34.19.68.25,1a8.41,8.41,0,0,1,0,1.06l-4-2.56c.14,1.37.29,2.73.43,4.11a26.15,26.15,0,0,1,8.6,3.06,30.91,30.91,0,0,1-8.08-1.08c.19.62.32,1.05.46,1.48a2.18,2.18,0,0,0,.24.35,20.87,20.87,0,0,1,8,2.07c-2.78,1-5.21.18-7.81-.22l.28,1.13a35.66,35.66,0,0,1,3.49.81c1.13.38,2.44.23,3.57,1.09-1.84,1-3.62.16-5.4.12a2.63,2.63,0,0,0,2.12,1.2c1.16.21,2.32.44,3.48.61a6.51,6.51,0,0,0,2.71,0c1-.26,2-.41,3-.64s1.76-.44,2.62-.65v-4l-1.33-.95c-1.52-1.12-3.4-1.4-5.07-2.15a5.43,5.43,0,0,1-1.41-.89c-1-.94-2-2-3-2.89A8.15,8.15,0,0,0,123.28,261.92Zm33.29,5.91c-.61.05-1.23.07-1.83.16-1.62.23-3.24.51-4.86.73a5.39,5.39,0,0,1-1.13-.06c2.66-1.83,5.7-2.42,8.62-3.13.12-1.48.24-2.8.35-4.17-3.3,2.27-3.3,2.27-4.27,2.18l.83-2a24.8,24.8,0,0,0-5.86,4.8,7.35,7.35,0,0,1-2.79,1.78c-2,.7-4,1.24-5.53,2.81v3.88a3.71,3.71,0,0,0,.72.32l5.28,1.08a3.07,3.07,0,0,0,1,.13c1.67-.25,3.34-.54,5-.83a2.46,2.46,0,0,0,1.78-1.21c-.47.05-.87.1-1.28.13-1,.06-2,.15-3.07.15-.27,0-.55-.25-1.13-.54l7.13-1.71.37-1.19c-1.41.26-2.6.55-3.81.69a5.57,5.57,0,0,1-3.8-.55,22.28,22.28,0,0,1,7.92-2l.3-1.53c.08-.05.15-.09,0,0C156.64,267.69,156.6,267.76,156.57,267.83ZM164,186.06a5.56,5.56,0,0,1-1-.63c-.57-.58-1.07-1.24-1.61-1.85-1.21-1.4-2.41-2.8-3.66-4.17a3.06,3.06,0,0,0-2.06-1.17c-.8-.05-1.58-.39-2.38-.51-1.5-.22-3-.83-4.51-.72l-.49-.27-.08.2.55.1a2.62,2.62,0,0,0,.48.56c2.69,1.66,5.38,3.33,8.1,5a2.41,2.41,0,0,1,1.1,1.19c.66,1.5,1.4,3,2.16,4.41a5.11,5.11,0,0,0,1,1.32c1,1,2.17,1.9,3.23,2.87.78.72,1.53,1.48,2.33,2.25L165.55,196c0,.19-.06.46,0,.59,2.09,2.53,3.93,5.25,6.44,7.6.52,1.34,1.06,2.82,1.67,4.27s1.26,2.82,1.9,4.22l.24-.05c.26-1.71.51-3.42.74-4.92a39.19,39.19,0,0,1-2.74-5.31l3.07.59c-.75-1.31-2-1.95-2.76-3.13l6.22-8c-.49-5.24-1-10.32-1.42-15.38l-2.63-1c-2.85,1.26-5.61,2.45-8.34,3.7a12.86,12.86,0,0,0-2.76,1.61,10.46,10.46,0,0,0-1.57,2L164,186Zm-.92,73.67c1.7-.93,3.42-1.83,5.1-2.81A9.52,9.52,0,0,0,170,255.5c2.22-2.18,4.4-4.39,6.6-6.58.23-.23.48-.43,1-.86.08,1.13.11,1.93.2,2.74s.22,1.53.38,2.65a30.5,30.5,0,0,0,1.64-3.15c1.13-3.07,2.16-6.18,3.24-9.27a3,3,0,0,1,.47-.64l.71,1.7a2.71,2.71,0,0,0,.33-1.24c.12-1.75.22-3.5.36-5.24.18-2.26.41-4.51.61-6.76,0-.31,0-.62.05-.93.19-1.84.38-3.68.57-5.54l-8.29-11.09c-.81,1.36-.45,3-1.3,4.43l-2.6-2.9-2.15.39a16.73,16.73,0,0,1,3.75,4A37.24,37.24,0,0,1,178.7,222l-2.19-.92c1.23,3.15,2.35,6,3.45,8.78-.45,1.31-.86,2.52-1.27,3.73a13.8,13.8,0,0,1-1.42,3.65l-.75-2.6c-.28,1.19-.46,2-.68,2.87-.39,1.42-.4,3-1.16,4.28-1,1.82-2.16,3.61-3.24,5.41a5.75,5.75,0,0,0-.65,1.22,9.54,9.54,0,0,1-1.67,2.67l-.8-.34c-.44,1.59-.87,3.1-1.33,4.75a31.46,31.46,0,0,0-2.49,2.43c-.48.58-1.3.95-1.4,1.83l-.06,0C163,259.88,163,259.8,163.08,259.73ZM124.83,261l.26.13-.23-.17c.12-1.57-.82-2.93-.85-4.54.15-.5.32-1.08.49-1.67a19.65,19.65,0,0,0,1-6.18,7.91,7.91,0,0,1,.3-2.27,7.18,7.18,0,0,1,.78-1.47c.35-.67.34-.67,1.16-1.14-.15,1.92-.29,3.76-.42,5.55l1.15,2a10.72,10.72,0,0,1-.07,3.08c-.25.74-1.09,1.29-1.48,1.73-.89,3.4.88,5.79,2.39,8.3l.86-.68,8.42,1.91,8.6-1.88.88.66,2.26-4.23V256l-1.51-1.31v-3.43l1.05-2.09a24.52,24.52,0,0,1-.13-3c.07-.87-.68-1.73-.05-2.72,1,.8,1.22,2,1.78,2.7.15,1.49.37,2.71.38,3.93a11.23,11.23,0,0,0,.74,4.05,6.46,6.46,0,0,1,0,5.05,4.67,4.67,0,0,0-.33,1,7.38,7.38,0,0,0,0,1.2c.86-.63,1.48-1.17,2.17-1.58a1.68,1.68,0,0,0,.85-1.66c0-.93,0-1.85,0-2.78,1.27-.66,2.44-1.3,3.64-1.87a1.87,1.87,0,0,0,1.1-1.18c.46-1.35,1-2.67,1.53-4a10.5,10.5,0,0,1,.78-1.27l1.88,3.36c.38-1.34.68-2.57,1.09-3.76.87-2.59,1.39-5.34,3.2-7.54a9.63,9.63,0,0,0,.94-1.88,19.52,19.52,0,0,1-2.45.62c-.76.09-1.51.68-2.52.08l5.45-3.83c0-1.22,0-2.35,0-3.49a4.7,4.7,0,0,1,.16-1.36c.36-1.06.79-2.1,1.22-3.13.68-1.64,1.17-3.27.36-5a3.61,3.61,0,0,1-.18-1.05A14.55,14.55,0,0,0,170.1,215c-.42-.75-.8-1.52-1.22-2.31,1.19-.93,2.72-.62,3.92-1.41-.35-.61-.68-1.18-1-1.77-.78-1.48-1.56-3-2.32-4.47a11.8,11.8,0,0,0-2.24-3.47c-1.35-1.24-2.67-2.5-4-3.74a4.48,4.48,0,0,1-1.81-2.93,3.49,3.49,0,0,0-.56-1.21c-.84-.74-1.5-1.4-2.25-1.94a13.67,13.67,0,0,1-3.89-4.33c-.8-1.42-1.68-2.8-2.46-4.09l-8.55-2.2c-1.73-1.06-3-3.13-5.23-4.12-1.18,1-2.34,2-3.49,3.06a5.34,5.34,0,0,1-2.49,1.39c-2.44.53-4.83,1.22-7.41,1.9l-1.71,2.74c-1.14,1.83-2.15,3.75-3.91,5.12-1.12.87-2.18,1.83-3,2.54A13.81,13.81,0,0,1,115,196.9a55.1,55.1,0,0,1-4.37,4.41,8.94,8.94,0,0,0-1.77,2.06c-1,1.82-2.14,3.6-3.17,5.43-.45.78-.79,1.63-1.18,2.43,1.24.87,2.8.49,3.89,1.44-.94,2-2.15,3.82-2.37,6a11.39,11.39,0,0,1-.35,1.64,8.06,8.06,0,0,0,.36,6,12.91,12.91,0,0,1,1.38,7.14,8.37,8.37,0,0,0,0,.86c3.82,2.32,4.73,3,5.23,4.12-1.54,0-2.94-1-4.65-.67.14.27.22.44.32.61,1,1.72,2.22,3.31,2.73,5.28.13.49.29,1,.42,1.45a17.22,17.22,0,0,1,1,4,4.75,4.75,0,0,0,.82,2l1.8-3.78,2.46,6,4.54,2.09c0,1,0,2,0,2.89a1.9,1.9,0,0,0,.43,1.26A19.83,19.83,0,0,0,124.83,261Zm-33.6-38.59c.2,1.93.43,3.82.58,5.71.25,3,.46,6.06.68,9.09.14,1.85.29,3.7.44,5.61.51-.76.26-1.73,1-2.49.29.64.55,1.13.74,1.66,1,2.7,1.9,5.41,2.82,8.13a12.8,12.8,0,0,0,1.76,3.1l.51-5c.26.07.38.07.44.13,1.81,1.78,3.69,3.5,5.38,5.39a16.38,16.38,0,0,0,4.56,3.81c1.59.83,3.12,1.77,4.68,2.66l.16-.21-4.56-5-1.44-4.25-.84.62c-.28-.45-.51-.79-.71-1.14-1.35-2.37-2.65-4.76-4-7.1a11.65,11.65,0,0,1-1.54-4c-.26-1.43-.65-2.83-1.06-4.54l-.78,2.74a7,7,0,0,1-.34-.63c-.71-2.09-1.46-4.16-2.09-6.27a2.75,2.75,0,0,1,.2-1.63c.66-1.78,1.41-3.53,2.1-5.29.3-.74.55-1.49.83-2.25-.8-.22-1.22.74-2.06.29,2.13-2.92,3.9-6,6.78-8.38l-1.81-.35c-1.09.74-1.7,2-3.07,2.57l-1-4.1Zm5.62-30.77c2.22,2.88,4.45,5.48,6.4,8.36l-2.61,2.67a3.79,3.79,0,0,0,1.42-.11,13.05,13.05,0,0,1,1.59,0L100.79,208l.79,4.76c1.3-2.85,2.45-5.4,3.61-7.94a5.8,5.8,0,0,1,.66-1.17c1.49-1.84,3-3.65,4.49-5.49.51-.62,1-1.28,1.46-1.94-.65-.61-1.51-.93-1.55-2,1.33-1.14,2.75-2.31,4.11-3.55a12,12,0,0,0,2.08-2.25,36.91,36.91,0,0,0,1.93-3.82c.29-.59.53-1.2.72-1.65l9.77-5.88a10.43,10.43,0,0,0-1.43,0c-2,.4-4,.78-6,1.26a3.22,3.22,0,0,0-1.76,1.12c-1.71,2-3.53,4-5.31,6-.34.37-.73.69-1.1,1l-.26-.12c.2-1.17.39-2.34.59-3.52a6.07,6.07,0,0,1-.82-1,5.29,5.29,0,0,0-2.65-2.24c-2.33-1-4.64-2.11-7-3.16-.78-.35-1.58-.65-2.28-.93l-2.3.84c-.6,1.26-.35,2.53-.54,3.73a44.68,44.68,0,0,0-.59,6.43,17.77,17.77,0,0,1-.27,2.27C97.09,189.75,97,190.71,96.85,191.64Zm32.2,87.14c11.12,2.37,9.65,1.65,19.35.09a2.5,2.5,0,0,0-.59-.27,7.11,7.11,0,0,0-1.21-.13C140.74,278.51,134.87,278.21,129.05,278.78Z"/><path class="cls-5" d="M124.83,261a19.83,19.83,0,0,1-2.32-1.4,1.9,1.9,0,0,1-.43-1.26c-.06-.92,0-1.85,0-2.89l-4.54-2.09-2.46-6-1.8,3.78a4.75,4.75,0,0,1-.82-2,17.22,17.22,0,0,0-1-4c-.13-.48-.29-1-.42-1.45-.51-2-1.75-3.56-2.73-5.28-.1-.17-.18-.34-.32-.61,1.71-.38,3.11.63,4.65.67-.5-1.08-1.41-1.8-5.23-4.12a8.37,8.37,0,0,1,0-.86,12.91,12.91,0,0,0-1.38-7.14,8.06,8.06,0,0,1-.36-6,11.39,11.39,0,0,0,.35-1.64c.22-2.2,1.43-4,2.37-6-1.09-.95-2.65-.57-3.89-1.44.39-.8.73-1.65,1.18-2.43,1-1.83,2.13-3.61,3.17-5.43a8.94,8.94,0,0,1,1.77-2.06A55.1,55.1,0,0,0,115,196.9a13.81,13.81,0,0,0,1.45-3.14c.85-.71,1.91-1.67,3-2.54,1.76-1.37,2.77-3.29,3.91-5.12l1.71-2.74c2.58-.68,5-1.37,7.41-1.9a5.34,5.34,0,0,0,2.49-1.39c1.15-1,2.31-2,3.49-3.06,2.19,1,3.5,3.06,5.23,4.12l8.55,2.2c.78,1.29,1.66,2.67,2.46,4.09a13.67,13.67,0,0,0,3.89,4.33c.75.54,1.41,1.2,2.25,1.94a3.49,3.49,0,0,1,.56,1.21,4.48,4.48,0,0,0,1.81,2.93c1.35,1.24,2.67,2.5,4,3.74a11.8,11.8,0,0,1,2.24,3.47c.76,1.5,1.54,3,2.32,4.47.31.59.64,1.16,1,1.77-1.2.79-2.73.48-3.92,1.41.42.79.8,1.56,1.22,2.31a14.55,14.55,0,0,1,1.39,5.13,3.61,3.61,0,0,0,.18,1.05c.81,1.75.32,3.38-.36,5-.43,1-.86,2.07-1.22,3.13a4.7,4.7,0,0,0-.16,1.36c0,1.14,0,2.27,0,3.49L164.47,238c1,.6,1.76,0,2.52-.08a19.52,19.52,0,0,0,2.45-.62,9.63,9.63,0,0,1-.94,1.88c-1.81,2.2-2.33,4.95-3.2,7.54-.41,1.19-.71,2.42-1.09,3.76l-1.88-3.36a10.5,10.5,0,0,0-.78,1.27c-.54,1.32-1.07,2.64-1.53,4a1.87,1.87,0,0,1-1.1,1.18c-1.2.57-2.37,1.21-3.64,1.87,0,.93,0,1.85,0,2.78a1.68,1.68,0,0,1-.85,1.66c-.69.41-1.31.95-2.17,1.58a7.38,7.38,0,0,1,0-1.2,4.67,4.67,0,0,1,.33-1,6.46,6.46,0,0,0,0-5.05,11.23,11.23,0,0,1-.74-4.05c0-1.22-.23-2.44-.38-3.93-.56-.66-.74-1.9-1.78-2.7-.63,1,.12,1.85.05,2.72a24.52,24.52,0,0,0,.13,3l-1.05,2.09v3.43l1.51,1.31v4.13l-2.26,4.23-.88-.66-8.6,1.88-8.42-1.91-.86.68c-1.51-2.51-3.28-4.9-2.39-8.3.39-.44,1.23-1,1.48-1.73a10.72,10.72,0,0,0,.07-3.08l-1.15-2c.13-1.79.27-3.63.42-5.55-.82.47-.81.47-1.16,1.14a7.18,7.18,0,0,0-.78,1.47,7.91,7.91,0,0,0-.3,2.27,19.65,19.65,0,0,1-1,6.18c-.17.59-.34,1.17-.49,1.67,0,1.61,1,3,.85,4.54Zm26.43-27.39,1,.07,1.22,4.24c.65-.63.49-1.36.56-2.06a3.92,3.92,0,0,1,.37-1.75c.76-1.09,1.69-2.05,2.51-3l2.75.89,2.85-5.32-1.77-1.22c-.6.62-1.17,1.15-1.66,1.75a3.68,3.68,0,0,1-2.64,1.38,4.1,4.1,0,0,0-2.66,1.34,4.08,4.08,0,0,1-1.25-2l3.1.2a10.34,10.34,0,0,0,4.48-3.81l3.16.91,3.06-3.91a13.11,13.11,0,0,0-1.36-.09c-1.9.09-3.8.31-5.7.26a6.93,6.93,0,0,0-4.72,1.41,5.28,5.28,0,0,1-2.78,1.43l-1.22-2.14a22.23,22.23,0,0,1-.75,3.17,21,21,0,0,1-3,6.12,1.73,1.73,0,0,0-.52,1.56,4.3,4.3,0,0,0,1.6,2.84A7.26,7.26,0,0,1,150,238a33.09,33.09,0,0,1,2.18,4.53c.7,1.69,1.26,3.43,1.87,5.16.45,1.29.87,2.58,1.3,3.87l.19-.05v-6.22c-.82-1.76-1.65-3.57-2.52-5.36a5.67,5.67,0,0,1-.57-1.89c-.13-1.15-.41-2.28-.63-3.41l-1.24-.3.12-1.74,1.56-.85-1,1.86-.14.24ZM160,209.06c0-.08-.09-.16,0,0h0a3.68,3.68,0,0,0,.13.89c.78,1.88,1.59,3.74,2.26,5.3,1.67,1.07,3,2,4.43,2.82a2.23,2.23,0,0,1,1.06,1.41,16.42,16.42,0,0,1,.36,6.69c-.05.37-.09.74-.17,1.43A9.14,9.14,0,0,0,170,224a5.74,5.74,0,0,0,.18-3.49,48.67,48.67,0,0,0-1.63-4.91,3.38,3.38,0,0,0-2.67-2.46,4.14,4.14,0,0,1-2.26-1.23A17,17,0,0,0,160,209.06Zm-6.85-18.34.48.29.09-.21-.52-.13c-.08-.29-.06-.65-.24-.86-1.05-1.26-2.15-2.48-3.12-3.59-1-.24-1.78-.41-2.56-.62a24.7,24.7,0,0,0-8.32-1.15c-1.13.08-2.27,0-3.41,0a5.67,5.67,0,0,0-1.24.06q-3.18.74-6.36,1.56a2.38,2.38,0,0,0-1,.62,19.39,19.39,0,0,0-1.48,1.78c-.59.77-1.16,1.56-1.74,2.35l.21.23,6.28-3.51a11.16,11.16,0,0,0,2.15,0,28.82,28.82,0,0,1,5.63-.56,32.69,32.69,0,0,1,5.23.28c1.2.22,2.44.24,3.66.37a2.4,2.4,0,0,1,.72.26c1,.52,2,1.08,3,1.59C151.37,189.91,152.25,190.31,153.12,190.72Zm-28.23,41c.86-.08,1.26.56,1.76,1.08v1.69l-1.11.13c-.7,1.8-.45,3.78-1.38,5.49s-1.61,3.41-2.39,5.07v6.66a9.94,9.94,0,0,0,.54-1.2,65.31,65.31,0,0,1,4.56-12.12,5.61,5.61,0,0,1,1.85-2.19,4.9,4.9,0,0,0,2.34-4,20.26,20.26,0,0,1-4.36-10.1c-.58.94-.74,1.82-1.5,2.11-.17,0-.23,0-.27,0l-1.43-.86c-3.69-2.18-2.21-1.88-6.28-1.95-1.38,0-2.76-.19-4.14-.26a3.9,3.9,0,0,0-2,.19l1.56,2c.5.63,1,1.25,1.43,1.75l2.91-.89c1.26,1.15,2.33,2.25,3.53,3.21s2.87.5,4.6.25l-1.56,2.15a4.44,4.44,0,0,0-2.65-1.33A3.7,3.7,0,0,1,118,227a11.2,11.2,0,0,0-1.58-1.58l-1.74,1.29a50.05,50.05,0,0,0,3.07,5.25l2.48-1,2.75,3.12.47,3.24c.9-.34.86-1.12,1-1.7s-.06-1.43.52-2l1-.14C125.72,232.81,124.7,232.63,124.89,231.71Zm-7.83-27.08c.08.46.43.36.72.36h4.42l4.81-2,3.28.47,3.46.54c0-.23.13-.4.08-.51-.6-1.36-.06-2.58.46-3.8.21-.47.48-.91.67-1.38a4.84,4.84,0,0,0,.15-.89l-3.76,3.2c-.49,0-1,0-1.42,0a9.43,9.43,0,0,0-4.21.64c-1.9.72-3.79,1.48-5.69,2.2-.79.3-1.61.56-2.42.84.11-.23.17-.53.34-.66a14.27,14.27,0,0,1,4-2.42c1.68-.54,3.38-1,4.92-1.5l1.22.28c1-1.25-.19-2.45.11-3.67a6,6,0,0,0-3.95.67c-1.23.65-2.4,1.38-3.7,1.92a56.56,56.56,0,0,0-5.25,2.7,15.65,15.65,0,0,0-1.58,1.14c1,2.14.09,4.44,1,6.65,1.51-.49,2.52-1.86,4.24-2.3-.61,3-1.87,5.63-2.58,8.31l.73,2.12c-1.22.83-2.59,1.39-3.29,2.88h7.35c1.48.64,2.35,1.91,3.62,2.23l2.84-3.59a4.33,4.33,0,0,1,.54,1,7.16,7.16,0,0,1,0,1.39,7.26,7.26,0,0,0,.87,4.45c.08.12,0,.3.1.44.55,1.35,1.11,2.7,1.72,4.18.64-4,.39-7.87.49-11.69,1.38-1,3.15-1.33,4.39-2.64a38.79,38.79,0,0,0-3.46-4.84,43.53,43.53,0,0,0-4.38,1.67c-2.65,1.31-5.21,2.77-7.82,4.16a3.43,3.43,0,0,1-1,.15c.27-2.63.61-5.07,1.08-7.52,1.54-.34,2.77-1.31,4.32-1.21a19.16,19.16,0,0,1,5-1.66c-.34-.79.31-1.7-.64-2.31h-2c-.92.42-1.79.85-2.69,1.2a4.35,4.35,0,0,1-1.62.34c-1,0-1.92-.18-2.89-.28l-4.31-.44Zm43.1,13.15a8.45,8.45,0,0,1,.41-1.14,2.26,2.26,0,0,0,.07-2c-.77-2-1.39-4.12-2.08-6.18-.15-.43-.32-.85.09-1.24l4.06,2.51c.16-2.53.57-4.83.68-7-1.62-.86-3.06-1.61-4.48-2.38-1.91-1-3.78-2.13-5.71-3.13a5.36,5.36,0,0,0-4.15-.73c.44,1.18-.64,2.29,0,3.61a9.85,9.85,0,0,1,4.5.61,17.5,17.5,0,0,1,3.75,1.6c1.39.88,2.64,2,4.07,2.79.1,0,.1.26.19.56-.91.12-1.75.25-2.59.34a8.8,8.8,0,0,0-1.55.05,7.45,7.45,0,0,1-5.91-.69,5.27,5.27,0,0,0-3.61-.52v2.28a67.92,67.92,0,0,1,9.18,3l1,7.49a6.62,6.62,0,0,1-1-.32c-1.49-.77-3-1.45-4.44-2.36a31.35,31.35,0,0,0-7.79-3.35c-1.07,1.44-2.11,2.81-3.1,4.21-.16.24-.07.67-.09.92l4.08,2.26c.11,3.94.23,7.89.35,12.17,1.27-2.49,2-4.91,3-7.13,0-.83,0-1.6,0-2.38a6.32,6.32,0,0,1,.23-2.47l3.14,3.75,3.48-2.27c1.12,0,2.31,0,3.5,0a15.54,15.54,0,0,0,3.76-.17C162.77,218.83,161.4,218.57,160.16,217.78Zm-45-17,.15.21c.39-.19.79-.34,1.15-.56s.9-.68,1.38-1c1.53-.92,3.07-1.85,4.62-2.73a8.55,8.55,0,0,1,3.78-1.57c.77,0,1.55,0,2.32-.12,1.67-.18,3.34-.53,5-.58,3.37-.09,6.74,0,10.11,0a13.73,13.73,0,0,1,1.7.06c1.52.17,3,.43,4.56.58a8.25,8.25,0,0,1,3.51.95c1.59.92,3.18,1.86,4.77,2.77,1.13.65,2.26,1.27,3.58,2-.6-1.44-3.83-5.43-6-7.55-3.13-.73-6.36-1.41-9.55-2.25a19.56,19.56,0,0,0-5.48-.59c-2,0-3.94,0-5.91,0a17.8,17.8,0,0,0-3.34.38q-4.47,1-8.9,2.13a3.62,3.62,0,0,0-2.17,1.29c-1.55,2-3.27,4-4.91,5.94A3.87,3.87,0,0,0,115.19,200.76ZM109,227.31c.17-3-.38-5.71.57-8.48a9.52,9.52,0,0,1,2.12-1.58c2.63-1,3.93-3.11,4.86-5.56,0,0,.07-.08.09-.13.29-.78.57-1.57.86-2.36l-.27-.17c-1.09.9-2.21,1.77-3.27,2.71a5.69,5.69,0,0,1-2.5,1.4,14.1,14.1,0,0,0-2,.84,50.82,50.82,0,0,0-1.86,5c-.4,1.48-1,3-.39,4.61A12.54,12.54,0,0,0,109,227.31Zm34.28-23.2,7.08-1.08,4.81,2a16.39,16.39,0,0,0,4.23-.32,29.18,29.18,0,0,0-3.67-1.83c-3.06-1.28-6.12-2.58-9.56-2.19a.71.71,0,0,1-.27-.07c-1.16-1-2.31-2-3.66-3.12a16.93,16.93,0,0,0,1.57,4Zm-7,3.52a100.24,100.24,0,0,0-14.92,3.19c-.37,1.63-.71,3.14-1,4.62.12.08.18.13.2.12a8.35,8.35,0,0,0,1-.42,47.87,47.87,0,0,1,9.26-4.32A15.3,15.3,0,0,0,136.18,207.63ZM156,210.78a111,111,0,0,0-14.74-3.12,2.5,2.5,0,0,0,.37.5,21.15,21.15,0,0,0,5.25,2.73,34.73,34.73,0,0,1,6,2.55c1.21.66,2.38,1.39,3.58,2.07a1.87,1.87,0,0,0,.65.08Z"/><path class="cls-3" d="M163.1,259.75c.1-.88.92-1.25,1.4-1.83a31.46,31.46,0,0,1,2.49-2.43c.46-1.65.89-3.16,1.33-4.75l.8.34a9.54,9.54,0,0,0,1.67-2.67,5.75,5.75,0,0,1,.65-1.22c1.08-1.8,2.2-3.59,3.24-5.41.76-1.32.77-2.86,1.16-4.28.22-.84.4-1.68.68-2.87l.75,2.6a13.8,13.8,0,0,0,1.42-3.65c.41-1.21.82-2.42,1.27-3.73-1.1-2.79-2.22-5.63-3.45-8.78l2.19.92a37.24,37.24,0,0,0-3.17-4.77,16.73,16.73,0,0,0-3.75-4l2.15-.39,2.6,2.9c.85-1.47.49-3.07,1.3-4.43l8.29,11.09c-.19,1.86-.38,3.7-.57,5.54,0,.31,0,.62-.05.93-.2,2.25-.43,4.5-.61,6.76-.14,1.74-.24,3.49-.36,5.24a2.71,2.71,0,0,1-.33,1.24l-.71-1.7a3,3,0,0,0-.47.64c-1.08,3.09-2.11,6.2-3.24,9.27a30.5,30.5,0,0,1-1.64,3.15c-.16-1.12-.3-1.88-.38-2.65s-.12-1.61-.2-2.74c-.49.43-.74.63-1,.86-2.2,2.19-4.38,4.4-6.6,6.58a9.52,9.52,0,0,1-1.81,1.42c-1.68,1-3.4,1.88-5.1,2.81Z"/><path class="cls-3" d="M91.23,222.41l8.26-11.08,1,4.1c1.37-.52,2-1.83,3.07-2.57l1.81.35c-2.88,2.37-4.65,5.46-6.78,8.38.84.45,1.26-.51,2.06-.29-.28.76-.53,1.51-.83,2.25-.69,1.76-1.44,3.51-2.1,5.29a2.75,2.75,0,0,0-.2,1.63c.63,2.11,1.38,4.18,2.09,6.27a7,7,0,0,0,.34.63l.78-2.74c.41,1.71.8,3.11,1.06,4.54a11.65,11.65,0,0,0,1.54,4c1.4,2.34,2.7,4.73,4,7.1.2.35.43.69.71,1.14l.84-.62,1.44,4.25,4.56,5-.16.21c-1.56-.89-3.09-1.83-4.68-2.66a16.38,16.38,0,0,1-4.56-3.81c-1.69-1.89-3.57-3.61-5.38-5.39-.06-.06-.18-.06-.44-.13l-.51,5a12.8,12.8,0,0,1-1.76-3.1c-.92-2.72-1.87-5.43-2.82-8.13-.19-.53-.45-1-.74-1.66-.7.76-.45,1.73-1,2.49-.15-1.91-.3-3.76-.44-5.61-.22-3-.43-6.06-.68-9.09C91.66,226.23,91.43,224.34,91.23,222.41Z"/><path class="cls-5" d="M148.79,177c1.56-.11,3,.5,4.51.72.8.12,1.58.46,2.38.51a3.06,3.06,0,0,1,2.06,1.17c1.25,1.37,2.45,2.77,3.66,4.17.54.61,1,1.27,1.61,1.85a5.56,5.56,0,0,0,1,.63l.27.13L164,186l-.39-3.32a10.46,10.46,0,0,1,1.57-2,12.86,12.86,0,0,1,2.76-1.61c2.73-1.25,5.49-2.44,8.34-3.7l2.63,1c.46,5.06.93,10.14,1.42,15.38l-6.22,8c.75,1.18,2,1.82,2.76,3.13l-3.07-.59a39.19,39.19,0,0,0,2.74,5.31c-.23,1.5-.48,3.21-.74,4.92l-.24.05c-.64-1.4-1.3-2.8-1.9-4.22s-1.15-2.93-1.67-4.27c-2.51-2.35-4.35-5.07-6.44-7.6-.1-.13,0-.4,0-.59l1.62-1.44c-.8-.77-1.55-1.53-2.33-2.25-1.06-1-2.18-1.89-3.23-2.87a5.11,5.11,0,0,1-1-1.32c-.76-1.45-1.5-2.91-2.16-4.41a2.41,2.41,0,0,0-1.1-1.19c-2.72-1.63-5.41-3.3-8.1-5a2.62,2.62,0,0,1-.48-.56Zm27.36,1.89a2.56,2.56,0,0,0-.69.24q-1.89,1.43-3.75,2.88a6,6,0,0,0-1.77,2.09c-.91,1.81-1.86,3.59-2.83,5.45a16.59,16.59,0,0,0,1.16,4.62,2,2,0,0,0,.6.88c1,.85,2,1.66,3,2.49.44-.4.15-.72,0-1.1a5,5,0,0,1-.36-4.1c.21-.5.4-1,.66-1.63-1.24-.12-1.76,1.13-3,1.21.27-.76.46-1.37.69-2,.53-1.36,1.17-2.69,1.58-4.09a8.24,8.24,0,0,1,1.9-3.43c.92-1,1.78-2,2.65-3,.11-.13.1-.38.15-.57.07,0,.15-.09,0,0C176.25,178.73,176.2,178.82,176.15,178.9Zm2-1c-1.43,2.06-2.64,4-4.07,5.81s-1.69,4-2.82,6.13l2.29-.81c-.49,1.6-.95,3-1.34,4.4a2.8,2.8,0,0,0,0,1.49c.39,1.14.91,2.25,1.36,3.34,2.05-2,2.85-4.67,4.09-7.09.45-1.31-.55-2.58-.12-4l.63.3C179,185.49,179,182.87,178.2,177.94Z"/><path class="cls-5" d="M96.85,191.64c.12-.93.24-1.89.35-2.85a17.77,17.77,0,0,0,.27-2.27,44.68,44.68,0,0,1,.59-6.43c.19-1.2-.06-2.47.54-3.73l2.3-.84c.7.28,1.5.58,2.28.93,2.33,1.05,4.64,2.12,7,3.16a5.29,5.29,0,0,1,2.65,2.24,6.07,6.07,0,0,0,.82,1c-.2,1.18-.39,2.35-.59,3.52l.26.12c.37-.34.76-.66,1.1-1,1.78-2,3.6-3.93,5.31-6a3.22,3.22,0,0,1,1.76-1.12c2-.48,4-.86,6-1.26a10.43,10.43,0,0,1,1.43,0l-9.77,5.88c-.19.45-.43,1.06-.72,1.65a36.91,36.91,0,0,1-1.93,3.82,12,12,0,0,1-2.08,2.25c-1.36,1.24-2.78,2.41-4.11,3.55,0,1.09.9,1.41,1.55,2-.49.66-1,1.32-1.46,1.94-1.49,1.84-3,3.65-4.49,5.49a5.8,5.8,0,0,0-.66,1.17c-1.16,2.54-2.31,5.09-3.61,7.94l-.79-4.76,2.86-5.46a13.05,13.05,0,0,0-1.59,0,3.79,3.79,0,0,1-1.42.11l2.61-2.67C101.3,197.12,99.07,194.52,96.85,191.64Zm3.42-13.36c0-.07-.09-.15,0,0-.11-.07,0,0,0,0l.63.31a2.52,2.52,0,0,0,1,1.8,15.7,15.7,0,0,1,4.07,6.22c.36,1,.92,2,1.32,3,.28.72.43,1.48.7,2.45L105,190.28a25.59,25.59,0,0,0,.88,2.45,2.77,2.77,0,0,1,0,2.48c-.38.9-1,1.76-.87,2.91,1.21-1.05,2.38-2,3.5-3.08a3.27,3.27,0,0,0,.77-1.29c.33-1,.51-2.06.84-3.07a2.28,2.28,0,0,0-.22-1.91c-.6-1.12-1.27-2.2-1.83-3.35a9.09,9.09,0,0,0-3.2-4c-1.36-.89-2.64-1.9-4-2.85ZM105.88,190c-.5-1.35-.9-2.38-1.25-3.43a8.13,8.13,0,0,0-1.53-3c-.76-.88-1.35-1.92-2.06-2.86s-1.05-2-2.32-2.65c.15,3.3-.7,6.38.2,9.48l1-.25c-.07.5-.11.84-.17,1.19a5.86,5.86,0,0,0,.17,3.61c.63,1.35,1.2,2.72,1.94,4a18.25,18.25,0,0,0,1.84,2.29c.42-1.08.76-2.08,1.2-3a2.28,2.28,0,0,0,.13-1.91c-.46-1.18-.8-2.41-1.19-3.62a7.08,7.08,0,0,1-.11-.74Z"/><path class="cls-3" d="M156.55,267.82l-.3,1.53a22.28,22.28,0,0,0-7.92,2,5.57,5.57,0,0,0,3.8.55c1.21-.14,2.4-.43,3.81-.69l-.37,1.19-7.13,1.71c.58.29.86.55,1.13.54,1,0,2.05-.09,3.07-.15.41,0,.81-.08,1.28-.13a2.46,2.46,0,0,1-1.78,1.21c-1.67.29-3.34.58-5,.83a3.07,3.07,0,0,1-1-.13l-5.28-1.08a3.71,3.71,0,0,1-.72-.32V271c1.51-1.57,3.57-2.11,5.53-2.81a7.35,7.35,0,0,0,2.79-1.78,24.8,24.8,0,0,1,5.86-4.8l-.83,2c1,.09,1,.09,4.27-2.18-.11,1.37-.23,2.69-.35,4.17-2.92.71-6,1.3-8.62,3.13a5.39,5.39,0,0,0,1.13.06c1.62-.22,3.24-.5,4.86-.73.6-.09,1.22-.11,1.83-.16Z"/><path class="cls-3" d="M123.28,261.92a8.15,8.15,0,0,1,3.13,2.14c1.06.9,2,1.95,3,2.89a5.43,5.43,0,0,0,1.41.89c1.67.75,3.55,1,5.07,2.15l1.33.95v4c-.86.21-1.73.45-2.62.65s-2,.38-3,.64a6.51,6.51,0,0,1-2.71,0c-1.16-.17-2.32-.4-3.48-.61a2.63,2.63,0,0,1-2.12-1.2c1.78,0,3.56.85,5.4-.12-1.13-.86-2.44-.71-3.57-1.09a35.66,35.66,0,0,0-3.49-.81l-.28-1.13c2.6.4,5,1.26,7.81.22a20.87,20.87,0,0,0-8-2.07A2.18,2.18,0,0,1,121,269c-.14-.43-.27-.86-.46-1.48a30.91,30.91,0,0,0,8.08,1.08,26.15,26.15,0,0,0-8.6-3.06c-.14-1.38-.29-2.74-.43-4.11l4,2.56a8.41,8.41,0,0,0,0-1.06c-.06-.35-.16-.69-.25-1Z"/><path class="cls-3" d="M129.05,278.78c5.82-.57,11.69-.27,17.55-.31a7.11,7.11,0,0,1,1.21.13,2.5,2.5,0,0,1,.59.27C138.7,280.43,140.17,281.15,129.05,278.78Z"/><path class="cls-6" d="M148.77,177l-.55-.1.08-.2.49.27Z"/><path class="cls-3" d="M163.08,259.73c-.05.07-.1.15,0,0l.06,0Z"/><path class="cls-6" d="M124.86,261l.23.17-.26-.13Z"/><path class="cls-3" d="M123.29,261.91c-.08-.05-.15-.09,0,0-.06-.13,0-.05,0,0Z"/><path class="cls-3" d="M156.57,267.83c0-.07.07-.14,0,0,.11-.06,0,0,0,0Z"/><path class="cls-3" d="M117.06,204.63l-1.56.91,4.31.44c1,.1,1.93.26,2.89.28a4.35,4.35,0,0,0,1.62-.34c.9-.35,1.77-.78,2.69-1.2h2c.95.61.3,1.52.64,2.31a19.16,19.16,0,0,0-5,1.66c-1.55-.1-2.78.87-4.32,1.21-.47,2.45-.81,4.89-1.08,7.52a3.43,3.43,0,0,0,1-.15c2.61-1.39,5.17-2.85,7.82-4.16a43.53,43.53,0,0,1,4.38-1.67,38.79,38.79,0,0,1,3.46,4.84c-1.24,1.31-3,1.61-4.39,2.64-.1,3.82.15,7.69-.49,11.69-.61-1.48-1.17-2.83-1.72-4.18-.06-.14,0-.32-.1-.44a7.26,7.26,0,0,1-.87-4.45,7.16,7.16,0,0,0,0-1.39,4.33,4.33,0,0,0-.54-1l-2.84,3.59c-1.27-.32-2.14-1.59-3.62-2.23h-7.35c.7-1.49,2.07-2.05,3.29-2.88l-.73-2.12c.71-2.68,2-5.29,2.58-8.31-1.72.44-2.73,1.81-4.24,2.3-.93-2.21-.06-4.51-1-6.65a15.65,15.65,0,0,1,1.58-1.14,56.56,56.56,0,0,1,5.25-2.7c1.3-.54,2.47-1.27,3.7-1.92a6,6,0,0,1,3.95-.67c-.3,1.22.91,2.42-.11,3.67l-1.22-.28c-1.54.47-3.24,1-4.92,1.5a14.27,14.27,0,0,0-4,2.42c-.17.13-.23.43-.34.66Z"/><path class="cls-3" d="M160.16,217.78c1.24.79,2.61,1.05,3.06,2.59a15.54,15.54,0,0,1-3.76.17c-1.19,0-2.38,0-3.5,0l-3.48,2.27-3.14-3.75a6.32,6.32,0,0,0-.23,2.47c0,.78,0,1.55,0,2.38-1,2.22-1.74,4.64-3,7.13-.12-4.28-.24-8.23-.35-12.17l-4.08-2.26c0-.25-.07-.68.09-.92,1-1.4,2-2.77,3.1-4.21a31.35,31.35,0,0,1,7.79,3.35c1.41.91,3,1.59,4.44,2.36a6.62,6.62,0,0,0,1,.32l-1-7.49a67.92,67.92,0,0,0-9.18-3v-2.28a5.27,5.27,0,0,1,3.61.52,7.45,7.45,0,0,0,5.91.69A8.8,8.8,0,0,1,159,206c.84-.09,1.68-.22,2.59-.34-.09-.3-.09-.51-.19-.56-1.43-.83-2.68-1.91-4.07-2.79a17.5,17.5,0,0,0-3.75-1.6,9.85,9.85,0,0,0-4.5-.61c-.66-1.32.42-2.43,0-3.61a5.36,5.36,0,0,1,4.15.73c1.93,1,3.8,2.1,5.71,3.13,1.42.77,2.86,1.52,4.48,2.38-.11,2.19-.52,4.49-.68,7l-4.06-2.51c-.41.39-.24.81-.09,1.24.69,2.06,1.31,4.15,2.08,6.18a2.26,2.26,0,0,1-.07,2A8.45,8.45,0,0,0,160.16,217.78Z"/><path class="cls-7" d="M115.19,200.76a3.87,3.87,0,0,1,.36-.59c1.64-2,3.36-3.9,4.91-5.94a3.62,3.62,0,0,1,2.17-1.29q4.43-1.14,8.9-2.13a17.8,17.8,0,0,1,3.34-.38c2-.06,3.94,0,5.91,0a19.56,19.56,0,0,1,5.48.59c3.19.84,6.42,1.52,9.55,2.25,2.19,2.12,5.42,6.11,6,7.55-1.32-.74-2.45-1.36-3.58-2-1.59-.91-3.18-1.85-4.77-2.77a8.25,8.25,0,0,0-3.51-.95c-1.52-.15-3-.41-4.56-.58a13.73,13.73,0,0,0-1.7-.06c-3.37,0-6.74-.07-10.11,0-1.67.05-3.34.4-5,.58-.77.09-1.55.09-2.32.12a8.55,8.55,0,0,0-3.78,1.57c-1.55.88-3.09,1.81-4.62,2.73-.48.29-.91.67-1.38,1s-.76.37-1.15.56Z"/><path class="cls-7" d="M152.28,231.76l-1.56.85-.12,1.74,1.24.3c.22,1.13.5,2.26.63,3.41A5.67,5.67,0,0,0,153,240c.87,1.79,1.7,3.6,2.52,5.36v6.22l-.19.05c-.43-1.29-.85-2.58-1.3-3.87-.61-1.73-1.17-3.47-1.87-5.16A33.09,33.09,0,0,0,150,238a7.26,7.26,0,0,0-2.13-2.18,4.3,4.3,0,0,1-1.6-2.84,1.73,1.73,0,0,1,.52-1.56,21,21,0,0,0,3-6.12,22.23,22.23,0,0,0,.75-3.17l1.22,2.14a5.28,5.28,0,0,0,2.78-1.43,6.93,6.93,0,0,1,4.72-1.41c1.9.05,3.8-.17,5.7-.26a13.11,13.11,0,0,1,1.36.09l-3.06,3.91-3.16-.91a10.34,10.34,0,0,1-4.48,3.81l-3.1-.2a4.08,4.08,0,0,0,1.25,2C153.66,230.82,152.85,231.19,152.28,231.76Zm4.88-8.84-.22-.19-1.17,1.36-1.59-.12-.06.28,2.23.77Z"/><path class="cls-7" d="M123.5,229.89l1.56-2.15c-1.73.25-3.29.79-4.6-.25s-2.27-2.06-3.53-3.21l-2.91.89c-.41-.5-.93-1.12-1.43-1.75l-1.56-2a3.9,3.9,0,0,1,2-.19c1.38.07,2.76.24,4.14.26,4.07.07,2.59-.23,6.28,1.95l1.43.86s.1,0,.27,0c.76-.29.92-1.17,1.5-2.11a20.26,20.26,0,0,0,4.36,10.1,4.9,4.9,0,0,1-2.34,4,5.61,5.61,0,0,0-1.85,2.19,65.31,65.31,0,0,0-4.56,12.12,9.94,9.94,0,0,1-.54,1.2v-6.66c.78-1.66,1.49-3.41,2.39-5.07s.68-3.69,1.38-5.49l1.11-.13v-1.69c-.5-.52-.9-1.16-1.76-1.08h0l-.33-.35Zm-3-7.11-.33.06a7.58,7.58,0,0,0,.86,2.27l2.32-1-.59-.44-1.11.68Z"/><path class="cls-7" d="M153.12,190.72c-.87-.41-1.75-.81-2.6-1.25-1-.51-2-1.07-3-1.59a2.4,2.4,0,0,0-.72-.26c-1.22-.13-2.46-.15-3.66-.37a32.69,32.69,0,0,0-5.23-.28,28.82,28.82,0,0,0-5.63.56,11.16,11.16,0,0,1-2.15,0l-6.28,3.51-.21-.23c.58-.79,1.15-1.58,1.74-2.35a19.39,19.39,0,0,1,1.48-1.78,2.38,2.38,0,0,1,1-.62q3.18-.83,6.36-1.56a5.67,5.67,0,0,1,1.24-.06c1.14,0,2.28.06,3.41,0a24.7,24.7,0,0,1,8.32,1.15c.78.21,1.57.38,2.56.62,1,1.11,2.07,2.33,3.12,3.59.18.21.16.57.24.86Z"/><path class="cls-7" d="M109,227.31a12.54,12.54,0,0,1-1.84-3.73c-.62-1.63,0-3.13.39-4.61a50.82,50.82,0,0,1,1.86-5,14.1,14.1,0,0,1,2-.84,5.69,5.69,0,0,0,2.5-1.4c1.06-.94,2.18-1.81,3.27-2.71l.27.17c-.29.79-.57,1.58-.86,2.36,0,.05-.07.09-.09.13-.93,2.45-2.23,4.54-4.86,5.56a9.52,9.52,0,0,0-2.12,1.58C108.57,221.6,109.12,224.35,109,227.31Z"/><path class="cls-7" d="M160,209.06a17,17,0,0,1,3.62,2.82,4.14,4.14,0,0,0,2.26,1.23,3.38,3.38,0,0,1,2.67,2.46,48.67,48.67,0,0,1,1.63,4.91A5.74,5.74,0,0,1,170,224a9.14,9.14,0,0,1-1.92,3.62c.08-.69.12-1.06.17-1.43a16.42,16.42,0,0,0-.36-6.69,2.23,2.23,0,0,0-1.06-1.41c-1.39-.86-2.76-1.75-4.43-2.82-.67-1.56-1.48-3.42-2.26-5.3a3.68,3.68,0,0,1-.13-.89Z"/><path class="cls-3" d="M152.28,231.76c.57-.57,1.38-.94,1.54-1.85a4.1,4.1,0,0,1,2.66-1.34,3.68,3.68,0,0,0,2.64-1.38c.49-.6,1.06-1.13,1.66-1.75l1.77,1.22L159.7,232l-2.75-.89c-.82,1-1.75,1.93-2.51,3a3.92,3.92,0,0,0-.37,1.75c-.07.7.09,1.43-.56,2.06l-1.22-4.24-1-.07h0Z"/><path class="cls-7" d="M117.06,204.63l.55-.28c.81-.28,1.63-.54,2.42-.84,1.9-.72,3.79-1.48,5.69-2.2a9.43,9.43,0,0,1,4.21-.64c.46,0,.93,0,1.42,0l3.76-3.2a4.84,4.84,0,0,1-.15.89c-.19.47-.46.91-.67,1.38-.52,1.22-1.06,2.44-.46,3.8,0,.11,0,.28-.08.51l-3.46-.54L127,203l-4.81,2h-4.42C117.49,205,117.14,205.09,117.06,204.63Z"/><path class="cls-7" d="M143.23,204.11l.53-2.6a16.93,16.93,0,0,1-1.57-4c1.35,1.14,2.5,2.12,3.66,3.12a.71.71,0,0,0,.27.07c3.44-.39,6.5.91,9.56,2.19a29.18,29.18,0,0,1,3.67,1.83,16.39,16.39,0,0,1-4.23.32l-4.81-2Z"/><path class="cls-3" d="M123.5,229.89l1,1.48.33.35h0c-.19.92.83,1.1,1.09,1.83l-1,.14c-.58.58-.34,1.35-.52,2s-.11,1.36-1,1.7l-.47-3.24L120.25,231l-2.48,1a50.05,50.05,0,0,1-3.07-5.25l1.74-1.29A11.2,11.2,0,0,1,118,227a3.7,3.7,0,0,0,2.83,1.53A4.44,4.44,0,0,1,123.5,229.89Z"/><path class="cls-7" d="M136.18,207.63a15.3,15.3,0,0,1-5.53,3.19,47.87,47.87,0,0,0-9.26,4.32,8.35,8.35,0,0,1-1,.42s-.08,0-.2-.12c.33-1.48.67-3,1-4.62A100.24,100.24,0,0,1,136.18,207.63Z"/><path class="cls-7" d="M156,210.78l1.14,4.81a1.87,1.87,0,0,1-.65-.08c-1.2-.68-2.37-1.41-3.58-2.07a34.73,34.73,0,0,0-6-2.55,21.15,21.15,0,0,1-5.25-2.73,2.5,2.5,0,0,1-.37-.5A111,111,0,0,1,156,210.78Z"/><path class="cls-7" d="M153.17,190.67l.52.13-.09.21-.48-.29Z"/><path class="cls-3" d="M151.26,233.61l-.12.25.14-.24Z"/><path class="cls-7" d="M160,209.05h0c-.08-.14,0-.06,0,0Z"/><path class="cls-7" d="M178.2,177.94c.81,4.93.8,7.55,0,9.6l-.63-.3c-.43,1.39.57,2.66.12,4-1.24,2.42-2,5.13-4.09,7.09-.45-1.09-1-2.2-1.36-3.34a2.8,2.8,0,0,1,0-1.49c.39-1.41.85-2.8,1.34-4.4l-2.29.81c1.13-2.17,1.4-4.36,2.82-6.13S176.77,180,178.2,177.94Z"/><path class="cls-3" d="M176.14,178.88c0,.19,0,.44-.15.57-.87,1-1.73,2-2.65,3a8.24,8.24,0,0,0-1.9,3.43c-.41,1.4-1.05,2.73-1.58,4.09-.23.59-.42,1.2-.69,2,1.23-.08,1.75-1.33,3-1.21-.26.63-.45,1.13-.66,1.63a5,5,0,0,0,.36,4.1c.17.38.46.7,0,1.1-1-.83-2-1.64-3-2.49a2,2,0,0,1-.6-.88,16.59,16.59,0,0,1-1.16-4.62c1-1.86,1.92-3.64,2.83-5.45a6,6,0,0,1,1.77-2.09q1.86-1.46,3.75-2.88a2.56,2.56,0,0,1,.69-.24Z"/><path class="cls-3" d="M176.15,178.9c0-.08.1-.17,0,0,.11-.07,0,0,0,0Z"/><path class="cls-7" d="M164,186l.23.16-.27-.13Z"/><path class="cls-7" d="M105.88,190l-2.1-.9a7.08,7.08,0,0,0,.11.74c.39,1.21.73,2.44,1.19,3.62a2.28,2.28,0,0,1-.13,1.91c-.44,1-.78,2-1.2,3a18.25,18.25,0,0,1-1.84-2.29c-.74-1.28-1.31-2.65-1.94-4a5.86,5.86,0,0,1-.17-3.61c.06-.35.1-.69.17-1.19l-1,.25c-.9-3.1,0-6.18-.2-9.48,1.27.69,1.67,1.78,2.32,2.65s1.3,2,2.06,2.86a8.13,8.13,0,0,1,1.53,3C105,187.61,105.38,188.64,105.88,190Z"/><path class="cls-3" d="M100.89,178.59c1.32.95,2.6,2,4,2.85a9.09,9.09,0,0,1,3.2,4c.56,1.15,1.23,2.23,1.83,3.35a2.28,2.28,0,0,1,.22,1.91c-.33,1-.51,2.06-.84,3.07a3.27,3.27,0,0,1-.77,1.29c-1.12,1.05-2.29,2-3.5,3.08-.18-1.15.49-2,.87-2.91a2.77,2.77,0,0,0,0-2.48,25.59,25.59,0,0,1-.88-2.45l3.09,1.81c-.27-1-.42-1.73-.7-2.45-.4-1-1-2-1.32-3a15.7,15.7,0,0,0-4.07-6.22,2.52,2.52,0,0,1-1-1.8Z"/><path class="cls-3" d="M100.27,178.28l.62.31,0,0-.63-.31Z"/><path class="cls-3" d="M100.28,178.26c-.07,0-.15-.09,0,0-.06-.11,0,0,0,0Z"/><path class="cls-3" d="M157.16,222.92l-.81,2.1-2.23-.77.06-.28,1.59.12,1.17-1.36Z"/><path class="cls-3" d="M120.46,222.78l1.15,1.6,1.11-.68.59.44-2.32,1a7.58,7.58,0,0,1-.86-2.27Z"/><path class="cls-6" d="M124.87,231.72l-.33-.35Z"/></g><polygon id="Bage_Frame" data-name="Bage Frame" class="cls-8" points="138.13 66.02 51.37 75.65 51.37 247.61 138.13 300.16 225.82 247.07 225.82 75.65 138.13 66.02"/><path class="cls-1" d="M104.65,161.18a266.92,266.92,0,0,0-42.2,12.23v-93H78.12l-.37,73.29a194.8,194.8,0,0,1,27-5.56C104.7,153.33,104.68,156,104.65,161.18Z"/><path class="cls-1" d="M142.66,102.83c0-3.28,0-4.92,0-8.2l-1.84-1.55c-4.77,0-7.15,0-11.92,0l-1.84,1.56,0,16.26,1.85,1.51c8.78-.18,13.18-.17,22,0,3.07,2.64,4.6,4,7.67,6.7q.09,16.81.16,33.64c-3.07,2.29-4.61,3.44-7.69,5.81a297.8,297.8,0,0,0-32.18.6c-3.07-2.26-4.6-3.38-7.66-5.59l.1-16.48c6.27-.63,9.42-.85,15.72-1.12,0,3.34,0,5,0,8.34l1.86,1.46c4.82-.2,7.24-.24,12.07-.19l1.86-1.52c0-7.05,0-10.58,0-17.63L140.82,125c-8.76-.06-13.15.06-21.89.56l-7.62-6q.09-16.33.19-32.66c3.06-2.64,4.58-3.93,7.63-6.51h31.58c3,2.56,4.57,3.84,7.63,6.44,0,6.52,0,9.78.07,16.3C152.11,102.92,149,102.87,142.66,102.83Z"/><path class="cls-1" d="M214.74,165.82c-2.93,1.92-4.39,2.86-7.34,4.72-10.25-3.45-20.37-6.69-31-8.66-3.07-3.25-4.61-4.82-7.7-7.87l-.45-73.64h15.54l.48,68.22,1.72,1.88c4.79,1,7.17,1.54,11.91,2.78l1.68-1.17-.36-71.71h15.55Z"/><g id="EST_1964" data-name="EST 1964"><path class="cls-2" d="M64.78,200.74V184.91h7.58v2.56H67.43v3.94h3.66V194H67.43v4.21h4.93v2.56Z"/><path class="cls-2" d="M69.74,210.31v-1.67l-.31-.31h-2l-.32.31v3.29l.32.32h3.7l1.29,1.29v6.75l-1.29,1.29H65.74l-1.29-1.29V217h2.64v1.69l.32.31h2l.31-.31v-3.58l-.31-.31H65.74l-1.29-1.29V207l1.29-1.29h5.37L72.4,207v3.27Z"/><path class="cls-2" d="M72.6,229.14H69.75v13.27H67.1V229.14H64.25v-2.56H72.6Z"/><path class="cls-2" d="M209.55,191.44V180.15h-1.1l.81-2.18h2.55v13.47Z"/><path class="cls-2" d="M213.67,196.79v11.27l-1.1,1.1h-4.52l-1.1-1.1v-2.6h2.23v1.24l.27.26h1.7l.27-.26v-2.91h-3.35L207,202.66v-5.87l1.1-1.1h4.52Zm-2.52,1.1h-1.7l-.27.27v3.19l.27.26h1.7l.27-.26v-3.19Z"/><path class="cls-2" d="M211.45,215.88l-.26-.27h-1.76l-.25.27V219h3.39l1.1,1.1v5.7l-1.1,1.1h-4.52l-1.1-1.1V214.51l1.1-1.1h4.52l1.1,1.1v2.78h-2.22Zm-.26,5.28h-1.76l-.25.26v3l.25.26h1.76l.26-.26v-3Z"/><path class="cls-2" d="M211.26,244.6v-5.46H208l-1.1-1.1v-6.91h2.27v5.57l.27.26h1.87v-5.83h2.25V244.6Z"/></g><path class="cls-2" d="M57.55,62.75l-1.14-9.64.83-1,3.88-.46,1.05.83.27,2.38L60.52,55l-.14-1.21-.25-.2-1.46.17-.2.25.86,7.31.26.2L61,61.37l.2-.25L61.1,59.9,63,59.68l.28,2.38-.83,1-3.88.45Z"/><path class="cls-1" d="M266.18,68.66h29.33v84.25H339v25H266.18Z"/><path class="cls-1" d="M347,156.65v-15h29.33v10c0,2.18.62,2.8,2.8,2.8h20.13c2.18,0,2.81-.62,2.81-2.8v-9.52c0-1.72-.78-2.18-3.28-2.81l-29-8c-15.29-4.22-22.46-6.87-22.46-22.47v-19c0-14.35,6.86-21.22,21.21-21.22H408.3c14.35,0,21.21,6.87,21.21,21.22v13.88H400.18V94.87c0-2.18-.62-2.81-2.8-2.81H379.44c-2.19,0-2.81.63-2.81,2.81v8.42c0,1.72.47,2.19,3.27,3l29,7.8c15.29,4.06,22.47,6.86,22.47,22.46v20.13c0,14.35-6.87,21.22-21.22,21.22h-42C353.85,177.87,347,171,347,156.65Z"/><path class="cls-1" d="M446.83,156.65v-88h29.32v81.13a2.48,2.48,0,0,0,2.81,2.8h20.28a2.48,2.48,0,0,0,2.81-2.8V68.66h29.33v88c0,13.73-7.49,21.22-21.22,21.22H468C454.31,177.87,446.83,170.38,446.83,156.65Z"/><path class="cls-1" d="M265.52,186.15H285L299.45,220l14.44-33.84H333.2v64.36H316.46v-37l-12,29.24H293.94l-12.05-29.24v37H265.52Z"/><path class="cls-1" d="M344.42,186.15h45.24v14.34h-28v10h22.16v14.16H361.7v11.49h28v14.34H344.42Z"/><path class="cls-1" d="M398.85,186.15H416l21.06,34.21V186.15h16.74v64.36H438.48l-22.9-36.87v36.87H398.85Z"/><path class="cls-1" d="M469.83,202.33h-7.08V186.15h17v11.13c0,3.77-1.11,6.16-4.79,9.93L467.35,215h-5.52Z"/><path class="cls-1" d="M486,238v-8.83H503.3v5.89c0,1.28.37,1.65,1.66,1.65h11.86c1.29,0,1.66-.37,1.66-1.65v-5.61c0-1-.46-1.29-1.94-1.66l-17.1-4.69c-9-2.48-13.24-4-13.24-13.24V198.66c0-8.46,4.05-12.51,12.51-12.51h23.44c8.46,0,12.51,4,12.51,12.51v8.18H517.37V201.6c0-1.29-.37-1.66-1.65-1.66H505.14c-1.28,0-1.65.37-1.65,1.66v5c0,1,.27,1.29,1.93,1.75l17.1,4.6c9,2.39,13.24,4,13.24,13.24V238c0,8.46-4,12.5-12.5,12.5H498.52C490.06,250.51,486,246.47,486,238Z"/><path class="cls-2" d="M557.29,96V75.06c0-4.73,2.24-7,7-7H575c4.72,0,7,2.24,7,7v4.42h-4.77V75.21c0-2-.75-2.74-2.74-2.74h-9.7c-1.94,0-2.68.74-2.68,2.74V95.8c0,2,.74,2.73,2.68,2.73h9.7c2,0,2.74-.74,2.74-2.73V91.52H582V96c0,4.57-2.24,7-7,7H564.25C559.53,102.91,557.29,100.52,557.29,96Z"/><path class="cls-2" d="M560,117.84h4.78v30.44h16.51v4.38H560Z"/><path class="cls-2" d="M556.84,195.45V167.59h4.78V195.3c0,2,.74,2.74,2.68,2.74h10c2,0,2.74-.75,2.74-2.74V167.59h4.77v27.86c0,4.72-2.23,7-7,7h-11C559.08,202.41,556.84,200.17,556.84,195.45Z"/><path class="cls-2" d="M557.71,217.34H575c4.73,0,7,2.24,7,7v4.77a5.21,5.21,0,0,1-3.24,5.27,5.08,5.08,0,0,1,3.64,5.33v5.52c0,4.72-2.24,7-7,7H557.71Zm16.77,14.87c2,0,2.73-.74,2.73-2.68v-5.12c0-2-.74-2.74-2.73-2.74h-12v10.54Zm.39,15.62c2,0,2.74-.74,2.74-2.73v-5.92c0-2-.75-2.74-2.74-2.74H562.49v11.39Z"/><path class="cls-1" d="M601.69,215.72V192.81h36.44v20.3c0,3.91,1.3,5.21,5.21,5.21h48.42c3.9,0,5.2-1.3,5.2-5.21V191.25c0-5.73-2.08-7.29-8.85-8.85L639.7,172c-22.91-4.94-37.49-14-37.49-37.48V106.38c0-24.72,11.71-36.44,36.44-36.44h56.23c24.73,0,36.45,11.72,36.45,36.44v20.83H694.88V109c0-3.91-1.3-5.21-5.2-5.21H644.9c-3.9,0-5.2,1.3-5.2,5.21v19.78c0,5.73,2.08,7.29,8.85,8.85L697,148c22.91,4.94,37.49,14.05,37.49,37.48v30.2c0,24.73-11.71,36.44-36.44,36.44H638.13C613.4,252.16,601.69,240.45,601.69,215.72Z"/><path class="cls-1" d="M765.69,215.72V106.38c0-24.72,11.71-36.44,36.44-36.44H869c24.73,0,36.45,11.72,36.45,36.44V215.72c0,24.73-11.72,36.44-36.45,36.44h-66.9C777.4,252.16,765.69,240.45,765.69,215.72Zm97.09,2.08c3.91,0,5.21-1.3,5.21-5.21V109.51c0-3.91-1.3-5.21-5.21-5.21h-54.4c-3.91,0-5.21,1.3-5.21,5.21V212.59c0,3.91,1.3,5.21,5.21,5.21Z"/><path class="cls-1" d="M937.75,215.72V106.38c0-24.72,11.72-36.44,36.45-36.44h60.39c24.73,0,36.45,11.72,36.45,36.44v29.68h-37.49V109.51c0-3.91-1.3-5.21-5.21-5.21H980.45c-3.91,0-5.21,1.3-5.21,5.21V212.59c0,3.91,1.3,5.21,5.21,5.21h47.89c3.91,0,5.21-1.3,5.21-5.21V186H1071v29.68c0,24.73-11.72,36.44-36.45,36.44H974.2C949.47,252.16,937.75,240.45,937.75,215.72Z"/><path class="cls-1" d="M1099.93,215.72V106.38c0-24.72,11.71-36.44,36.44-36.44h60.39c24.74,0,36.45,11.72,36.45,36.44v29.68h-37.49V109.51c0-3.91-1.3-5.21-5.2-5.21h-47.9c-3.91,0-5.21,1.3-5.21,5.21V212.59c0,3.91,1.3,5.21,5.21,5.21h47.9c3.9,0,5.2-1.3,5.2-5.21V186h37.49v29.68c0,24.73-11.71,36.44-36.45,36.44h-60.39C1111.64,252.16,1099.93,240.45,1099.93,215.72Z"/><path class="cls-1" d="M1266.53,69.94h122.6V104.3H1304v37.75h69v33.84h-69V217.8h85.12v34.36h-122.6Z"/><path class="cls-1" d="M1560.42,252.16h-40.35l-30.19-64.3h-30.2v64.3h-37.49V69.94h96.06c24.73,0,36.44,11.72,36.44,36.44v44c0,20.56-8.07,32.28-25.25,35.4ZM1512,154.54c3.91,0,5.21-1.3,5.21-5.2V109c0-3.91-1.3-5.21-5.21-5.21h-52.32v50.76Z"/></g></svg>