<svg xmlns="http://www.w3.org/2000/svg" viewBox="0 0 1600 301.42"><defs><style>.cls-1{fill:#fff;stroke:#461d7c;stroke-miterlimit:10;stroke-width:6.06px;}.cls-2{fill:#fefefe;}.cls-3{fill:#461d7c;}.cls-4{fill:#fdd023;}.cls-5{fill:#ecbf4d;}.cls-6{fill:#4b2781;}</style></defs><title>webBannerArtboard 3</title><g id="Layer_3" data-name="Layer 3"><g id="Layer_2-2" data-name="Layer 2"><g id="Layer_1-2" data-name="Layer 1-2"><polygon id="Bage_Frame" data-name="Bage Frame" class="cls-1" points="132.7 61.23 48.19 70.62 48.19 238.11 132.7 289.3 218.11 237.58 218.11 70.62 132.7 61.23"/><g id="Tiger"><path class="cls-2" d="M87.61,163.4c.16,2,.27,3.75.43,5.45s.38,3.18.53,4.77.19,2.9.33,4.35c.29,3,.6,6,.93,8.95a5.25,5.25,0,0,0,.51,1.69c.77,1.51,1.6,3,2.42,4.52l-4.34,4.47c.35,1.15.7,2.33,1.06,3.56-1.51,2.45-3,4.93-4.54,7.4-1.39,2.26-2.82,4.51-4.2,6.77a3,3,0,0,0-.61,2c.3,2.58.61,5.15.83,7.74.27,3,.47,6,.71,9,0,.23.06.47.12.84,1.41-.41,1.61-2,2.83-2.54.12,2.62.24,5.22.36,7.9l2.22,3.64a20.88,20.88,0,0,0,2.49,3.84c.67-1.32,0-2.65.52-4,1.12,1.36,2.12,2.6,3.15,3.84s2.06,2.47,3.08,3.71a30.19,30.19,0,0,0,3.33,3.85c0-2.25,0-4.14-.14-6.07l3.38,5.23c2.37.63,4.6,1,7,1.75-1.58.53-3,.54-4.17,1.5l5.7.3.32,1.55c-1.42.39-2.76.75-4.1,1.13a2.39,2.39,0,0,0-.5.37l.08.26,5.56-.39c.2.49.38.93.58,1.4-1.55.91-3.3,1.12-4.87,2.25,1.21,0,2.15,0,3.09,0s2-.12,3-.18l.7,1.56c-.65,2.48-.63,2.7.52,4.54l1-1c0,.47,0,.82.06,1.22l1.66,2.22c.25-.66.42-1.13.59-1.59a6.79,6.79,0,0,0,1.06.49c4,1.18,8,2.33,12.06,3.52a2.76,2.76,0,0,0,1.75-.05c1.46-.48,3-.86,4.44-1.31,2.82-.85,5.62-1.73,8.44-2.6h.19c.13.41.25.81.43,1.37a4.64,4.64,0,0,0,1.87-3.3l1.05,1.1,1-2.38c-.19-.75-.39-1.51-.59-2.29l.73-1.51,5.89.38c-1.36-1.3-3.24-1.44-4.73-2.42.24-.46.46-.91.72-1.41l5.51.38c-1.33-1.06-3-1.1-4.5-1.78,0-.5.07-1,.1-1.51l5.9-.41,0-.3-4.12-1c2.24-.82,4.58-1.21,6.87-1.84,1.23-1.69,2.15-3.6,3.71-5.49a26.23,26.23,0,0,0-.23,6.32c3.33-4,6.32-7.78,9.55-11.61a34,34,0,0,0,.27,4.38c2-2.79,3.33-5.49,5-8v-8.06l2.76,3.14a3,3,0,0,0,.24-.59c.2-2.24.41-4.48.61-6.73.12-1.45.21-2.91.35-4.36.21-2.29.45-4.58.67-6.83l-9.39-15.35c.4-1.18.78-2.26,1.15-3.33l-4.43-4.67,2.81-5.18c.81-8.15,1.6-16.2,2.43-24.53-3.82,1-7.47,1.89-11.1,2.86s-7.46,1.83-11,2.69c-1.36-.19-2.55-.36-3.74-.51-1.78-.23-3.57-.43-5.35-.67s-3.76-.57-5.64-.84-4.05-.55-6.07-.87a19.17,19.17,0,0,0-5.66,0c-1.88.26-3.75.56-5.63.81s-3.79.43-5.67.68c-2.87.38-5.76.76-8.61,1.21a4.26,4.26,0,0,1-1.74-.09c-5.27-1.33-10.53-2.69-15.79-4C91.14,164.26,89.49,163.86,87.61,163.4Z"/><path class="cls-3" d="M87.61,163.4c1.88.47,3.53.86,5.15,1.28,5.27,1.34,10.52,2.7,15.79,4a4.26,4.26,0,0,0,1.74.09c2.86-.44,5.74-.82,8.61-1.21,1.89-.24,3.78-.43,5.67-.68s3.75-.55,5.63-.81a19.17,19.17,0,0,1,5.66,0c2,.32,4,.57,6.07.87s3.76.58,5.64.84,3.57.44,5.36.67c1.18.15,2.37.32,3.73.52,3.55-.87,7.29-1.72,11-2.7s7.28-1.89,11.1-2.86c-.82,8.32-1.61,16.38-2.42,24.53l-2.81,5.18,4.39,4.67-1.15,3.33,9.39,15.35c-.22,2.25-.46,4.54-.66,6.83-.14,1.45-.23,2.91-.36,4.36-.19,2.25-.39,4.49-.6,6.74a3.23,3.23,0,0,1-.24.58l-2.76-3.13v8.05c-1.63,2.51-3,5.21-4.95,8a32.34,32.34,0,0,1-.27-4.38c-3.23,3.83-6.23,7.65-9.55,11.61a25.73,25.73,0,0,1,.23-6.32c-1.56,1.89-2.49,3.8-3.71,5.49-2.3.63-4.64,1-6.87,1.84l4.16,1,0,.31-5.9.4c0,.48-.07,1-.11,1.52,1.54.67,3.17.72,4.5,1.77l-5.49-.36-.72,1.4c1.49,1,3.37,1.12,4.73,2.43l-5.89-.39-.73,1.52c.2.77.4,1.54.59,2.29l-1,2.37-1.06-1.1a4.64,4.64,0,0,1-1.87,3.3c-.17-.56-.3-1-.43-1.37H147c-2.81.87-5.62,1.75-8.43,2.61-1.48.45-3,.82-4.45,1.31a2.76,2.76,0,0,1-1.75,0c-4-1.19-8-2.34-12.06-3.51a7.85,7.85,0,0,1-1.06-.49c-.17.45-.34.9-.59,1.58L117,270.55c0-.42,0-.77-.07-1.21l-1,1c-1.15-1.81-1.17-2.05-.52-4.54l-.69-1.56c-1,.07-2,.15-3,.18s-1.9,0-3.1,0c1.58-1.13,3.33-1.35,4.87-2.25-.19-.47-.38-.9-.58-1.4l-5.55.38-.08-.25c.17-.13.3-.32.5-.38,1.33-.38,2.67-.74,4.1-1.13l-.33-1.55-5.69-.3c1.17-1,2.58-1,4.17-1.5-2.43-.71-4.66-1.12-7-1.75l-3.4-5.21c.1,1.93.16,3.82.14,6.07a29.32,29.32,0,0,1-3.34-3.85c-1-1.22-2-2.47-3.07-3.72s-2-2.47-3.15-3.83c-.49,1.32.15,2.65-.52,4a21.61,21.61,0,0,1-2.49-3.84c-.77-1.26-1.52-2.48-2.22-3.64-.12-2.68-.24-5.28-.36-7.9-1.22.55-1.42,2.12-2.84,2.54,0-.37-.09-.61-.11-.84-.24-3-.44-6-.72-9-.23-2.58-.52-5.17-.82-7.74a3.06,3.06,0,0,1,.61-2c1.38-2.26,2.8-4.51,4.2-6.77,1.51-2.47,3-4.95,4.54-7.4-.36-1.23-.72-2.43-1.06-3.56l4.34-4.47c-.82-1.51-1.65-3-2.42-4.52a5.08,5.08,0,0,1-.51-1.69c-.34-3-.65-6-.93-9-.14-1.45-.2-2.9-.34-4.35s-.37-3.17-.52-4.77S87.77,165.42,87.61,163.4Zm30.62,88.65c0-.08-.07-.16,0,0-.12-.08,0,0,0,0,.08.33.19.66.24,1a9,9,0,0,1,0,1l-3.91-2.5.42,4a25.67,25.67,0,0,1,8.38,3,29.46,29.46,0,0,1-7.88-1.05c.19.61.31,1,.44,1.44a1.66,1.66,0,0,0,.25.34,20.52,20.52,0,0,1,7.79,2c-2.73,1-5.08.18-7.61-.22.11.47.19.78.27,1.11,1.14.21,2.28.47,3.4.79s2.37.22,3.47,1c-1.79,1-3.51.16-5.26.13a2.56,2.56,0,0,0,2.08,1.16c1.12.21,2.25.43,3.38.6a6.34,6.34,0,0,0,2.64,0c1-.26,2-.41,2.92-.63s1.7-.42,2.54-.63v-3.86c-.41-.31-.85-.61-1.29-.93-1.48-1.09-3.31-1.37-4.94-2.1a5,5,0,0,1-1.37-.86c-1-.91-1.91-1.94-3-2.82A7.8,7.8,0,0,0,118.23,252.05Zm32.43,5.75c-.61.06-1.2.07-1.78.16-1.59.23-3.16.49-4.74.71a5.79,5.79,0,0,1-1.1-.05c2.59-1.79,5.56-2.37,8.39-3.05.13-1.45.24-2.73.35-4.07-3.21,2.22-3.21,2.22-4.16,2.12l.82-1.93a24.4,24.4,0,0,0-5.71,4.68,7.13,7.13,0,0,1-2.71,1.74c-1.92.68-3.92,1.21-5.39,2.73v3.79a4.45,4.45,0,0,0,.71.3c1.71.36,3.42.71,5.15,1.05a2.81,2.81,0,0,0,1,.13c1.63-.24,3.25-.52,4.88-.81a2.39,2.39,0,0,0,1.73-1.18c-.45.05-.84.1-1.24.13-1,.06-2,.14-3,.15-.26,0-.53-.25-1.11-.54l7-1.65.34-1.13c-1.37.25-2.53.53-3.71.66a5.44,5.44,0,0,1-3.71-.53,21.49,21.49,0,0,1,7.72-1.91c.1-.54.2-1,.29-1.49.07-.05.15-.08,0,0v0Zm7.24-79.65a4.66,4.66,0,0,1-1-.61c-.56-.57-1-1.21-1.57-1.81-1.18-1.36-2.34-2.73-3.56-4.06a3,3,0,0,0-2-1.14c-.78-.05-1.53-.38-2.31-.49-1.47-.22-2.88-.81-4.4-.7l-.47-.27c0,.07-.06.13-.08.19l.53.1a2.43,2.43,0,0,0,.47.54c2.62,1.63,5.24,3.25,7.89,4.85a2.33,2.33,0,0,1,1.07,1.16c.65,1.45,1.36,2.88,2.1,4.3a4.8,4.8,0,0,0,1,1.27c1,1,2.12,1.86,3.15,2.81.76.69,1.48,1.43,2.26,2.19l-1.57,1.4c0,.18-.06.45,0,.58a75.5,75.5,0,0,0,6.26,7.4c.5,1.3,1,2.75,1.63,4.16s1.21,2.73,1.84,4.11l.24,0c.25-1.67.5-3.33.71-4.79a38.94,38.94,0,0,1-2.66-5.18l3,.58c-.73-1.27-2-1.9-2.69-3l6-7.84c-.47-5.1-.93-10-1.38-15l-2.56-1c-2.77,1.21-5.46,2.37-8.13,3.59a13.83,13.83,0,0,0-2.68,1.57,10,10,0,0,0-1.52,1.92c.12,1.05.25,2.14.38,3.22ZM157,249.9c1.66-.91,3.33-1.78,5-2.72a9.45,9.45,0,0,0,1.76-1.39c2.16-2.12,4.29-4.27,6.43-6.4.22-.23.47-.43.94-.85.08,1.1.12,1.89.2,2.67s.21,1.5.37,2.58a27.14,27.14,0,0,0,1.6-3.06c1.09-3,2.1-6,3.15-9a3.18,3.18,0,0,1,.46-.63l.69,1.66a2.69,2.69,0,0,0,.32-1.21c.12-1.7.21-3.41.35-5.11.18-2.19.4-4.38.61-6.58,0-.3,0-.6,0-.91.18-1.79.37-3.58.55-5.4l-8.07-10.8c-.79,1.33-.44,2.89-1.26,4.32l-2.54-2.83-2.1.39a16.16,16.16,0,0,1,3.66,3.9,36.06,36.06,0,0,1,3.08,4.65l-2.13-.91,3.36,8.55c-.44,1.27-.83,2.45-1.24,3.63a13.78,13.78,0,0,1-1.37,3.56l-.74-2.53c-.27,1.15-.45,2-.67,2.78-.37,1.4-.38,2.89-1.12,4.18-1,1.77-2.1,3.51-3.15,5.27a5.07,5.07,0,0,0-.64,1.19,9.47,9.47,0,0,1-1.63,2.59l-.77-.32-1.3,4.63a28.52,28.52,0,0,0-2.43,2.36c-.47.57-1.26.92-1.36,1.78l-.06,0Zm-37.25,1.24.26.13-.23-.16c.11-1.53-.8-2.86-.82-4.42.14-.49.3-1.06.47-1.63a19.53,19.53,0,0,0,1-6,7.88,7.88,0,0,1,.28-2.21,8.22,8.22,0,0,1,.76-1.43c.35-.65.34-.66,1.13-1.1-.14,1.86-.27,3.65-.41,5.4l1.12,2a10.54,10.54,0,0,1-.06,3c-.24.73-1.06,1.26-1.45,1.69-.86,3.31.86,5.64,2.33,8.09l.84-.66,8.21,1.85,8.37-1.82.86.64,2.2-4.11v-4L143.11,245V241.7l1-2a21.62,21.62,0,0,1-.14-2.89c.08-.88-.66-1.69,0-2.64,1,.77,1.18,2,1.73,2.62.15,1.45.36,2.64.37,3.83a11,11,0,0,0,.72,3.94,6.27,6.27,0,0,1,0,4.92,4.4,4.4,0,0,0-.32,1,7.62,7.62,0,0,0,0,1.17,26,26,0,0,1,2.12-1.54,1.6,1.6,0,0,0,.82-1.62c0-.91,0-1.8,0-2.71,1.25-.64,2.38-1.26,3.55-1.81a1.85,1.85,0,0,0,1.07-1.15c.45-1.31,1-2.6,1.49-3.89a8.83,8.83,0,0,1,.77-1.24l1.81,3.28c.38-1.31.67-2.51,1.06-3.67.86-2.52,1.36-5.19,3.12-7.34a9.6,9.6,0,0,0,.91-1.82,18.29,18.29,0,0,1-2.39.61c-.71.07-1.47.66-2.45.07l5.31-3.73c0-1.19,0-2.3,0-3.4a4.57,4.57,0,0,1,.15-1.33c.36-1,.77-2,1.19-3.05.66-1.59,1.14-3.18.35-4.89a3.9,3.9,0,0,1-.18-1,14,14,0,0,0-1.35-5c-.41-.73-.78-1.48-1.19-2.25,1.16-.91,2.65-.61,3.82-1.38-.34-.6-.67-1.15-1-1.72-.77-1.45-1.52-2.9-2.27-4.35a11.29,11.29,0,0,0-2.17-3.38c-1.31-1.21-2.6-2.44-3.92-3.63a4.43,4.43,0,0,1-1.76-2.86,3.24,3.24,0,0,0-.55-1.18c-.82-.72-1.46-1.36-2.19-1.89a13.11,13.11,0,0,1-3.79-4.22c-.78-1.38-1.63-2.72-2.39-4l-8.34-2.14c-1.68-1-3-3-5.09-4-1.14,1-2.28,2-3.39,3a5.27,5.27,0,0,1-2.43,1.35c-2.36.51-4.7,1.21-7.21,1.85l-1.67,2.67a17.58,17.58,0,0,1-3.8,5c-1.1.85-2.12,1.78-3,2.48a13.5,13.5,0,0,1-1.42,3.06,55.75,55.75,0,0,1-4.26,4.3,8.67,8.67,0,0,0-1.72,2c-1,1.77-2.08,3.51-3.09,5.29-.43.76-.77,1.59-1.14,2.37,1.21.85,2.72.47,3.79,1.4-.91,2-2.1,3.72-2.31,5.87a11,11,0,0,1-.35,1.59,7.84,7.84,0,0,0,.36,5.8,12.75,12.75,0,0,1,1.34,7,7.64,7.64,0,0,0,0,.83c3.71,2.26,4.6,3,5.09,4-1.5,0-2.87-1-4.53-.64.13.25.21.43.3.6,1,1.68,2.17,3.22,2.66,5.15.12.48.29.95.42,1.42a18.44,18.44,0,0,1,1,3.89,4.75,4.75,0,0,0,.79,2l1.76-3.68,2.39,5.88,4.43,2c0,1,0,1.92,0,2.82a1.81,1.81,0,0,0,.42,1.21,19.6,19.6,0,0,0,2.26,1.32ZM87,213.56c.19,1.88.41,3.71.56,5.56.24,2.95.44,5.9.66,8.85.14,1.8.28,3.6.42,5.45.51-.74.27-1.69,1-2.43.27.61.53,1.11.71,1.62.93,2.63,1.86,5.27,2.75,7.92a13.26,13.26,0,0,0,1.71,3c.18-1.68.34-3.25.51-4.85.25.07.37.06.42.12,1.76,1.74,3.59,3.42,5.24,5.25a16,16,0,0,0,4.44,3.72c1.55.8,3,1.72,4.56,2.58l.16-.2-4.45-4.85c-.47-1.39-.94-2.75-1.41-4.14l-.81.61c-.28-.44-.5-.77-.7-1.11-1.31-2.31-2.58-4.64-3.93-6.92a11.26,11.26,0,0,1-1.52-3.87c-.25-1.39-.63-2.76-1-4.43l-.77,2.68c-.12-.2-.23-.4-.33-.61-.69-2-1.42-4-2-6.1a2.62,2.62,0,0,1,.2-1.59c.65-1.73,1.37-3.44,2-5.15.29-.72.54-1.45.81-2.19-.78-.22-1.19.72-2,.28,2.08-2.84,3.8-5.86,6.6-8.16L99,204.29c-1.06.71-1.66,2-3,2.5-.34-1.35-.63-2.57-1-4-2.75,3.67-5.35,7.16-8,10.77Zm5.47-30c2.16,2.81,4.33,5.34,6.23,8.15l-2.55,2.6a4,4,0,0,0,1.39-.11,13.36,13.36,0,0,1,1.55,0l-2.78,5.32c.23,1.39.47,2.85.77,4.63,1.26-2.78,2.38-5.26,3.51-7.74a5.1,5.1,0,0,1,.65-1.13c1.44-1.8,2.92-3.56,4.37-5.35.49-.61.94-1.25,1.42-1.89-.63-.61-1.47-.91-1.51-2,1.3-1.11,2.68-2.25,4-3.45a11.1,11.1,0,0,0,2-2.2,36.87,36.87,0,0,0,1.88-3.71c.28-.58.52-1.18.71-1.61l9.51-5.73a8.18,8.18,0,0,0-1.4,0c-1.94.39-3.89.75-5.81,1.21a3.23,3.23,0,0,0-1.71,1.09c-1.67,2-3.43,3.9-5.18,5.82a14.38,14.38,0,0,1-1.06,1l-.26-.11c.19-1.15.39-2.29.58-3.43a5.73,5.73,0,0,1-.8-.91,5.14,5.14,0,0,0-2.58-2.18l-6.79-3.08c-.76-.34-1.54-.64-2.22-.91l-2.24.82c-.59,1.23-.35,2.47-.52,3.64a42.35,42.35,0,0,0-.58,6.25,20.38,20.38,0,0,1-.26,2.22c-.12.95-.24,1.88-.35,2.79Zm31.35,84.9c10.84,2.31,9.41,1.61,18.85.09a3,3,0,0,0-.57-.27,6.75,6.75,0,0,0-1.18-.12C135.24,268.2,129.52,267.92,123.85,268.47Z"/><path class="cls-4" d="M119.74,251.15a19.91,19.91,0,0,1-2.26-1.36,1.8,1.8,0,0,1-.42-1.21c-.06-.91,0-1.82,0-2.82l-4.43-2-2.39-5.88-1.76,3.68a4.7,4.7,0,0,1-.79-2,17.3,17.3,0,0,0-1-3.89c-.13-.47-.31-.94-.42-1.42-.49-1.92-1.7-3.46-2.66-5.15-.09-.16-.17-.34-.3-.6,1.66-.38,3,.6,4.53.64-.49-1-1.38-1.75-5.09-4,0-.24,0-.54,0-.83a12.75,12.75,0,0,0-1.34-7,7.84,7.84,0,0,1-.36-5.8,11,11,0,0,0,.35-1.59c.21-2.15,1.38-3.91,2.31-5.87-1.07-.93-2.59-.55-3.79-1.4.37-.78.71-1.61,1.14-2.37,1-1.78,2.08-3.52,3.09-5.29a8.89,8.89,0,0,1,1.72-2,55.75,55.75,0,0,0,4.26-4.3,13.5,13.5,0,0,0,1.42-3.06c.82-.69,1.85-1.63,3-2.48,1.71-1.33,2.69-3.19,3.8-5l1.67-2.68c2.51-.66,4.85-1.34,7.21-1.85a5.18,5.18,0,0,0,2.43-1.35c1.11-1,2.25-2,3.39-3,2.13,1,3.41,3,5.09,4l8.34,2.14c.76,1.26,1.61,2.61,2.39,4a13.11,13.11,0,0,0,3.79,4.22c.73.53,1.37,1.17,2.19,1.89a3.32,3.32,0,0,1,.55,1.18,4.44,4.44,0,0,0,1.76,2.86c1.32,1.21,2.61,2.42,3.92,3.63a11.36,11.36,0,0,1,2.17,3.38q1.13,2.19,2.27,4.35c.3.57.62,1.13,1,1.72-1.17.77-2.66.47-3.82,1.38.41.77.78,1.51,1.19,2.25a14,14,0,0,1,1.35,5,3.9,3.9,0,0,0,.18,1c.79,1.71.3,3.3-.35,4.89-.42,1-.83,2-1.19,3.05a4.57,4.57,0,0,0-.15,1.33c0,1.1,0,2.21,0,3.4l-5.32,3.73c1,.58,1.72,0,2.46-.08a17.23,17.23,0,0,0,2.38-.6,9.2,9.2,0,0,1-.9,1.81c-1.77,2.15-2.27,4.83-3.13,7.35-.39,1.16-.68,2.36-1,3.67l-1.82-3.28a9.87,9.87,0,0,0-.77,1.24c-.52,1.29-1,2.58-1.49,3.89a1.85,1.85,0,0,1-1.07,1.15c-1.17.55-2.3,1.17-3.54,1.81v2.71a1.68,1.68,0,0,1-.83,1.62c-.65.39-1.28.91-2.12,1.53a7.62,7.62,0,0,1,0-1.17,4.68,4.68,0,0,1,.32-1,6.27,6.27,0,0,0,0-4.92,11.05,11.05,0,0,1-.73-3.94c0-1.19-.22-2.38-.36-3.83-.55-.64-.72-1.85-1.74-2.63-.61,1,.12,1.8.05,2.65a23.51,23.51,0,0,0,.13,2.89l-1,2V245l1.47,1.27v4l-2.18,4.17-.87-.65-8.37,1.82-8.21-1.85-.83.66c-1.47-2.45-3.2-4.78-2.34-8.09.39-.43,1.22-1,1.45-1.69a10.51,10.51,0,0,0,.07-3l-1.12-2c.13-1.75.26-3.54.4-5.4-.79.44-.78.45-1.13,1.1a7.56,7.56,0,0,0-.76,1.43,7.88,7.88,0,0,0-.28,2.21,19.56,19.56,0,0,1-1,6c-.17.57-.34,1.14-.48,1.63,0,1.56.93,2.89.82,4.42Zm25.74-26.68,1,.07c.41,1.46.79,2.77,1.18,4.13.64-.6.48-1.33.55-2a3.77,3.77,0,0,1,.36-1.71c.74-1.06,1.64-2,2.42-2.94l2.68.87,2.78-5.18-1.72-1.19c-.58.61-1.14,1.12-1.62,1.7a3.57,3.57,0,0,1-2.57,1.35,4,4,0,0,0-2.59,1.3,4,4,0,0,1-1.21-2l3,.19a10.09,10.09,0,0,0,4.37-3.72l3.08.89,3-3.8a12.62,12.62,0,0,0-1.33-.09c-1.85.08-3.7.3-5.55.25a6.77,6.77,0,0,0-4.6,1.37,5,5,0,0,1-2.71,1.4l-1.18-2.08a22.36,22.36,0,0,1-.74,3.08,20,20,0,0,1-2.95,6,1.7,1.7,0,0,0-.5,1.52,4.16,4.16,0,0,0,1.55,2.77,6.9,6.9,0,0,1,2.08,2.12,33.08,33.08,0,0,1,2.12,4.41c.68,1.65,1.23,3.33,1.82,5,.43,1.26.85,2.52,1.27,3.78l.19,0v-6.06c-.8-1.71-1.61-3.48-2.46-5.22a5.61,5.61,0,0,1-.56-1.84c-.13-1.12-.4-2.22-.6-3.33l-1.21-.3c0-.58.07-1.07.11-1.7l1.51-.83-1,1.82-.14.22a.67.67,0,0,0,.13-.22ZM154,200.55c0-.08-.09-.15,0,0h0a3.74,3.74,0,0,0,.13.87c.76,1.81,1.55,3.63,2.2,5.14,1.63,1.05,3,1.92,4.32,2.75a2.22,2.22,0,0,1,1,1.38,16.06,16.06,0,0,1,.35,6.51c-.05.36-.09.73-.16,1.4a9.1,9.1,0,0,0,1.86-3.53,5.6,5.6,0,0,0,.18-3.41,46.78,46.78,0,0,0-1.59-4.77,3.33,3.33,0,0,0-2.6-2.4,4,4,0,0,1-2.2-1.21,16.78,16.78,0,0,0-3.5-2.72Zm-6.66-17.86.46.28.09-.2-.5-.13c-.08-.28-.07-.64-.23-.84-1-1.21-2.1-2.42-3.05-3.5-1-.23-1.73-.39-2.49-.61a24.15,24.15,0,0,0-8.1-1.11c-1.11.08-2.22,0-3.33,0a5.52,5.52,0,0,0-1.22.05c-2.06.49-4.13,1-6.19,1.52a2.37,2.37,0,0,0-1,.6,19.59,19.59,0,0,0-1.43,1.73c-.58.75-1.14,1.53-1.71,2.29l.22.23,6.12-3.41a10.64,10.64,0,0,0,2.1,0,28,28,0,0,1,5.49-.55,32,32,0,0,1,5.08.28c1.18.21,2.38.23,3.57.36a2.17,2.17,0,0,1,.7.25c1,.51,1.92,1.05,2.89,1.55s1.7.83,2.54,1.23Zm-27.5,39.93c.84-.07,1.23.55,1.72,1v1.65l-1.09.13c-.68,1.75-.43,3.68-1.34,5.34s-1.57,3.34-2.33,4.94v6.49a8.75,8.75,0,0,0,.53-1.17,63,63,0,0,1,4.44-11.82,5.46,5.46,0,0,1,1.81-2.12,4.77,4.77,0,0,0,2.27-3.93,19.69,19.69,0,0,1-4.24-9.84c-.56.91-.73,1.77-1.46,2.06-.17,0-.23,0-.26,0-.47-.28-.93-.57-1.4-.84-3.6-2.12-2.15-1.82-6.11-1.9-1.35,0-2.7-.18-4-.25a3.78,3.78,0,0,0-2,.18c.55.72,1,1.35,1.51,2s1,1.21,1.4,1.72l2.83-.88c1.21,1.13,2.27,2.2,3.43,3.13s2.8.49,4.49.25l-1.52,2.09a4.34,4.34,0,0,0-2.58-1.29,3.61,3.61,0,0,1-2.76-1.5,11.17,11.17,0,0,0-1.54-1.54l-1.69,1.26a44.93,44.93,0,0,0,3,5.11l2.42-.92,2.68,3c.13.93.3,2,.45,3.16.88-.34.84-1.09,1-1.65s-.06-1.4.51-2l1-.14C120.61,223.69,119.61,223.53,119.8,222.62Zm-7.62-26.35c.07.44.42.35.7.35h4.3l4.69-1.91,3.19.46,3.37.53c0-.23.13-.4.08-.5-.59-1.33-.06-2.52.45-3.7.2-.46.46-.89.66-1.35a4.16,4.16,0,0,0,.13-.86l-3.65,3.12c-.49,0-.94,0-1.39,0a9.1,9.1,0,0,0-4.1.62c-1.85.7-3.69,1.44-5.54,2.14-.77.31-1.57.55-2.35.82.1-.22.15-.51.33-.64A13.29,13.29,0,0,1,117,193c1.64-.54,3.29-1,4.79-1.47l1.19.28c1-1.21-.18-2.39.11-3.58a5.8,5.8,0,0,0-3.85.66c-1.2.63-2.33,1.34-3.6,1.86a53.86,53.86,0,0,0-5.12,2.64,12.9,12.9,0,0,0-1.53,1.1c.93,2.09.08,4.33,1,6.49,1.46-.48,2.45-1.82,4.12-2.25-.59,2.94-1.82,5.48-2.5,8.09l.7,2.07c-1.18.81-2.51,1.35-3.2,2.81h7.16c1.44.6,2.28,1.85,3.53,2.17l2.76-3.5a4.14,4.14,0,0,1,.53,1,6.87,6.87,0,0,1,0,1.36,7.16,7.16,0,0,0,.85,4.33c.08.12,0,.3.1.43.53,1.32,1.08,2.63,1.68,4.07.61-3.9.38-7.66.47-11.38,1.35-1,3.07-1.3,4.28-2.58a37.33,37.33,0,0,0-3.37-4.71,44.83,44.83,0,0,0-4.27,1.62c-2.57,1.28-5.07,2.71-7.61,4a3.37,3.37,0,0,1-.94.16c.26-2.57.61-4.94,1.06-7.33,1.49-.33,2.69-1.27,4.2-1.17a18,18,0,0,1,4.88-1.62c-.32-.77.3-1.66-.61-2.26h-1.9c-.91.41-1.74.83-2.62,1.17a4.3,4.3,0,0,1-1.58.33c-.94,0-1.87-.17-2.81-.26-1.27-.14-2.55-.26-4.21-.43Zm42,12.81a8.26,8.26,0,0,1,.4-1.12,2.19,2.19,0,0,0,.07-2c-.75-2-1.35-4-2-6-.14-.43-.3-.83.09-1.21l4,2.42c.16-2.46.56-4.7.66-6.84-1.57-.84-3-1.56-4.36-2.31-1.86-1-3.69-2.08-5.56-3a5.16,5.16,0,0,0-4-.72c.43,1.15-.62,2.23,0,3.52a9.5,9.5,0,0,1,4.38.59,17.3,17.3,0,0,1,3.65,1.56c1.35.86,2.57,1.91,4,2.72.09.05.09.26.18.55-.88.12-1.7.25-2.53.33a9.41,9.41,0,0,0-1.51,0,7.3,7.3,0,0,1-5.76-.67,5.16,5.16,0,0,0-3.51-.51v2.22a65.07,65.07,0,0,1,8.94,2.87c.33,2.48.64,4.81,1,7.3a8.1,8.1,0,0,1-1-.3,48.43,48.43,0,0,1-4.33-2.31,31,31,0,0,0-7.59-3.25c-1,1.4-2.06,2.72-3,4.1-.17.23-.08.64-.1.9l4,2.2c.11,3.84.22,7.69.34,11.86,1.24-2.43,1.9-4.79,2.93-6.95,0-.8,0-1.56,0-2.31a6.26,6.26,0,0,1,.23-2.43l3.06,3.66,3.38-2.21c1.1,0,2.26,0,3.42,0a15.28,15.28,0,0,0,3.66-.17c-.43-1.52-1.77-1.77-3-2.54Zm-43.8-16.6.15.2c.38-.16.75-.34,1.12-.54s.88-.66,1.35-.95c1.49-.91,3-1.81,4.5-2.66a8.34,8.34,0,0,1,3.67-1.53c.76,0,1.52,0,2.26-.11,1.63-.17,3.26-.52,4.89-.56,3.28-.09,6.56,0,9.84,0a15.35,15.35,0,0,1,1.66.06c1.48.17,3,.43,4.44.56a8.12,8.12,0,0,1,3.42.93c1.55.91,3.09,1.81,4.65,2.7,1.09.63,2.2,1.24,3.48,2-.58-1.4-3.73-5.29-5.86-7.35-3-.71-6.2-1.38-9.3-2.2a19.27,19.27,0,0,0-5.34-.57c-1.92,0-3.84,0-5.76,0a17.8,17.8,0,0,0-3.25.38q-4.35,1-8.67,2.08a3.57,3.57,0,0,0-2.12,1.25c-1.51,2-3.19,3.86-4.79,5.78C110.57,192.09,110.45,192.28,110.35,192.48Zm-6.08,25.85c.18-2.88-.36-5.55.56-8.26a9.33,9.33,0,0,1,2.07-1.53c2.56-1,3.82-3,4.73-5.41,0,0,.07-.08.09-.13.28-.76.56-1.53.83-2.3l-.25-.17c-1.07.88-2.16,1.73-3.2,2.64a5.42,5.42,0,0,1-2.42,1.37,12.82,12.82,0,0,0-2,.82c-.6,1.61-1.36,3.19-1.81,4.84-.39,1.44-1,2.91-.39,4.5A12.48,12.48,0,0,0,104.27,218.33Zm33.4-22.58,6.89-1.06,4.69,1.92a16.39,16.39,0,0,0,4.11-.31,29,29,0,0,0-3.57-1.78c-3-1.24-6-2.51-9.31-2.12a.77.77,0,0,1-.26-.07l-3.57-3a17,17,0,0,0,1.52,3.94c-.14.72-.3,1.49-.5,2.51Zm-6.87,3.42a97.93,97.93,0,0,0-14.54,3.11l-1,4.5c.12.08.17.13.2.12.32-.12.64-.26,1-.41a46.19,46.19,0,0,1,9-4.21A15.09,15.09,0,0,0,130.8,199.17Zm19.26,3.07a105.52,105.52,0,0,0-14.35-3c.19.26.25.41.36.48a20.4,20.4,0,0,0,5.11,2.67,32.87,32.87,0,0,1,5.87,2.47c1.18.65,2.32,1.36,3.49,2a1.91,1.91,0,0,0,.63.08Z"/><path class="cls-2" d="M157,249.94c.09-.86.88-1.21,1.36-1.79a30,30,0,0,1,2.42-2.36l1.3-4.63.78.33a9.77,9.77,0,0,0,1.63-2.6,4.78,4.78,0,0,1,.63-1.18c1-1.76,2.13-3.5,3.15-5.28.74-1.28.75-2.78,1.13-4.17.22-.81.39-1.63.66-2.79l.74,2.53a13.69,13.69,0,0,0,1.37-3.55c.39-1.14.81-2.36,1.24-3.64l-3.36-8.55,2.14.91a36.78,36.78,0,0,0-3.09-4.65,16.51,16.51,0,0,0-3.65-3.9l2.09-.38,2.54,2.82c.82-1.43.47-3,1.26-4.31l8.07,10.78c-.18,1.82-.37,3.61-.55,5.4,0,.3,0,.61,0,.91-.2,2.2-.42,4.38-.61,6.58-.14,1.7-.23,3.4-.35,5.1a2.74,2.74,0,0,1-.32,1.22l-.69-1.66a3.18,3.18,0,0,0-.46.63c-1,3-2.06,6-3.15,9a28.07,28.07,0,0,1-1.6,3.07c-.16-1.08-.3-1.82-.37-2.58s-.12-1.57-.2-2.67c-.47.42-.72.61-.94.84-2.14,2.12-4.27,4.29-6.43,6.41a9.4,9.4,0,0,1-1.76,1.38c-1.63.95-3.31,1.82-5,2.73Z"/><path class="cls-2" d="M87,213.57l8-10.8,1,4c1.34-.51,1.94-1.79,3-2.51l1.76.35c-2.8,2.3-4.52,5.32-6.6,8.15.81.45,1.21-.49,2-.28-.28.74-.53,1.47-.81,2.2-.68,1.72-1.41,3.42-2.05,5.14a2.7,2.7,0,0,0-.2,1.59c.61,2.06,1.35,4.08,2,6.11.1.2.21.41.33.6.29-1,.48-1.69.76-2.67.39,1.67.78,3,1,4.43a11.32,11.32,0,0,0,1.51,3.87c1.36,2.27,2.63,4.61,3.94,6.92.19.34.42.67.7,1.1l.81-.6,1.41,4.14,4.44,4.87-.16.2c-1.51-.86-3-1.78-4.56-2.58a15.71,15.71,0,0,1-4.44-3.72c-1.65-1.83-3.48-3.51-5.24-5.25,0-.06-.17-.05-.42-.12-.17,1.59-.33,3.16-.51,4.85a12.66,12.66,0,0,1-1.71-3c-.91-2.65-1.82-5.29-2.75-7.92-.18-.51-.44-1-.71-1.62-.68.74-.44,1.69-1,2.43-.14-1.87-.28-3.67-.42-5.45-.22-2.95-.42-5.9-.66-8.85C87.43,217.29,87.21,215.45,87,213.57Z"/><path class="cls-4" d="M143.08,169.35c1.52-.11,2.93.49,4.4.7.78.12,1.53.44,2.31.5a2.9,2.9,0,0,1,2,1.14c1.22,1.33,2.38,2.69,3.56,4.05.53.61,1,1.24,1.57,1.82a4.61,4.61,0,0,0,1,.6l.26.13-.23-.16c-.13-1.09-.25-2.17-.37-3.22a9.94,9.94,0,0,1,1.51-1.92,13.45,13.45,0,0,1,2.7-1.56c2.66-1.21,5.36-2.38,8.13-3.6l2.56,1c.45,4.93.91,9.88,1.38,15l-6.06,7.83c.74,1.15,2,1.78,2.7,3l-3-.57a37.79,37.79,0,0,0,2.66,5.18c-.22,1.45-.46,3.12-.72,4.78l-.24.06c-.6-1.37-1.26-2.73-1.84-4.11s-1.12-2.86-1.62-4.16c-2.45-2.29-4.24-5-6.28-7.4-.1-.13,0-.4,0-.58l1.58-1.4c-.78-.76-1.52-1.5-2.27-2.19-1-.95-2.12-1.85-3.15-2.81a5,5,0,0,1-1-1.27c-.74-1.42-1.46-2.85-2.1-4.3a2.42,2.42,0,0,0-1.07-1.16q-4-2.38-7.9-4.85a2.39,2.39,0,0,1-.46-.54Zm26.65,1.84a2.07,2.07,0,0,0-.67.24c-1.23.9-2.45,1.85-3.66,2.8a5.88,5.88,0,0,0-1.72,2.05c-.88,1.76-1.82,3.49-2.76,5.3a15.76,15.76,0,0,0,1.14,4.5,2,2,0,0,0,.57.86c1,.83,2,1.61,2.94,2.42.43-.39.15-.7,0-1.07a4.85,4.85,0,0,1-.35-4l.64-1.59c-1.21-.12-1.71,1.1-2.91,1.18.26-.75.44-1.33.67-1.91.51-1.33,1.13-2.62,1.54-4a8.1,8.1,0,0,1,1.84-3.33c.91-.94,1.74-1.93,2.59-2.92.11-.13.1-.37.14-.55l0,0C169.82,171,169.78,171.1,169.73,171.19Zm2-.94c-1.39,2-2.56,3.92-3.95,5.66s-1.65,3.85-2.75,6l2.22-.78c-.47,1.55-.92,2.91-1.3,4.28a2.65,2.65,0,0,0,0,1.45c.37,1.11.87,2.19,1.32,3.26,2-1.92,2.77-4.55,4-6.91.44-1.28-.54-2.51-.11-3.87l.6.3c.81-2,.82-4.54,0-9.36Z"/><path class="cls-4" d="M92.49,183.6c.11-.91.23-1.84.34-2.78a20.51,20.51,0,0,0,.27-2.21,42.48,42.48,0,0,1,.57-6.27c.18-1.17-.06-2.41.52-3.63l2.25-.83c.67.28,1.46.58,2.22.91,2.26,1,4.52,2.07,6.79,3.08a5.19,5.19,0,0,1,2.58,2.18,5.33,5.33,0,0,0,.8.91c-.19,1.15-.39,2.29-.58,3.43l.26.11c.35-.33.73-.64,1.06-1,1.74-1.93,3.51-3.83,5.18-5.82a3,3,0,0,1,1.71-1.09c1.92-.47,3.87-.84,5.81-1.22a10.75,10.75,0,0,1,1.39,0l-9.5,5.73c-.19.43-.43,1-.71,1.61a35.84,35.84,0,0,1-1.88,3.71,11.46,11.46,0,0,1-2,2.2c-1.32,1.21-2.7,2.34-4,3.46,0,1,.88,1.37,1.52,2-.48.64-.93,1.28-1.42,1.89-1.46,1.79-2.93,3.56-4.38,5.35a5.3,5.3,0,0,0-.64,1.14c-1.13,2.47-2.25,4.95-3.51,7.73-.31-1.78-.54-3.24-.77-4.63l2.78-5.32a13.36,13.36,0,0,0-1.55,0,3.64,3.64,0,0,1-1.39.11l2.55-2.6C96.82,188.93,94.65,186.4,92.49,183.6Zm3.33-13c0-.07-.08-.14,0,0-.11-.06,0,0,0,0l.61.3a2.5,2.5,0,0,0,1,1.76,15.29,15.29,0,0,1,4,6.06c.34,1,.91,2,1.29,3,.27.7.41,1.44.68,2.39l-3-1.77a25.12,25.12,0,0,0,.85,2.39,2.71,2.71,0,0,1,0,2.42c-.37.88-1,1.71-.86,2.84,1.18-1,2.33-2,3.41-3a3.1,3.1,0,0,0,.76-1.25c.31-1,.49-2,.81-3a2.25,2.25,0,0,0-.21-1.86c-.59-1.09-1.24-2.14-1.78-3.26a9,9,0,0,0-3.12-3.88c-1.33-.86-2.58-1.85-3.86-2.78ZM101.28,182c-.49-1.31-.88-2.31-1.22-3.33a7.92,7.92,0,0,0-1.49-2.88c-.75-.86-1.32-1.88-2-2.79s-1-1.91-2.26-2.58c.14,3.21-.69,6.22.19,9.24l1-.26c-.07.49-.1.83-.16,1.16a5.76,5.76,0,0,0,.16,3.53c.61,1.31,1.17,2.65,1.89,3.89a16.49,16.49,0,0,0,1.79,2.23c.41-1.05.75-2,1.17-3a2.24,2.24,0,0,0,.13-1.86c-.44-1.15-.78-2.35-1.16-3.53a6,6,0,0,1-.11-.72Z"/><path class="cls-2" d="M150.64,257.79c-.09.48-.19,1-.29,1.49a21.71,21.71,0,0,0-7.72,1.92,5.41,5.41,0,0,0,3.71.53c1.2-.14,2.34-.41,3.71-.66l-.37,1.15-6.94,1.66c.57.3.84.54,1.1.54,1,0,2-.09,3-.16.4,0,.79-.08,1.25-.12a2.42,2.42,0,0,1-1.74,1.18c-1.62.28-3.25.56-4.88.81a3.06,3.06,0,0,1-1-.13c-1.72-.35-3.43-.69-5.15-1.06a4.87,4.87,0,0,1-.71-.3v-3.79c1.47-1.51,3.48-2.05,5.39-2.72a7.37,7.37,0,0,0,2.72-1.74,25.14,25.14,0,0,1,5.73-4.7l-.8,1.93c.94.09.94.09,4.16-2.12-.11,1.33-.23,2.62-.35,4.06-2.84.69-5.8,1.27-8.39,3.05a5,5,0,0,0,1.09.06c1.58-.22,3.16-.49,4.74-.71.59-.09,1.19-.11,1.78-.16Z"/><path class="cls-2" d="M118.23,252.05a7.83,7.83,0,0,1,3,2.08c1,.88,1.94,1.91,2.94,2.82a5.17,5.17,0,0,0,1.37.86c1.64.73,3.46,1,4.94,2.1.44.33.89.64,1.3.93v3.88c-.84.21-1.69.44-2.55.63s-2,.37-2.92.63a6.3,6.3,0,0,1-2.63,0c-1.14-.16-2.26-.38-3.39-.6a2.53,2.53,0,0,1-2.07-1.16c1.74,0,3.47.82,5.26-.13-1.1-.83-2.37-.68-3.48-1.05a33.09,33.09,0,0,0-3.41-.8c-.08-.33-.15-.63-.26-1.11,2.52.4,4.89,1.23,7.6.22a20.61,20.61,0,0,0-7.79-2A2.08,2.08,0,0,1,116,259c-.14-.41-.25-.83-.44-1.44a29.3,29.3,0,0,0,7.88,1.05,25.9,25.9,0,0,0-8.38-3l-.42-4,3.9,2.5a6,6,0,0,0,0-1,8.56,8.56,0,0,0-.24-1Z"/><path class="cls-2" d="M123.85,268.47c5.67-.55,11.39-.27,17.1-.3a6.75,6.75,0,0,1,1.18.12,3,3,0,0,1,.57.27C133.26,270.08,134.69,270.77,123.85,268.47Z"/><path class="cls-5" d="M143.06,169.37l-.53-.09a1.67,1.67,0,0,1,.08-.2l.47.27Z"/><path class="cls-2" d="M157,249.91l0,.06.07,0Z"/><path class="cls-5" d="M119.77,251.12l.23.16-.26-.13Z"/><path class="cls-2" d="M118.25,252c-.08,0-.16-.09,0,0-.06-.14,0-.06,0,0Z"/><path class="cls-2" d="M150.66,257.81c0-.07.07-.14,0,0,.12-.06,0,0,0,0Z"/><path class="cls-2" d="M112.18,196.27l-1.52.88,4.21.43c.94.1,1.87.25,2.81.27a4.25,4.25,0,0,0,1.58-.33c.88-.34,1.72-.76,2.62-1.17h1.9c.93.61.3,1.48.61,2.25a18.67,18.67,0,0,0-4.88,1.62c-1.52-.1-2.71.84-4.2,1.18-.47,2.38-.8,4.76-1.06,7.32a3.36,3.36,0,0,0,.94-.15c2.54-1.35,5-2.77,7.61-4,1.32-.65,2.76-1.06,4.27-1.63a38.18,38.18,0,0,1,3.37,4.72c-1.21,1.28-2.93,1.57-4.28,2.57-.09,3.72.15,7.49-.47,11.39-.61-1.45-1.14-2.75-1.68-4.07-.06-.14,0-.3-.09-.43a7.18,7.18,0,0,1-.86-4.33,6.87,6.87,0,0,0,0-1.36,4.44,4.44,0,0,0-.52-1l-2.77,3.5c-1.24-.3-2.09-1.55-3.53-2.16h-7.16c.69-1.46,2-2,3.21-2.81l-.71-2.07c.69-2.61,1.91-5.15,2.51-8.09-1.68.43-2.66,1.76-4.13,2.24-.91-2.15-.06-4.4-1-6.48a16.54,16.54,0,0,1,1.53-1.11,56.19,56.19,0,0,1,5.12-2.63c1.27-.53,2.41-1.23,3.6-1.86a5.77,5.77,0,0,1,3.86-.66c-.31,1.19.88,2.35-.11,3.58l-1.2-.28c-1.5.46-3.15.93-4.78,1.47a13.73,13.73,0,0,0-3.94,2.35c-.17.13-.22.42-.33.64Z"/><path class="cls-2" d="M154.15,209.06c1.22.77,2.55,1,3,2.52a15.26,15.26,0,0,1-3.66.17c-1.18,0-2.32,0-3.42,0L146.68,214l-3.06-3.66a6.49,6.49,0,0,0-.23,2.43c0,.73,0,1.51,0,2.31-1,2.16-1.69,4.52-2.93,7-.12-4.17-.23-8-.34-11.85l-4-2.2c0-.25-.07-.66.1-.91.95-1.37,2-2.7,3-4.1a30.27,30.27,0,0,1,7.59,3.26c1.37.88,2.87,1.55,4.32,2.3a7.17,7.17,0,0,0,1,.3c-.34-2.49-.65-4.82-1-7.3a65.55,65.55,0,0,0-8.94-2.88v-2.22a5.1,5.1,0,0,1,3.51.5,7.26,7.26,0,0,0,5.76.67,9.41,9.41,0,0,1,1.51-.05c.83-.08,1.65-.21,2.53-.33-.09-.3-.09-.49-.18-.54-1.4-.81-2.62-1.86-4-2.73a17.3,17.3,0,0,0-3.65-1.56,9.78,9.78,0,0,0-4.38-.59c-.65-1.28.4-2.36,0-3.51a5.17,5.17,0,0,1,4,.71c1.88,1,3.71,2,5.57,3,1.39.75,2.79,1.48,4.36,2.32-.1,2.14-.51,4.38-.66,6.84l-4-2.43c-.39.38-.23.78-.09,1.21.68,2,1.28,4,2,6a2.2,2.2,0,0,1-.07,2A9.1,9.1,0,0,0,154.15,209.06Z"/><path class="cls-6" d="M110.35,192.48a5,5,0,0,1,.35-.58c1.6-1.92,3.27-3.79,4.79-5.78a3.46,3.46,0,0,1,2.12-1.25q4.31-1.12,8.66-2.08a17.8,17.8,0,0,1,3.26-.38c1.91,0,3.83,0,5.75,0a19.19,19.19,0,0,1,5.34.57c3.11.82,6.26,1.49,9.3,2.2,2.14,2.06,5.29,6,5.87,7.35-1.28-.72-2.39-1.33-3.49-2-1.55-.89-3.09-1.81-4.64-2.7a8.31,8.31,0,0,0-3.42-.93c-1.49-.13-3-.39-4.44-.56a15.35,15.35,0,0,0-1.66-.06c-3.28,0-6.57-.06-9.85,0-1.63,0-3.25.39-4.88.56-.75.08-1.51.08-2.26.11a8.38,8.38,0,0,0-3.68,1.53c-1.51.86-3,1.76-4.5,2.66-.46.29-.88.66-1.35.95a11.37,11.37,0,0,1-1.11.54Z"/><path class="cls-6" d="M146.48,222.67l-1.51.83c0,.62-.08,1.12-.11,1.7l1.21.3c.21,1.09.48,2.2.6,3.33a5.69,5.69,0,0,0,.56,1.84c.85,1.74,1.65,3.51,2.46,5.22V242l-.19,0c-.43-1.26-.84-2.52-1.27-3.77-.59-1.68-1.14-3.38-1.82-5a33.73,33.73,0,0,0-2.12-4.41,6.9,6.9,0,0,0-2.08-2.12,4.16,4.16,0,0,1-1.55-2.78,1.66,1.66,0,0,1,.5-1.51,20.17,20.17,0,0,0,3-6,22.36,22.36,0,0,0,.74-3.08l1.18,2.09a5.1,5.1,0,0,0,2.71-1.4,6.77,6.77,0,0,1,4.6-1.37c1.85,0,3.7-.17,5.54-.26.38,0,.77.06,1.33.1l-3,3.78-3.08-.89a10.09,10.09,0,0,1-4.37,3.72l-3-.19a4,4,0,0,0,1.21,2C147.84,221.76,147,222.12,146.48,222.67Zm4.75-8.6-.21-.19-1.14,1.32-1.55-.11-.06.27,2.17.74.79-2Z"/><path class="cls-6" d="M118.46,220.85l1.51-2.09c-1.68.24-3.2.77-4.48-.25s-2.21-2-3.44-3.13l-2.83.88c-.41-.5-.91-1.1-1.4-1.72l-1.51-2a3.77,3.77,0,0,1,2-.18c1.34.06,2.69.23,4,.25,4,.07,2.51-.23,6.11,1.9.47.27.93.56,1.4.84,0,0,.09,0,.26,0,.73-.3.9-1.14,1.46-2.06a19.69,19.69,0,0,0,4.24,9.84,4.8,4.8,0,0,1-2.27,3.93,5.46,5.46,0,0,0-1.81,2.12,63,63,0,0,0-4.44,11.82,8.75,8.75,0,0,1-.53,1.17v-6.5c.76-1.61,1.46-3.33,2.33-4.93s.66-3.59,1.34-5.35l1.09-.13v-1.65c-.49-.49-.88-1.12-1.72-1v0l-.32-.35Zm-3-6.93-.33.06a7.65,7.65,0,0,0,.84,2.22l2.26-.95-.57-.43-1.09.67c-.41-.56-.77-1.05-1.12-1.57Z"/><path class="cls-6" d="M147.3,182.7c-.84-.4-1.7-.79-2.54-1.21s-1.92-1-2.89-1.55a2.44,2.44,0,0,0-.7-.25c-1.19-.13-2.39-.15-3.57-.36a32,32,0,0,0-5.08-.28,27.27,27.27,0,0,0-5.49.56,10.6,10.6,0,0,1-2.1,0l-6.11,3.42-.21-.22c.57-.76,1.12-1.54,1.7-2.29a20,20,0,0,1,1.44-1.73,2.33,2.33,0,0,1,1-.61c2-.53,4.12-1,6.19-1.51a6.14,6.14,0,0,1,1.21-.06c1.11,0,2.22.06,3.33,0a24.12,24.12,0,0,1,8.1,1.11c.76.21,1.54.37,2.5.61.94,1.08,2,2.27,3,3.5.17.2.16.56.23.84Z"/><path class="cls-6" d="M104.27,218.33a12,12,0,0,1-1.79-3.63c-.6-1.59,0-3,.39-4.5a47,47,0,0,1,1.81-4.84,15.12,15.12,0,0,1,2-.82,5.42,5.42,0,0,0,2.42-1.37c1-.91,2.12-1.76,3.2-2.63l.25.17c-.27.76-.55,1.53-.83,2.3,0,0-.07.07-.09.12-.9,2.39-2.17,4.42-4.73,5.41a9.07,9.07,0,0,0-2.07,1.54C103.92,212.78,104.45,215.45,104.27,218.33Z"/><path class="cls-6" d="M154,200.56a17,17,0,0,1,3.52,2.75,4,4,0,0,0,2.2,1.21,3.31,3.31,0,0,1,2.6,2.4,48.66,48.66,0,0,1,1.59,4.78,5.65,5.65,0,0,1-.18,3.4,9,9,0,0,1-1.87,3.53c.08-.67.12-1,.16-1.4a15.72,15.72,0,0,0-.35-6.51,2.2,2.2,0,0,0-1-1.38c-1.36-.83-2.69-1.7-4.33-2.75-.65-1.51-1.43-3.33-2.19-5.14a3.74,3.74,0,0,1-.13-.87Z"/><path class="cls-2" d="M146.48,222.67c.56-.55,1.35-.91,1.52-1.8a4,4,0,0,1,2.58-1.3,3.59,3.59,0,0,0,2.58-1.35c.48-.58,1-1.1,1.61-1.7l1.73,1.19-2.78,5.18L151,222A35.14,35.14,0,0,0,148.6,225a3.9,3.9,0,0,0-.36,1.71c-.07.67.09,1.39-.55,2-.39-1.36-.77-2.67-1.18-4.13l-1-.07,0,0Z"/><path class="cls-6" d="M112.18,196.27l.53-.31c.78-.27,1.58-.52,2.35-.81L120.6,193a9.24,9.24,0,0,1,4.1-.62c.45,0,.91,0,1.39,0l3.65-3.12a4.15,4.15,0,0,1-.13.87c-.2.45-.46.88-.66,1.34-.51,1.19-1,2.37-.45,3.7.05.11,0,.27-.08.5-1.15-.18-2.26-.36-3.37-.52l-3.19-.47-4.69,1.91h-4.3C112.6,196.6,112.25,196.69,112.18,196.27Z"/><path class="cls-6" d="M137.67,195.75c.2-1,.36-1.79.51-2.54a16.1,16.1,0,0,1-1.52-3.94l3.57,3a.59.59,0,0,0,.26.07c3.35-.37,6.33.89,9.31,2.12a27.81,27.81,0,0,1,3.58,1.79,16,16,0,0,1-4.12.3l-4.69-1.91Z"/><path class="cls-2" d="M118.46,220.85l1,1.44.32.35v0c-.18.91.81,1.07,1.07,1.78l-1,.15c-.57.56-.32,1.31-.5,2s-.11,1.31-1,1.65c-.16-1.14-.32-2.23-.46-3.16l-2.68-3-2.42.93a47.4,47.4,0,0,1-3-5.11l1.69-1.26a12.41,12.41,0,0,1,1.54,1.54,3.64,3.64,0,0,0,2.76,1.5A4.33,4.33,0,0,1,118.46,220.85Z"/><path class="cls-6" d="M130.8,199.17a15.14,15.14,0,0,1-5.39,3.11,46.19,46.19,0,0,0-9,4.21c-.31.15-.63.29-1,.41,0,0-.08,0-.2-.12l1-4.5A97.53,97.53,0,0,1,130.8,199.17Z"/><path class="cls-6" d="M150.06,202.24l1.11,4.69a2,2,0,0,1-.64-.08c-1.16-.66-2.3-1.38-3.48-2a33.65,33.65,0,0,0-5.87-2.48,20.74,20.74,0,0,1-5.11-2.67c-.11-.07-.17-.22-.36-.48A107.09,107.09,0,0,1,150.06,202.24Z"/><path class="cls-6" d="M147.35,182.65l.5.13-.09.2-.46-.28Z"/><path class="cls-2" d="M145.49,224.47l-.13.25.15-.23Z"/><path class="cls-6" d="M154,200.55h0C153.9,200.42,154,200.49,154,200.55Z"/><path class="cls-6" d="M171.72,170.25c.79,4.81.78,7.35,0,9.35l-.61-.3c-.42,1.36.56,2.59.12,3.87-1.22,2.36-2,5-4,6.91-.44-1.07-.94-2.15-1.32-3.26a2.65,2.65,0,0,1,0-1.45c.37-1.37.82-2.72,1.3-4.28l-2.23.78c1.11-2.12,1.37-4.24,2.75-6S170.33,172.26,171.72,170.25Z"/><path class="cls-2" d="M169.72,171.17c-.05.19,0,.42-.15.55-.84,1-1.68,2-2.58,2.93a7.82,7.82,0,0,0-1.84,3.33c-.41,1.36-1,2.66-1.55,4-.22.57-.41,1.16-.67,1.91,1.22-.09,1.71-1.31,2.91-1.18-.25.6-.44,1.1-.64,1.58a4.87,4.87,0,0,0,.35,4c.17.36.45.68,0,1.06-1-.81-2-1.59-2.93-2.42a1.91,1.91,0,0,1-.58-.85,16.25,16.25,0,0,1-1.13-4.5c.94-1.82,1.88-3.55,2.75-5.31a6,6,0,0,1,1.73-2c1.21-.95,2.42-1.89,3.65-2.81a2.75,2.75,0,0,1,.68-.24Z"/><path class="cls-2" d="M169.73,171.19c.05-.09.09-.17,0,0l0,0Z"/><path class="cls-6" d="M157.93,178.13l.23.16-.26-.13Z"/><path class="cls-6" d="M101.28,182l-2-.88a6,6,0,0,0,.11.72c.37,1.18.71,2.38,1.16,3.53a2.24,2.24,0,0,1-.13,1.86c-.42.94-.76,1.92-1.17,3A16.49,16.49,0,0,1,97.42,188c-.72-1.24-1.28-2.58-1.89-3.89a5.76,5.76,0,0,1-.16-3.53c0-.33.09-.67.16-1.16l-1,.26c-.88-3-.05-6-.19-9.24,1.23.67,1.62,1.73,2.26,2.58s1.25,1.93,2,2.79a7.92,7.92,0,0,1,1.49,2.88C100.41,179.67,100.8,180.67,101.28,182Z"/><path class="cls-2" d="M96.43,170.88c1.28.93,2.53,1.92,3.86,2.78a9,9,0,0,1,3.11,3.88c.54,1.12,1.2,2.17,1.79,3.26a2.25,2.25,0,0,1,.2,1.86c-.32,1-.49,2-.81,3a3.1,3.1,0,0,1-.76,1.25c-1.08,1-2.23,2-3.4,3-.18-1.12.48-2,.85-2.84a2.74,2.74,0,0,0,0-2.42,25.19,25.19,0,0,1-.86-2.39l3,1.77c-.26-.94-.41-1.69-.68-2.39-.39-1-.94-2-1.28-3a15.31,15.31,0,0,0-4-6.06,2.5,2.5,0,0,1-1-1.76Z"/><path class="cls-2" d="M95.82,170.58l.6.3,0,0-.61-.3Z"/><path class="cls-2" d="M95.84,170.56l0,0c-.06-.1,0,0,0,0Z"/><path class="cls-2" d="M151.23,214.07l-.79,2-2.17-.75.06-.27,1.55.11,1.14-1.32Z"/><path class="cls-2" d="M115.49,213.92c.35.51.71,1,1.11,1.57l1.09-.67.57.43-2.26.95a7.63,7.63,0,0,1-.83-2.22Z"/><path class="cls-5" d="M119.78,222.64l-.32-.35Z"/></g><path class="cls-3" d="M100.08,156.49A211.23,211.23,0,0,0,59,168.4V77.79H74.24l-.36,71.38a264.3,264.3,0,0,1,26.27-5.42Z"/><path class="cls-3" d="M137.11,99.65v-8l-1.8-1.52c-3.87,0-7.74,0-11.6,0l-1.8,1.51,0,15.85,1.8,1.46q10.71-.18,21.39,0,3.76,3.26,7.48,6.53l.15,32.76q-3.77,2.81-7.49,5.66a221.53,221.53,0,0,0-31.34.6q-3.72-2.74-7.46-5.45l.09-16.05c5.09-.5,10.2-.88,15.31-1.08,0,3.24,0,4.87,0,8.12l1.82,1.42q5.86-.26,11.75-.19c.73-.61,1.09-.89,1.82-1.48l0-17.18-1.82-1.51q-10.68,0-21.33.54l-7.41-5.82.18-31.8q3.7-3.2,7.43-6.34H145q3.74,3.12,7.43,6.27l.07,15.87C147.34,99.78,142.22,99.68,137.11,99.65Z"/><path class="cls-3" d="M207.31,161q-3.54,2.34-7.14,4.6A221.28,221.28,0,0,0,170,157.17q-3.69-3.88-7.49-7.66L162,77.79h15.14l.47,66.44,1.68,1.82q5.82,1.22,11.59,2.71l1.64-1.14q-.18-34.92-.35-69.85h15.14Z"/><g id="EST_1964" data-name="EST 1964"><path class="cls-3" d="M61.25,192.46V177h7.39v2.5H63.83v3.83H67.4v2.5H63.83V190h4.81v2.49Z"/><path class="cls-3" d="M66.08,201.78v-1.63l-.3-.3h-2l-.3.3v3.21l.3.3h3.61l1.26,1.26v6.58l-1.26,1.26H62.19l-1.26-1.26v-3.19h2.58V210l.3.31h2l.3-.31v-3.49l-.3-.3H62.19l-1.26-1.26v-6.31l1.26-1.26h5.23l1.26,1.26v3.19Z"/><path class="cls-3" d="M68.87,220.12H66.09v12.93H63.52V220.12H60.74v-2.49h8.13Z"/><path class="cls-3" d="M202.26,183.4v-11h-1.07l.79-2.12h2.5V183.4Z"/><path class="cls-3" d="M206.27,188.61v11l-1.07,1.07h-4.4l-1.07-1.07v-2.55h2.18v1.22l.26.25h1.65l.26-.25v-2.84h-3.26l-1.09-1.1v-5.72l1.07-1.07h4.4Zm-2.45,1.07h-1.65l-.26.26v3.11l.26.26h1.65l.26-.26v-3.11Z"/><path class="cls-3" d="M204.12,207.2l-.26-.26h-1.71l-.24.26v3h3.29l1.07,1.07v5.56l-1.07,1.07h-4.4l-1.07-1.07v-11l1.07-1.07h4.4l1.07,1.07v2.71h-2.15Zm-.26,5.15h-1.71l-.24.26v2.92l.24.26h1.72l.26-.26v-2.92Z"/><path class="cls-3" d="M203.93,235.18v-5.32h-3.22l-1.08-1.07v-6.73h2.21v5.42l.26.26h1.82v-5.68h2.19v13.12Z"/></g><polygon class="cls-4" points="133.15 12.12 137.14 24.41 150.06 24.41 139.61 32 143.6 44.28 133.15 36.69 122.7 44.28 126.69 32 116.24 24.41 129.16 24.41 133.15 12.12"/><path class="cls-3" d="M57.58,63.71,56.5,54.52l.79-1,3.7-.43,1,.79.26,2.26-1.83.22-.14-1.16L60,55l-1.38.17-.2.24.83,7,.24.2,1.38-.18.2-.25L61,61l1.82-.22.27,2.27-.79,1-3.7.44Z"/><path class="cls-3" d="M80.16,62l-5,.61-1.3-11,1.85-.21,1.08,9.19L80,60.19Z"/><path class="cls-3" d="M97.22,59l-.79,1-3.69.44-1-.79L90.55,49.6l1.83-.21,1.06,9,.23.18,1.41-.17.18-.22-1.06-9L96,49Z"/><path class="cls-3" d="M112.81,47l1,.79.41,3.58-.79,1,1,.79.46,3.81-.79,1-4.66.56-1.3-11Zm-.61,4.64.18-.24-.28-2.33-.22-.19-1.68.2.33,2.75Zm.21,1.78-1.68.19.35,2.9,1.67-.19.18-.25-.31-2.48Z"/><path class="cls-3" d="M150.52,49.61l.14-1.15-.19-.24-1.4-.17-.25.19-.26,2.28.19.25,2.57.3.79,1-.55,4.68-1,.8-3.73-.44-.79-1,.27-2.27,1.83.21L148,55.23l.2.24,1.39.17.25-.19.3-2.48-.19-.25-2.56-.3-.79-1,.53-4.49,1-.79,3.72.44.79,1-.26,2.27Z"/><path class="cls-3" d="M164.7,49l-1.07,9.18-1,.79-3.7-.44-.79-1,1.07-9.18,1-.79,3.7.44Zm-2.17.65-1.38-.16-.23.18-.82,7,.18.23,1.39.16.24-.18.82-7Z"/><path class="cls-3" d="M170.32,58.94l1.07-9.18,1-.79,3.7.43.79,1-.26,2.27-1.84-.22.14-1.15-.19-.24-1.39-.17-.24.19-.82,7,.19.24,1.39.16.24-.19.13-1.15,1.84.21-.27,2.27-1,.79L171.11,60Z"/><path class="cls-3" d="M182.37,60.35l1.07-9.18,1-.79,3.7.43.79,1-.27,2.27-1.83-.22.13-1.15-.19-.24-1.38-.17-.25.19-.81,7,.19.24,1.39.17.24-.2.13-1.15,1.84.21L187.85,61l-1,.79-3.7-.43Z"/><path class="cls-3" d="M194.27,62.65l1.29-11,5.25.61-.21,1.77-3.42-.4-.32,2.73,2.54.3-.21,1.78-2.54-.3-.35,2.92,3.42.4-.21,1.78Z"/><path class="cls-3" d="M206,64l1.28-11,4.75.55.79,1-.58,4.91-1,.79.4,4.38-1.82-.21-.4-4.38L208.35,60l-.5,4.28Zm4.3-5.63.23-.19.32-2.73-.18-.22-1.76-.21-.37,3.13Z"/></g></g><path class="cls-3" d="M263.82,62h29.33v84.25h43.53v25H263.82Z"/><path class="cls-3" d="M344.63,150V135H374v10c0,2.18.62,2.81,2.81,2.81h20.12c2.19,0,2.81-.63,2.81-2.81v-9.52c0-1.71-.78-2.18-3.28-2.81l-29-7.95c-15.29-4.21-22.47-6.87-22.47-22.47v-19c0-14.35,6.87-21.22,21.22-21.22h39.78c14.35,0,21.22,6.87,21.22,21.22V97.1H397.83V88.21c0-2.18-.63-2.81-2.81-2.81H377.08c-2.19,0-2.81.63-2.81,2.81v8.43c0,1.71.47,2.18,3.28,3l29,7.8c15.29,4.06,22.47,6.87,22.47,22.47V150c0,14.35-6.87,21.22-21.22,21.22h-42C351.49,171.21,344.63,164.34,344.63,150Z"/><path class="cls-3" d="M444.47,150V62H473.8v81.13a2.48,2.48,0,0,0,2.81,2.8h20.28a2.47,2.47,0,0,0,2.8-2.8V62H529v88c0,13.73-7.48,21.22-21.21,21.22H465.69C452,171.21,444.47,163.72,444.47,150Z"/><path class="cls-3" d="M263.17,179.49h19.49l14.44,33.84,14.43-33.84h19.31v64.37H314.11V206.8L302.06,236H291.58L279.53,206.8v37.06H263.17Z"/><path class="cls-3" d="M342.06,179.49H387.3v14.35H359.35v10h22.16V218H359.35v11.49H387.3v14.35H342.06Z"/><path class="cls-3" d="M396.49,179.49h17.2l21.05,34.21V179.49h16.74v64.37H436.12L413.23,207v36.88H396.49Z"/><path class="cls-3" d="M467.48,195.68H460.4V179.49h17v11.13c0,3.77-1.1,6.16-4.78,9.93L465,208.37h-5.52Z"/><path class="cls-3" d="M483.66,231.35v-8.82H501v5.88c0,1.29.36,1.65,1.65,1.65h11.86c1.29,0,1.66-.36,1.66-1.65V222.8c0-1-.46-1.29-1.93-1.66l-17.1-4.68c-9-2.49-13.25-4.05-13.25-13.25V192c0-8.46,4.05-12.51,12.51-12.51H519.8c8.46,0,12.5,4,12.5,12.51v8.18H515v-5.24c0-1.29-.37-1.65-1.66-1.65H502.79c-1.29,0-1.66.36-1.66,1.65v5c0,1,.28,1.29,1.93,1.75l17.11,4.6c9,2.39,13.24,4,13.24,13.24v11.86c0,8.46-4,12.51-12.51,12.51H496.17C487.71,243.86,483.66,239.81,483.66,231.35Z"/><path class="cls-4" d="M554.93,89.29V68.4c0-4.73,2.24-7,7-7h10.74c4.73,0,7,2.24,7,7v4.42h-4.78V68.55c0-2-.75-2.74-2.74-2.74h-9.7c-1.94,0-2.68.75-2.68,2.74V89.14c0,2,.74,2.74,2.68,2.74h9.7c2,0,2.74-.75,2.74-2.74V84.86h4.78v4.43c0,4.58-2.24,7-7,7H561.9C557.17,96.25,554.93,93.87,554.93,89.29Z"/><path class="cls-4" d="M557.65,111.18h4.77v30.45h16.52V146H557.65Z"/><path class="cls-4" d="M554.49,188.79V160.93h4.77v27.71c0,2,.75,2.74,2.69,2.74h9.95c2,0,2.73-.75,2.73-2.74V160.93h4.78v27.86c0,4.73-2.24,7-7,7h-11C556.72,195.75,554.49,193.52,554.49,188.79Z"/><path class="cls-4" d="M555.36,210.68h17.31c4.72,0,7,2.24,7,7v4.77a5.22,5.22,0,0,1-3.23,5.28A5.07,5.07,0,0,1,580,233v5.52c0,4.73-2.24,7-7,7h-17.7Zm16.76,14.88c2,0,2.74-.75,2.74-2.69v-5.12c0-2-.75-2.74-2.74-2.74h-12v10.55Zm.4,15.62c2,0,2.73-.75,2.73-2.74v-5.92c0-2-.74-2.73-2.73-2.73H560.13v11.39Z"/><path class="cls-3" d="M599.33,209.06V186.15h36.45v20.31c0,3.9,1.3,5.2,5.2,5.2H689.4c3.91,0,5.21-1.3,5.21-5.2V184.59c0-5.73-2.09-7.29-8.85-8.85l-48.42-10.41c-22.91-5-37.49-14.06-37.49-37.49V99.73c0-24.73,11.72-36.45,36.45-36.45h56.22C717.25,63.28,729,75,729,99.73v20.82H692.52V102.33c0-3.9-1.3-5.21-5.2-5.21H642.54c-3.9,0-5.2,1.31-5.2,5.21v19.78c0,5.73,2.08,7.29,8.85,8.85l48.42,10.42c22.91,4.94,37.48,14.05,37.48,37.48v30.2c0,24.73-11.71,36.44-36.44,36.44H635.78C611.05,245.5,599.33,233.79,599.33,209.06Z"/><path class="cls-3" d="M763.33,209.06V99.73c0-24.73,11.71-36.45,36.44-36.45h66.9c24.73,0,36.45,11.72,36.45,36.45V209.06c0,24.73-11.72,36.44-36.45,36.44h-66.9C775,245.5,763.33,233.79,763.33,209.06Zm97.1,2.08c3.9,0,5.2-1.3,5.2-5.2V102.85c0-3.9-1.3-5.21-5.2-5.21H806c-3.9,0-5.21,1.31-5.21,5.21V205.94c0,3.9,1.31,5.2,5.21,5.2Z"/><path class="cls-3" d="M935.4,209.06V99.73c0-24.73,11.71-36.45,36.44-36.45h60.39c24.73,0,36.45,11.72,36.45,36.45V129.4h-37.49V102.85c0-3.9-1.3-5.21-5.2-5.21h-47.9c-3.91,0-5.21,1.31-5.21,5.21V205.94c0,3.9,1.3,5.2,5.21,5.2H1026c3.9,0,5.2-1.3,5.2-5.2V179.38h37.49v29.68c0,24.73-11.72,36.44-36.45,36.44H971.84C947.11,245.5,935.4,233.79,935.4,209.06Z"/><path class="cls-3" d="M1097.57,209.06V99.73c0-24.73,11.71-36.45,36.44-36.45h60.4c24.73,0,36.44,11.72,36.44,36.45V129.4h-37.48V102.85c0-3.9-1.31-5.21-5.21-5.21h-47.9c-3.9,0-5.2,1.31-5.2,5.21V205.94c0,3.9,1.3,5.2,5.2,5.2h47.9c3.9,0,5.21-1.3,5.21-5.2V179.38h37.48v29.68c0,24.73-11.71,36.44-36.44,36.44H1134C1109.28,245.5,1097.57,233.79,1097.57,209.06Z"/><path class="cls-3" d="M1264.17,63.28h122.61V97.64h-85.13v37.75h69v33.84h-69v41.91h85.13V245.5H1264.17Z"/><path class="cls-3" d="M1558.06,245.5h-40.35l-30.19-64.29h-30.2V245.5h-37.48V63.28h96.05c24.73,0,36.45,11.72,36.45,36.45v44c0,20.57-8.07,32.28-25.25,35.4Zm-48.42-97.61c3.91,0,5.21-1.31,5.21-5.21V102.33c0-3.9-1.3-5.21-5.21-5.21h-52.32v50.77Z"/></g></svg>