<?xml version="1.0" encoding="utf-8"?>
<!-- Generator: Adobe Illustrator 22.1.0, SVG Export Plug-In . SVG Version: 6.00 Build 0)  -->
<svg version="1.1" id="Layer_1" xmlns="http://www.w3.org/2000/svg" xmlns:xlink="http://www.w3.org/1999/xlink" x="0px" y="0px"
	 viewBox="0 0 1600 240" style="enable-background:new 0 0 1600 240;" xml:space="preserve">
<style type="text/css">
	.st0{fill:#FFFFFF;}
</style>
<title>webBanner-whiteArtboard 1</title>
<path class="st0" d="M283.3,27.9h29.4l-14.8,84.3h42.3l-4.4,25h-71.7L283.3,27.9z"/>
<path class="st0" d="M347.1,115.9l2.6-15h29.4l-1.7,10c-0.5,2.2,0,2.8,2.2,2.8h18.9c2.2,0,3-0.6,3.4-2.8l1.6-9.5
	c0.3-2.2-0.3-2.7-2.5-3.3l-27-8c-14.5-4.2-20.8-7-18.1-22l3.3-19c2.7-14.4,10.5-21.2,24.5-21.2h39.5c14,0,19.7,6.9,17,21.2L437.9,63
	h-29.4l1.6-8.9c0.3-2.2-0.1-2.8-2.3-2.8h-16.9c-2,0-2.8,0.6-3.1,2.8l-1.6,8.4c-0.5,2.2,0,2.7,2.5,3.4l27.2,7.8
	c14.5,4.1,20.8,7,18.1,22l-3.6,20.1c-2.5,14.4-10.5,21.2-24.5,21.2h-41.7C350.1,137.2,344.6,130.3,347.1,115.9z"/>
<path class="st0" d="M445.3,115.9l15.5-88h29.4l-14.2,81.2c-0.3,1.9,0.5,2.8,2.2,2.8h19c1.6,0.2,3.1-1.1,3.3-2.7c0,0,0-0.1,0-0.1
	l14.2-81.2H544L528.5,116c-2.5,13.7-11.2,21.2-24.5,21.2h-41.7C448.9,137.2,442.8,129.7,445.3,115.9z"/>
<path class="st0" d="M261.1,147.4h19.5l8,34l19-34h20.5l-11.4,64.7H300l6.6-37.2l-16.3,29.4H280l-7.2-29.4l-6.6,37.2h-16.5
	L261.1,147.4z"/>
<path class="st0" d="M338.9,147.4h44.7l-2.5,14.4h-27.4l-1.8,10.1h21.6l-2.5,14.2h-21.6l-2,11.6h27.4l-2.6,14.4h-44.8L338.9,147.4z"
	/>
<path class="st0" d="M392.5,147.4H409l15.2,34.4l6-34.4H447l-11.4,64.7h-14.6L404.5,175l-6.5,37.1h-16.9L392.5,147.4z"/>
<path class="st0" d="M459.9,163.7h-7l2.9-16.3h16.9l-1.9,11.2c-0.6,3.8-2.2,6.2-6.5,10l-9.1,7.9h-5.5L459.9,163.7z"/>
<path class="st0" d="M469.6,199.5l1.6-8.9h17.4l-1,5.9c-0.3,1.3,0,1.7,1.3,1.7H500c1.3,0,1.8-0.4,2-1.7l0.9-5.6
	c0.2-1.3-0.2-1.6-1.5-1.9l-16-4.7c-8.6-2.5-12.3-4.2-10.7-13l2-11.3c1.6-8.5,6.2-12.6,14.5-12.6h23.4c8.3,0,11.6,4.1,10.1,12.6
	l-1.4,8.2h-17.4l0.9-5.3c0.2-1.3-0.1-1.7-1.4-1.7h-10c-1.2,0-1.7,0.4-1.9,1.7l-0.9,5c-0.3,1.3,0,1.6,1.5,2l16.1,4.6
	c8.6,2.4,12.3,4.2,10.7,13l-2.1,11.9c-1.5,8.5-6.2,12.6-14.5,12.6h-24.7C471.3,212.1,468.1,208,469.6,199.5z"/>
<path class="st0" d="M552.5,175.3l4-23.2h36.8l-3.7,20.6c-0.5,3.9,0.5,5.3,4.5,5.3H641c4,0,5.5-1.3,6.1-5.3l4-22.1
	c1.3-6.9-0.8-8.4-7.1-10L597.8,130c-21.9-5-34.5-12.6-30.3-36.9l5-28.5c4.2-25,17.9-36.9,42.4-36.9h56.4c24.5,0,34,11.9,29.8,36.9
	l-3.7,21.1h-36.9l3.2-18.5c0.8-4-0.3-5.3-4.2-5.3H616c-3.7,0-5.3,1.3-6.1,5.3l-3.4,20c-1.1,6.8,0.5,8.7,6.8,10l46.4,10.5
	c21.9,5,34.5,12.7,30.3,36.9l-5.3,30.6c-4.5,25-18.2,36.9-42.7,36.9H582C557.5,212.2,548,200.4,552.5,175.3z"/>
<path class="st0" d="M715.6,175.3l19.5-110.7c4.2-25,17.9-36.9,42.4-36.9h66.7c24.5,0,34,11.9,29.8,36.9l-19.5,110.7
	c-4.5,25-18.2,36.9-42.7,36.9h-66.7C720.6,212.2,711.1,200.4,715.6,175.3z M811,177.4c3.7,0,5.3-1.3,6.1-5.3l18.4-104.4
	c0.5-4-0.5-5.3-4.2-5.3h-53c-3.7,0-5.3,1.3-5.8,5.3L754,172.2c-0.8,3.9,0.3,5.3,4,5.3H811z"/>
<path class="st0" d="M886.3,175.3l19.5-110.7c4.2-25,17.9-36.9,42.4-36.9h60.6c24.5,0,34,11.9,29.8,36.9l-5.3,30h-38l4.7-26.9
	c0.5-4-0.5-5.3-4.5-5.3h-46.6c-3.7,0-5.3,1.3-5.8,5.3l-18.5,104.4c-0.8,3.9,0.3,5.3,4,5.3h46.7c4,0,5.5-1.3,6.3-5.3l4.8-26.9h38
	l-5.3,30c-4.5,25-18.5,36.9-42.7,36.9h-60.7C891.3,212.2,881.9,200.4,886.3,175.3z"/>
<path class="st0" d="M1047.6,175.3l19.5-110.7c4.2-25,17.9-36.9,42.4-36.9h60.6c24.5,0,34,11.9,29.8,36.9l-5.3,30h-38l4.7-26.9
	c0.5-4-0.5-5.3-4.5-5.3h-46.6c-3.7,0-5.3,1.3-5.8,5.3l-18.4,104.4c-0.8,3.9,0.3,5.3,4,5.3h46.7c4,0,5.5-1.3,6.3-5.3l4.7-26.9h38
	l-5.3,30c-4.5,25-18.4,36.9-42.7,36.9h-60.6C1052.6,212.2,1043.2,200.4,1047.6,175.3z"/>
<path class="st0" d="M1239,27.8h122l-6.1,34.8h-84.1l-6.6,38.2h68l-6.1,34.2h-68l-7.7,42.4h84.1l-6.1,34.8h-122L1239,27.8z"/>
<path class="st0" d="M1519.1,64.7l-7.9,44.5c-3.7,20.8-14,32.7-31.4,35.8l19,67.2h-39l-18.4-65.1h-30.8l-11.6,65.1h-38l32.4-184.5
	h95.9C1513.8,27.8,1523.3,39.6,1519.1,64.7z M1476.7,62h-51.1l-9.2,51.4h51.1c3.7,0,5.3-1.3,6.1-5.3l7.1-40.8
	C1481.4,63.3,1480.3,62,1476.7,62z"/>
<path class="st0" d="M128.8,232.2h-0.6c-0.4-0.4-0.8-0.7-1.3-1c-6.9-3.9-13.9-7.6-20.6-11.7c-9.3-5.7-18.7-11.4-27.7-17.4
	c-8.7-5.7-16.6-12.4-23.6-20.1c-5.4-5.8-10-12.3-13.8-19.2c-0.4-1-1.5-1.6-2.6-1.5c-5.8,0.1-11.5,0-17.2,0h-2c0-0.5,0.1-1,0.2-1.5
	c0.9-3.5,1.9-7,2.8-10.5c0.1-0.9,0.9-1.6,1.8-1.6c0.1,0,0.1,0,0.2,0c1,0.1,2,0,2.9,0l0.2-0.6c-3.5-2.3-4-5.7-3.2-9.3
	c0.8-4,2.1-7.9,3.1-11.9c0.8-3.3,2.5-6.3,2.1-10.2c-0.6-6.7-0.1-13.4,0.2-20.1c0.3-6.3,0.9-12.6,1.6-18.9c0.6-5.7,1.4-11.3,2.4-17
	c0.9-5.2,4.2-7.7,9.5-7.6c3.5,0,7,0.3,10.5,0.3c0.9-0.1,1.7-0.5,2.3-1.1c2.7-3.1,5-6.5,7.8-9.4c5.6-6.1,11.8-11.7,18.5-16.6
	c9.4-6.9,20-11.9,31.3-14.9c13.7-3.6,27.4-3,41,0.3c16.9,4.2,32.5,12.6,45.4,24.4c5,4.4,9.4,9.5,13,15.1c0.5,0.5,1.1,0.8,1.8,0.8
	c3.2,0.1,6.3,0,9.5,0c2,0,3.9,0.8,5.3,2.2c1.9,2,3.2,4.5,3.7,7.2c0.8,4.2,1.3,8.4,1.7,12.6c0.6,5.8,1.1,11.6,1.2,17.4
	c0.1,7-0.1,14-0.3,21c-0.2,3.9-0.5,7.7-1.1,11.5c-0.2,1.7,0.3,1.9,1.6,1.9c4,0,8,0,12,0c1.3,0,1.8,0.3,1.4,1.7
	c-1.2,4.1-2.3,8.2-3.4,12.3c-0.1,0.9-1,1.6-1.9,1.5c0,0-0.1,0-0.1,0c-2.8,0-5.7,0-8.5,0c-1.5-0.2-2.9,0.8-3.1,2.2
	c-1.3,5.2-2.7,10.4-4.2,15.5c-0.9,3.3-1,3.3-4.5,3.3c-1-0.1-2,0.4-2.4,1.2c-2.8,4.8-6.1,9.3-9.8,13.5c-5,5.6-10.5,10.7-16.4,15.2
	c-6,4.7-12.2,9-18.5,13.2c-9.1,6.1-18.6,11.5-28.4,16.3C141.6,224.2,135.1,228,128.8,232.2z M222.2,124.4c1.6,0,3.1-0.1,4.7,0
	c1.1,0.1,1.7-0.2,1.8-1.5c0.4-5.7,1.2-11.3,1.4-17c0.3-12.6-0.5-25.3-2.6-37.7c-1.3-7.8-4.7-12-13.5-12c-4.6,0-9.3,0.2-13.9,0.2
	c-13.6,0.1-27.2,0.3-40.8,0.4c-19,0.1-38,0.2-56.9,0.3c-18,0.1-36,0.1-54,0.1c-5,0-7.9,2.3-9,7.2c-0.5,2.6-1,5.1-1.2,7.8
	c-1.1,10.1-2.2,20.2-3.1,30.3c-0.4,4.1-0.5,8.3-0.7,12.3l7.2-1.3c0-0.2,0.1-0.5,0.1-0.8c0.1-14,1.2-28,3.3-41.8
	c0.9-5.6,3.5-8.5,8.2-8.8c1.1-0.1,2.2,0,3.3,0c9.8,0.1,19.6,0.4,29.4,0.3c18.4-0.2,36.8-0.6,55.3-0.8c8.8-0.1,17.6,0,26.4-0.2
	c14.3-0.2,28.7-0.4,43-0.6c2.2-0.2,4.4,0.6,6.1,2c2,1.9,3.3,4.5,3.6,7.2c1.1,7.6,2.4,15.1,2.9,22.7c0.5,6.5,0.3,13.1,0.2,19.7
	C223,116.3,222.5,120.2,222.2,124.4L222.2,124.4z M214.5,161.9l-0.4-0.4c-0.9,0.1-1.7,0.1-2.6,0c-2.7-0.6-5.4,0.7-6.6,3.2
	c-0.4,0.6-0.8,1.1-1.2,1.5c-10.9,12.6-23.9,22.6-37.7,31.8c-11.6,7.8-24.2,13.7-36.5,20.3c-0.7,0.3-1.5,0.4-2.3,0.1
	c-2.7-1.1-5.3-2.3-7.9-3.7c-14-7.5-27.2-16.3-39.5-26.3c-9.7-7.8-18.8-16.1-25.9-26.4c-0.2-0.3-0.6-0.8-0.9-0.8
	c-2,0-4.1,0.2-6.2,0.3c3.2,5.6,7.1,10.8,11.5,15.6c11.7,12.6,25.5,22.5,40.2,31.2c5.7,3.4,11.5,6.7,17.3,10
	c3.7,2.2,7.5,4.3,11.2,6.4c0.9,0.7,2.2,0.7,3.2,0.1c5.5-3.2,11.1-6.3,16.6-9.6c8.8-5.3,17.6-10.8,26.4-16.2
	c12-7.5,23.2-16,32.7-26.6C209,169.2,211.6,165.5,214.5,161.9z M24,157.4h25.7c4.4,0.2,8.3-2.6,9.6-6.8c0.5-1.6,1-3.2,1.4-4.9
	c0.8-3,1.7-6,2.4-9c0.8-3.3-0.6-5.4-4-6.1c-1-0.2-2.1-0.2-3.1-0.2c-3.5,0-7,0.1-10.5-0.1c-0.8-0.1-1.5-0.5-2-1.2
	c-0.6-2.2,0.8-4.5,3-5c0.3-0.1,0.7-0.1,1-0.1c5.3,0,10.6,0,15.9,0c0.5,0,1.5-0.3,1.6-0.7c0.6-1.7,1-3.4,1.5-5.3H41.1
	c-4.7,0-8.1,2.3-9.5,6.7c-1.5,4.7-2.7,9.4-3.9,14.2c-0.8,3.3,0.8,5.2,4.1,5.4c0.5,0.1,1.1,0.1,1.6,0.1H44c3.9,0,4,0.2,3,3.9
	c-0.7,2.7-1.2,3.1-4,3.1c-5.4,0-10.7,0-16.1,0c-1,0-1.6,0.2-1.8,1.3C24.8,154.2,24.4,155.6,24,157.4z M81.3,157.4h11.2
	c4.3,0,6.8-1.6,8.4-5.7c0.9-2.4,1.4-4.9,2.1-7.4c0.9-3.3,1.8-6.5,2.6-9.8c0.8-3.9-0.7-5.7-4.7-5.9H100c-7.4,0-14.8,0-22.1,0
	c-4.4,0-7.3,1.9-8.6,6.2c-1.7,5.5-3.1,11-4.4,16.6c-0.9,3.8,1.1,6,5,6C73.8,157.4,77.5,157.4,81.3,157.4L81.3,157.4z M64.4,50.2
	l0.3,0.6c1.8,0,3.6,0,5.4,0c0.4-0.1,0.8-0.4,1-0.8c2.6-4.9,6.1-9.1,10.5-12.6c3.2-2.7,6.6-5,9.9-7.6c1.3,2.2,3.3,3.2,4.7,2.5
	c6.8-3.3,13.6-6.7,20.5-10c-0.1-0.5-0.3-1.2-0.5-1.9s-0.4-1.5-0.7-2.5c12.9-4.2,25.5-2.6,38.2,0.9l-2.5,4.3c1.3,0.3,2.5,0.7,3.8,1.3
	c5.6,3.2,11.2,6.4,16.7,9.7c0.8,0.6,1.8,0.8,2.7,0.5c2.3-0.6,4.3-1.5,5.6-3.6c0.2,0,0.3,0.1,0.4,0.1c7,4.9,13.3,10.7,17.7,18.2
	c0.3,0.5,0.9,1.1,1.3,1.2c1.6,0.1,3.1,0.1,4.7,0.1c-0.1-0.3-0.3-0.7-0.4-1c-5.1-7.7-11.7-14.4-19.3-19.6
	c-8.3-5.6-17.3-9.8-26.9-12.7c-7.1-2.3-14.4-3.8-21.8-4.3c-12.4-0.6-24.8,2-35.8,7.7C91,25.1,82.9,30.9,76,37.9
	C72,41.9,68.3,46.1,64.4,50.2z M205.8,152.2h-2.1c-5.2,0-10.5,0-15.8,0c-2.3,0-3.2-1.2-2.7-3.5c0.1-0.4,0.2-0.8,0.3-1.3
	c0.2-1.2,0.7-1.7,2.1-1.7c6.6,0.1,13.1,0,19.7,0c0.7,0,1.5,0.2,1.8-0.9c0.9-3.6,2-7.3,2.8-10.9c0.7-3.4-1-5.3-4.5-5.5h-21.8
	c-5.5,0-8,1.7-9.6,7c-1.3,4.1-2.3,8.3-3.4,12.5c-0.5,1.6-0.8,3.3-0.9,5c-0.2,2.8,1.2,4.3,4,4.3c9.2,0.1,18.5,0,27.7,0
	c0.5,0,0.9-0.3,1.2-0.7C205.1,155.3,205.4,153.9,205.8,152.2L205.8,152.2z M134.2,38.8c0-3.2,0-6.7-0.1-10.2c0-0.4-0.8-1.1-1.3-1.2
	c-4.7-1.2-9.4-2.3-14.2-3.3c-1.2-0.3-2.5-0.2-3.6,0.2C109,27,103,30,96.9,33c-0.5,0.3-0.8,0.8-0.9,1.3c-0.1,3.2,0,6.3,0,9.5
	c0,1,0.4,1.4,1.4,1.7c5.6,1.3,11.2,2.7,16.7,4c0.4,0.1,0.8,0,1.2-0.2C120.9,44.7,127.4,41.8,134.2,38.8z M135,27.4
	c0,3.7,0,7.2,0,10.7c0.1,0.5,0.4,1,0.9,1.3c4.5,2.1,9.3,3.7,13.5,6.3c3.6,2.4,8.1,3,12.3,1.8c3.5-0.9,7.1-1.3,10.6-2
	c0-3.2,0-6.2,0-9.3c-0.1-0.5-0.4-1-0.9-1.2c-5.5-3.3-11.1-6.6-16.7-9.7c-1.3-0.8-2.8-1.1-4.4-1C145.3,25,140.3,26.3,135,27.4z
	 M173.7,128.7c-0.5-0.1-0.7-0.1-0.9-0.1c-7,0-13.9,0-20.8,0c-3.2,0-5.5,1.6-7.4,4s-2.6,5.5-3.3,8.5c-0.9,3.6-1.9,7.2-2.4,10.8
	c-0.5,2.4,1,4.8,3.4,5.3c0.4,0.1,0.7,0.1,1.1,0.1c7.2,0.1,14.4,0.1,21.6,0c0.5,0,0.9-0.3,1.1-0.6c0.5-1.4,0.8-2.8,1.2-4.4
	c-0.8,0-1.3-0.1-1.9-0.1c-3.6,0-7.1,0-10.7,0c-2.3,0-3.1-1.1-2.5-3.4c1.1-3.9,2.1-7.8,3.2-11.7c0.3-2.1,2.2-3.6,4.4-3.4
	c3.8,0,7.6,0,11.3-0.1c0.6,0,1.1-0.3,1.5-0.8C173,131.5,173.4,130.1,173.7,128.7z M134,152.2h-1.7c-3.5,0-7,0-10.5,0
	c-2.6,0-3.4-1-2.7-3.5c1-3.8,2.1-7.6,3.1-11.4c0.7-2.6,1.9-3.6,4.5-3.6c3.7,0,7.4,0,11.2,0c0.5,0,1.4-0.4,1.5-0.8
	c0.5-1.4,0.9-2.8,1.2-4.2c-0.3-0.1-0.5-0.1-0.8-0.2c-7,0-14.1-0.1-21.2,0.1c-1.6,0-3.2,0.6-4.5,1.6c-1.7,1.4-3.4,3.2-4.1,5.1
	c-1.7,5.1-3.1,10.3-4.2,15.6c-0.8,4.3,1.3,6.4,5.7,6.4h17.1c4.6,0,4.6,0,5.5-4.6C134,152.6,134,152.4,134,152.2z M232.2,128.6
	c-4.2,0-8.1,0-12,0.1c-0.4,0-1.1,0.8-1.2,1.3c-2.2,8.1-4.4,16.1-6.5,24.2c-0.3,1-0.5,2.1-0.8,3.3c3.9,0,7.6-0.1,11.2,0
	c1,0.2,1.9-0.4,2.1-1.4c0-0.1,0-0.1,0-0.2c1.3-5,2.7-9.9,3.9-14.9c0.5-2.4,2.4-4.2,4.8-4.5c1-0.2,1.9-0.3,2.9-0.3c1.7,0,3.4,0,5.1,0
	c0.4,0,1.2-0.3,1.3-0.6c0.7-2.2,1.2-4.4,1.9-6.9c-4.8,0.2-9.7-1.4-13.5,3.6C231.7,130.7,232,129.7,232.2,128.6z M163.5,73.6v1.9
	c0,4.5,0,9.1,0,13.6c0,1.9-0.6,3-2.2,3.1c-2.4,0.2-4.9,0.1-7.5,0.1v-2c0-5.1,0-10.3,0-15.4c0-1-0.2-1.5-1.4-1.5
	c-1.6,0.1-3.2,0.1-4.8,0c-1.1,0-1.5,0.3-1.5,1.5c0.1,6.8,0,13.6,0,20.3c0,1,0.2,1.4,1.3,1.4c5.8,0,11.6,0,17.4,0
	c0.7,0,1.3-0.1,1.9-0.3c2.8-0.5,4.7-3.1,4.4-5.9V73.6H163.5z M143.5,77.7c0.1-1.1,0-2.1-0.1-3.2c-0.2-0.5-0.6-0.9-1.1-1
	c-6-0.1-12-0.2-18,0c-3.8,0.1-5.8,2.5-5.8,6.3c0,2,0,4,0,6.1c0,1,0.3,1.3,1.3,1.3c3.7,0,7.3,0,11,0h4.7c0.7,4.2-0.1,5.1-4.1,5.2
	h-12.9c-0.1,1.1-0.1,2.2,0,3.3c0.2,0.5,0.5,0.8,1,0.9c6,0,12,0.2,18,0c3-0.1,6.3-2.2,5.9-6.4c-0.1-1.9-0.1-3.8,0-5.7
	c0.1-1.2-0.3-1.6-1.6-1.6c-4.6,0.1-9.3,0-13.9,0h-1.7c-0.4-4.3,0.3-5.2,4.4-5.2L143.5,77.7L143.5,77.7z M102.9,92.2
	c0-0.6-0.1-1.1-0.1-1.6c0-5.2,0-10.5,0-15.7c0-1.1-0.3-1.6-1.5-1.5c-1.5,0.1-3.1,0.1-4.6,0c-1.3-0.1-1.6,0.4-1.5,1.6
	c0,6.7,0,13.3,0,20c0,0.5,0.1,0.9,0.2,1.5c6.7,0,13.2,0,19.8,0c0.4-0.1,0.7-0.4,0.8-0.8c0.1-1.1,0-2.2,0-3.5L102.9,92.2z
	 M74.3,109.2l0.3-0.1c0.8,2.5,1.6,4.9,2.3,7.4c0.3,1.1,0.8,1.7,2.1,1.7c1.1,0.2,2.1-0.5,2.3-1.6c0,0,0,0,0-0.1
	c0.7-2.6,1.6-5.1,2.5-7.6c0.2,1.8,0.3,3.6,0.2,5.4c0,4.2,0,4.2,4.2,3.8c0.1,0,0.2-0.1,0.5-0.3c0-2.8,0-5.7,0-8.5
	c0-4.7,0-4.6-4.6-4.6c-0.8-0.1-1.6,0.5-1.7,1.3c-0.6,1.9-1.2,3.7-2,6c-0.7-2.4-1.3-4.2-1.9-6.1c-0.2-0.5-0.7-1.1-1.1-1.2
	c-1.7-0.1-3.5-0.1-5.3-0.1c0,4,0,7.9,0,11.7c0,1.8,0.1,1.9,2.1,1.4L74.3,109.2z M192.6,111.2c1.4-1.1,1.4-1.1,1.3-3.8
	c0.1-1.3-0.8-2.5-2.1-2.6c-0.2,0-0.3,0-0.5,0c-3,0-6,0-9,0c-0.9,0-1.2,0.3-1.2,1.2c0,3.6,0,7.2,0,10.8c0,1,0.4,1.3,1.3,1.3
	c2.8-0.1,5.6,0,8.4,0c1.3,0,2.6-0.2,3.1-1.6C194.4,114.9,193.8,112.2,192.6,111.2L192.6,111.2z M131,104.8c-2.9,0-5.6,0-8.4,0
	c-1.8,0-2.7,0.8-2.8,2.7c0,1.4,0,2.7,0,4.1c-0.1,1.1,0.7,2.1,1.9,2.2c0.1,0,0.2,0,0.2,0c0.8,0,1.6,0,2.4,0.1c0.9,0.2,2.6-0.8,2.6,1
	s-1.6,0.7-2.5,0.8c-1.4,0.1-2.8,0.1-4.1,0v2.4c2.9,0,5.7,0,8.4,0c1.9,0,2.8-0.9,2.9-2.8c0.1-1.3,0-2.6,0-3.9
	c0.1-1.2-0.8-2.3-2.1-2.4c-0.1,0-0.2,0-0.2,0c-1.1-0.1-2.3,0-3.4-0.2c-0.5-0.1-1-0.5-1.4-0.8c0.5-0.3,0.9-0.8,1.4-0.8
	c1.7-0.1,3.4,0,5.1,0L131,104.8z M102.4,104.8c0,4.1,0,7.9,0,11.7c0,0.8-0.3,1.7,1.1,1.7s1-1,1-1.8c0-2.8,0-5.5,0-8.2
	c0.4,0.3,0.7,0.6,0.8,1.1c1.2,2.6,2.4,5.3,3.7,7.9c0.2,0.4,0.6,1,0.9,1c1.9,0.1,3.8,0.1,5.7,0.1v-13.2h-2.2v9.6
	c-1.6-2.7-2.8-5.5-4.2-8.2c-0.3-0.6-0.9-1.1-1.5-1.3C105.8,104.9,104.1,104.8,102.4,104.8L102.4,104.8z M90.5,104.9
	c0,4.2,0,8.3,0,12.5c0.1,0.4,0.4,0.7,0.8,0.8c3.2,0.1,6.3,0,9.4,0c0.4-2.2,0.4-2.3-1.6-2.3c-1.2,0-2.5,0-3.7,0v-3.5h5.2v-2.3h-5.1
	V107h5.3v-2.2L90.5,104.9z M171.1,104.8c-1.5,0-2.8,0-4,0c-0.3,0-0.8,0.5-0.8,0.8c0,3.3,0,6.7,0.2,10c0,1.4,1.1,2.6,2.5,2.6
	c0,0,0.1,0,0.1,0c2.6,0,5.1,0,7.7,0c1.3,0.1,2.3-0.9,2.4-2.1c0,0,0-0.1,0-0.1c0.1-3.6,0-7.3,0-10.9c-2-0.3-2-0.3-2,1.4s0,3.5,0,5.2
	c-0.1,4.8,0.8,4.1-4.1,4.2c-1.5,0-2.1-0.5-2-2C171.2,111,171.1,108.1,171.1,104.8L171.1,104.8z M153.1,115.9c-0.6,0-0.9-0.1-1.3-0.1
	c-4.6-0.1-4.6-0.1-4.6-4.7c0-4,0-4,3.9-4c2,0,2.1-0.2,1.5-2.3c-2.3,0-4.6,0-7,0c-1.9,0-3.1,1-3.2,2.9c-0.1,2.6-0.1,5.1,0,7.7
	c-0.1,1.3,0.8,2.5,2.2,2.7c2.8,0.2,5.5,0.1,8.4,0.1L153.1,115.9z M165,115.9h-5.1c-0.1-0.2-0.1-0.3-0.1-0.5c0-2.3,0-4.7,0-7
	c-0.1-4,0.9-3.4-3.8-3.5c-0.9,0-1.1,0.3-1.1,1.2c0,3.7,0,7.4,0,11.1c0,0.4,0.5,1,0.8,1c3.1,0.1,6.2,0,9.4,0L165,115.9z M177.4,50.9
	c0.5-2.1-0.8-4.2-2.9-4.7c-0.6-0.1-1.2-0.1-1.9,0c-5.6,1-11.2,2-16.8,2.9c-1.1,0.2-1.5,0.7-1.1,1.7H177.4z M90.8,50.9h24.1
	c-0.3-0.4-0.8-0.7-1.3-0.8L97,46.1C93.8,45.4,91.1,47.5,90.8,50.9L90.8,50.9z M116.9,104.9c0,1.7,0,3.3,0,4.8c0,0.3,0.6,0.8,0.9,0.8
	s1-0.4,1-0.7c0.1-1.6,0-3.2,0-4.9H116.9z"/>
<path class="st0" d="M87.3,133.8h2.8c2,0,2.6,0.8,2.1,2.6c-1.1,4-2.1,8-3.3,12c-1,3.7-1.2,3.8-5.1,3.8c-1.3,0-2.6,0-3.9,0
	c-0.9,0.1-1.8-0.6-1.9-1.5c0-0.3,0-0.5,0.1-0.8c1.2-4.8,2.5-9.5,3.8-14.2c0.2-1.2,1.3-2.1,2.6-1.9c0,0,0.1,0,0.1,0
	C85.4,133.9,86.4,133.8,87.3,133.8z"/>
<path class="st0" d="M187.5,141.2c0.5-1.8,0.9-3.4,1.3-4.9c0.3-1.3,1.5-2.1,2.8-2.1c1.9,0,3.7,0,5.6,0c1.4,0,2.1,0.8,1.8,2.2
	c-0.3,1.3-0.6,2.7-1,3.9c-0.1,0.3-0.5,0.8-0.8,0.8C193.9,141.2,190.8,141.2,187.5,141.2z"/>
<path class="st0" d="M185.8,115.9v-3.8c1.1,0.2,2.4,0,3,0.6c0.4,0.8,0.4,1.8,0,2.6C188.2,115.9,186.9,115.8,185.8,115.9z"/>
<path class="st0" d="M185.8,110.1V107c1.1,0.1,2.1,0.3,3.1,0.6c0.3,0.1,0.3,1.9,0,2.1C187.9,109.9,186.9,110.1,185.8,110.1z"/>
</svg>
